<?xml version="1.0" encoding="utf-8"?>
<!-- Generator: Adobe Illustrator 26.0.2, SVG Export Plug-In . SVG Version: 6.00 Build 0)  -->
<svg version="1.1" xmlns="http://www.w3.org/2000/svg" xmlns:xlink="http://www.w3.org/1999/xlink" x="0px" y="0px"
	 viewBox="0 0 1500 1080" style="enable-background:new 0 0 1500 1080;" xml:space="preserve">
<style type="text/css">
	.st0{fill:#84B0FB;}
	.st1{fill:none;stroke:#25014B;stroke-width:2;stroke-linecap:round;stroke-linejoin:round;stroke-miterlimit:10;}
	.st2{opacity:0.2;fill:#25014B;stroke:#25014B;stroke-width:2;stroke-linecap:round;stroke-linejoin:round;stroke-miterlimit:10;}
	.st3{fill:#F1A64C;}
	.st4{clip-path:url(#SVGID_00000088096603752915002060000005466110611255869076_);}
	.st5{fill:none;stroke:#84B0FB;stroke-width:2;stroke-linecap:round;stroke-linejoin:round;stroke-miterlimit:10;}
	.st6{fill:#25014B;stroke:#25014B;stroke-width:2;stroke-linecap:round;stroke-linejoin:round;stroke-miterlimit:10;}
	.st7{fill:none;stroke:#F1A64C;stroke-width:2;stroke-linecap:round;stroke-linejoin:round;stroke-miterlimit:10;}
	.st8{opacity:0.2;fill:#25014B;}
	.st9{fill:#FFFFFF;stroke:#FFFFFF;stroke-width:2;stroke-linecap:round;stroke-linejoin:round;stroke-miterlimit:10;}
	.st10{opacity:0.2;}
	.st11{fill:#25014B;}
	.st12{clip-path:url(#SVGID_00000165204040175673777580000016169495810138712208_);}
	.st13{fill:#0656FD;stroke:#0656FD;stroke-miterlimit:10;}
	.st14{fill:none;stroke:#0656FD;stroke-width:10;stroke-miterlimit:10;}
	.st15{fill:none;stroke:#FFFFFF;stroke-width:2;stroke-linecap:round;stroke-linejoin:round;stroke-miterlimit:10;}
	.st16{fill:none;stroke:#84B0FB;stroke-width:2;stroke-miterlimit:10;}
	.st17{clip-path:url(#SVGID_00000108297017990845771370000007798759893288549519_);}
	.st18{clip-path:url(#SVGID_00000091002493751308144140000009421227978371517328_);}
	.st19{fill:none;stroke:#F1A64C;stroke-width:10;stroke-miterlimit:10;}
	
		.st20{fill:none;stroke:#25014B;stroke-width:2;stroke-linecap:round;stroke-linejoin:round;stroke-miterlimit:10;stroke-dasharray:20;}
	.st21{clip-path:url(#SVGID_00000013885805520314181010000010858151332932529808_);}
	.st22{fill:none;stroke:#F1A64C;stroke-width:6;stroke-miterlimit:10;}
	.st23{fill:none;stroke:#25014B;stroke-width:2;stroke-linecap:round;stroke-linejoin:round;}
	
		.st24{fill:none;stroke:#25014B;stroke-width:11;stroke-linecap:round;stroke-linejoin:round;stroke-miterlimit:10;stroke-dasharray:0,28,0,0;}
</style>
<g id="Safety">
</g>
<g id="Significant_cost_savings">
</g>
<g id="Successful_result">
	<g>
		<path class="st0" d="M574.2,964l-47.8-210.5c-2.8-12.2-13.6-20.8-26.1-20.8H225.2c-17.2,0-29.9,15.9-26.1,32.7l40.4,177.8
			c2.8,12.2,13.6,20.8,26.1,20.8H574.2z"/>
		<path class="st0" d="M653.8,964H458.4v-40h235.4v0C693.8,946.1,675.9,964,653.8,964z"/>
		<line class="st1" x1="458.4" y1="924" x2="407.8" y2="924"/>
		<line class="st1" x1="372.1" y1="924" x2="283.7" y2="924"/>
		<line class="st1" x1="220.7" y1="964" x2="80.9" y2="964"/>
		<line class="st1" x1="724.9" y1="964" x2="973" y2="964"/>
		<line class="st1" x1="1024.8" y1="964" x2="1314.6" y2="964"/>
		
			<ellipse transform="matrix(0.967 -0.2547 0.2547 0.967 -201.0965 123.8282)" class="st1" cx="377.6" cy="838.3" rx="14.1" ry="28.5"/>
		<path class="st1" d="M595.1,924l-39.3-173.2c-2.4-10.6-11.8-18.1-22.7-18.1h-6.7"/>
		<line class="st1" x1="563.7" y1="785.3" x2="860.9" y2="785.3"/>
		<line class="st1" x1="652.3" y1="821.2" x2="678.4" y2="821.2"/>
		<line class="st1" x1="715.9" y1="821.2" x2="806.5" y2="821.2"/>
		<polyline class="st1" points="860.9,964 886.7,904.9 1193.2,904.9 1216,964 		"/>
		<g>
			<defs>
				<path id="SVGID_00000062884779946139261100000008956654391496365212_" d="M702.8,578.3l404.8-18.9c34.8-1.6,67.2,18,81.9,49.6
					l83,178.4c16.7,35.9,1.5,78.5-34.1,95.7l-45.1,21.8H886.7l-39.5-188.1l-174.6,8.3c-27.3,0-52.5-14.5-66.3-38.1l-76.2-130.5
					L643,485.9L702.8,578.3"/>
			</defs>
			<clipPath id="SVGID_00000181792084352264493880000010058592036246715565_">
				<use xlink:href="#SVGID_00000062884779946139261100000008956654391496365212_"  style="overflow:visible;"/>
			</clipPath>
			<g style="clip-path:url(#SVGID_00000181792084352264493880000010058592036246715565_);">
				<g>
					<line class="st5" x1="983.6" y1="438.8" x2="983.6" y2="952"/>
					<line class="st5" x1="1068.1" y1="438.8" x2="1068.1" y2="952"/>
					<line class="st5" x1="1152.6" y1="438.8" x2="1152.6" y2="952"/>
					<line class="st5" x1="1237.1" y1="438.8" x2="1237.1" y2="952"/>
					<line class="st5" x1="899.1" y1="438.8" x2="899.1" y2="952"/>
					<line class="st5" x1="814.6" y1="438.8" x2="814.6" y2="952"/>
					<line class="st5" x1="730.1" y1="438.8" x2="730.1" y2="952"/>
					<line class="st5" x1="645.6" y1="438.8" x2="645.6" y2="952"/>
					<line class="st5" x1="561.1" y1="438.8" x2="561.1" y2="952"/>
				</g>
				<g>
					<line class="st5" x1="1311.9" y1="779.9" x2="486.3" y2="779.9"/>
					<line class="st5" x1="1311.9" y1="864.4" x2="486.3" y2="864.4"/>
					<line class="st5" x1="1311.9" y1="948.9" x2="486.3" y2="948.9"/>
					<line class="st5" x1="1311.9" y1="1033.4" x2="486.3" y2="1033.4"/>
					<line class="st5" x1="1311.9" y1="695.4" x2="486.3" y2="695.4"/>
					<line class="st5" x1="1311.9" y1="610.9" x2="486.3" y2="610.9"/>
					<line class="st5" x1="1311.9" y1="526.4" x2="486.3" y2="526.4"/>
					<line class="st5" x1="1311.9" y1="441.9" x2="486.3" y2="441.9"/>
					<line class="st5" x1="1311.9" y1="357.4" x2="486.3" y2="357.4"/>
				</g>
			</g>
		</g>
		<path class="st1" d="M702.8,578.3l404.8-18.9c34.8-1.6,67.2,18,81.9,49.6l83,178.4c16.7,35.9,1.5,78.5-34.1,95.7l-45.1,21.8H886.7
			l-39.5-188.1l-174.6,8.3c-27.3,0-52.5-14.5-66.3-38.1l-76.2-130.5L643,485.9L702.8,578.3"/>
		<path class="st1" d="M743.6,627.1c12.8-37.2-28.8-29.7-28.8-29.7s16-1.6,15.7-7.8c-0.2-3.7-19.8-9.3-27.6-11.3"/>
		<rect x="291.2" y="447.4" class="st1" width="102.3" height="102.3"/>
		<rect x="291.2" y="577.4" class="st1" width="102.3" height="102.3"/>
		<line class="st1" x1="342.3" y1="447.4" x2="342.3" y2="384.8"/>
		<line class="st1" x1="342.3" y1="577.4" x2="342.3" y2="549.7"/>
		<line class="st1" x1="342.3" y1="722.8" x2="342.3" y2="679.7"/>
		<path class="st3" d="M370.5,625.9l5.6-4.6c-0.6-3-1.7-6-3.2-8.8l-7.3,0c-0.7-1.1-1.5-2.1-2.4-3.1c-0.9-1-1.9-1.9-2.9-2.7l0.7-7.2
			c-2.6-1.7-5.5-3-8.4-4l-5.1,5.2c-2.6-0.5-5.2-0.6-7.9-0.4l-4.6-5.6c-3,0.6-6,1.7-8.8,3.2l0,7.3c-1.1,0.7-2.1,1.5-3.1,2.4
			c-1,0.9-1.9,1.9-2.7,2.9l-7.2-0.7c-1.7,2.6-3,5.5-4,8.4l5.2,5.1c-0.5,2.6-0.6,5.2-0.4,7.9l-5.6,4.6l3.2,8.8l7.3,0
			c0.7,1.1,1.5,2.1,2.4,3.1c0.9,1,1.9,1.9,2.9,2.7l-0.7,7.2c2.6,1.7,5.5,3,8.4,4l5.1-5.2c2.6,0.5,5.2,0.6,7.9,0.4l4.6,5.6
			c3-0.6,6-1.7,8.8-3.2l0-7.3c1.1-0.7,2.1-1.5,3.1-2.4c1-0.9,1.9-1.9,2.7-2.9l7.2,0.7c1.7-2.6,3-5.5,4-8.4l-5.2-5.1
			C370.6,631.2,370.8,628.5,370.5,625.9z M345.1,645c-9.1,1.5-17.7-4.7-19.2-13.7s4.7-17.7,13.7-19.2c9.1-1.5,17.7,4.7,19.2,13.7
			C360.4,634.9,354.2,643.5,345.1,645z"/>
		<circle class="st0" cx="342.3" cy="498.5" r="37.6"/>
		<polyline class="st1" points="342.3,477.1 342.3,498.5 359.1,498.5 		"/>
		<path class="st1" d="M616.6,218.5v132.6h-79.9l-1-2.1c-3-6.4-10.7-9.1-17.1-5.9c-3.4,1.7-5.7,4.6-6.6,8H110.2V218.5H616.6z"/>
		<path class="st6" d="M512.3,359l12.3,32.1H150.2v-40H512c-0.3,1.1-0.5,2.2-0.5,3.4C511.5,356,511.8,357.6,512.3,359z"/>
		<polygon class="st6" points="656.6,258.5 656.6,391.1 555.7,391.1 536.7,351.1 616.6,351.1 616.6,258.5 		"/>
		<polyline class="st1" points="342.4,218.5 342.4,116 1068,116 1068,561.4 		"/>
		<rect x="342.4" y="116" class="st1" width="725.5" height="49.4"/>
		<circle class="st13" cx="964.2" cy="140.6" r="10.3"/>
		<circle class="st13" cx="997.5" cy="140.6" r="10.3"/>
		<circle class="st13" cx="1030.8" cy="140.6" r="10.3"/>
		<polygon class="st0" points="1419.1,143.2 1419.1,270.8 1359.3,270.8 1359.3,203.9 1291.5,203.9 1291.5,143.2 		"/>
		<polygon class="st1" points="1109.5,203.9 1109.5,363.2 1197.2,363.2 1187.8,416.9 1260.4,363.2 1359.3,363.2 1359.3,203.9 		"/>
		<polyline class="st14" points="1193.7,270.6 1232.1,320.7 1275.1,246.4 		"/>
		<path class="st3" d="M365.3,249.4l6.9,21.2c0.3,0.8,1.1,1.4,1.9,1.4h22.3c2,0,2.8,2.5,1.2,3.7l-18.1,13.1c-0.7,0.5-1,1.4-0.7,2.3
			l6.9,21.2c0.6,1.9-1.5,3.4-3.1,2.3l-18.1-13.1c-0.7-0.5-1.7-0.5-2.4,0l-18.1,13.1c-1.6,1.2-3.8-0.4-3.1-2.3l6.9-21.2
			c0.3-0.8,0-1.8-0.7-2.3l-18.1-13.1c-1.6-1.2-0.8-3.7,1.2-3.7h22.3c0.9,0,1.7-0.6,1.9-1.4l6.9-21.2
			C362,247.5,364.7,247.5,365.3,249.4z"/>
		<path class="st3" d="M275.3,249.4l6.9,21.2c0.3,0.8,1.1,1.4,1.9,1.4h22.3c2,0,2.8,2.5,1.2,3.7l-18.1,13.1c-0.7,0.5-1,1.4-0.7,2.3
			l6.9,21.2c0.6,1.9-1.5,3.4-3.1,2.3l-18.1-13.1c-0.7-0.5-1.7-0.5-2.4,0l-18.1,13.1c-1.6,1.2-3.8-0.4-3.1-2.3l6.9-21.2
			c0.3-0.8,0-1.8-0.7-2.3l-18.1-13.1c-1.6-1.2-0.8-3.7,1.2-3.7h22.3c0.9,0,1.7-0.6,1.9-1.4l6.9-21.2
			C272,247.5,274.7,247.5,275.3,249.4z"/>
		<path class="st3" d="M185.3,249.4l6.9,21.2c0.3,0.8,1.1,1.4,1.9,1.4h22.3c2,0,2.8,2.5,1.2,3.7l-18.1,13.1c-0.7,0.5-1,1.4-0.7,2.3
			l6.9,21.2c0.6,1.9-1.5,3.4-3.1,2.3l-18.1-13.1c-0.7-0.5-1.7-0.5-2.4,0l-18.1,13.1c-1.6,1.2-3.8-0.4-3.1-2.3l6.9-21.2
			c0.3-0.8,0-1.8-0.7-2.3l-18.1-13.1c-1.6-1.2-0.8-3.7,1.2-3.7h22.3c0.9,0,1.7-0.6,1.9-1.4l6.9-21.2
			C182,247.5,184.7,247.5,185.3,249.4z"/>
		<path class="st3" d="M451.4,249.4l-6.9,21.2c-0.3,0.8-1.1,1.4-1.9,1.4h-22.3c-2,0-2.8,2.5-1.2,3.7l18.1,13.1
			c0.7,0.5,1,1.4,0.7,2.3l-6.9,21.2c-0.6,1.9,1.5,3.4,3.1,2.3l18.1-13.1c0.7-0.5,1.7-0.5,2.4,0l18.1,13.1c1.6,1.2,3.8-0.4,3.1-2.3
			l-6.9-21.2c-0.3-0.8,0-1.8,0.7-2.3l18.1-13.1c1.6-1.2,0.8-3.7-1.2-3.7h-22.3c-0.9,0-1.7-0.6-1.9-1.4l-6.9-21.2
			C454.7,247.5,452,247.5,451.4,249.4z"/>
		<path class="st3" d="M541.4,249.4l-6.9,21.2c-0.3,0.8-1.1,1.4-1.9,1.4h-22.3c-2,0-2.8,2.5-1.2,3.7l18.1,13.1
			c0.7,0.5,1,1.4,0.7,2.3l-6.9,21.2c-0.6,1.9,1.5,3.4,3.1,2.3l18.1-13.1c0.7-0.5,1.7-0.5,2.4,0l18.1,13.1c1.6,1.2,3.8-0.4,3.1-2.3
			l-6.9-21.2c-0.3-0.8,0-1.8,0.7-2.3l18.1-13.1c1.6-1.2,0.8-3.7-1.2-3.7h-22.3c-0.9,0-1.7-0.6-1.9-1.4l-6.9-21.2
			C544.7,247.5,542,247.5,541.4,249.4z"/>
		<path class="st1" d="M1024.1,533.2l-6.6-36.6c-40.2,9.6-59.3-6.4-59.3-6.4c-12.7-15.2,0.1-32.1,0.1-32.1
			c4.9,3.8,11.3,5.9,18.1,5.2c12.1-1.2,21.7-11.3,22.5-23.4c0.9-14.7-10.7-26.8-25.1-26.8c-7.1,0-13.5,2.9-18.1,7.6
			c0,0-38.6-27.6-6.3-70.9c0,0-19.4-13.3-66,43.9l-4.2-3c-6.4-4.5-15.2-0.4-15.8,7.4l-0.9,12.5c0,0-39,46.3-28.4,70.7
			s74.3,12.7,74.3,12.7l6.1,46.2L1024.1,533.2z"/>
		<line class="st1" x1="964.8" y1="440.5" x2="981.2" y2="434.1"/>
		<path class="st1" d="M875.8,426.3c0,0,22.7,23.4,46.5,0"/>
		<path class="st1" d="M914.6,387.9c0,0,12.7,3.3,7.8,15.3"/>
		
			<ellipse transform="matrix(0.7071 -0.7071 0.7071 0.7071 -20.5929 758.83)" class="st6" cx="905.7" cy="404.3" rx="2.1" ry="1.2"/>
		<polygon class="st2" points="908.6,493.8 942.4,487 912.6,523.4 		"/>
		<polyline class="st1" points="950.3,323.1 949.4,345.3 964.8,324.7 		"/>
		<path class="st1" d="M643,485.9L598,409.1c-6.6-11.2-18.5-18-31.5-18h-10.9l-20-42.1c-3-6.4-10.7-9.1-17.1-5.9l0,0
			c-5.9,2.9-8.6,9.8-6.2,15.9l12.3,32.1c0,0-14.3,2.4-13.3,18.5c0,0-16.7,5.9-11.2,27.9c0,0-16,9.8-5.2,31.4
			c10.8,21.6,44.7,81.7,44.7,81.7L643,485.9z"/>
		<line class="st1" x1="555.7" y1="391.1" x2="572.2" y2="422.2"/>
		<line class="st1" x1="524.6" y1="391.1" x2="546.3" y2="435.3"/>
		<line class="st1" x1="511.4" y1="409.6" x2="531.7" y2="450.6"/>
		<line class="st1" x1="500.2" y1="437.5" x2="514.7" y2="466.1"/>
		<line class="st1" x1="512.6" y1="469.1" x2="553.6" y2="429.5"/>
		<line class="st1" x1="533.1" y1="464.2" x2="546.3" y2="451.8"/>
		<path class="st6" d="M1069.7,431.5c-11.2,49.2-36,62.3-52.2,65c-2.3,0.4-5,1-7.9,1.6c-34.8,5.9-51.4-8-51.4-8
			c-12.7-15.2,0.1-32.1,0.1-32.1c4.9,3.8,11.3,5.9,18.1,5.2c12.1-1.2,21.7-11.3,22.5-23.4c0.9-14.7-10.7-26.8-25.1-26.8
			c-7.1,0-13.5,2.9-18.1,7.6c0,0-38.6-27.6-6.3-70.9c0,0-13.6-9.3-45.4,21.3c0,0-4-29.9,14.9-36.8c18.9-6.9,30.4,11.1,30.4,11.1
			s18.9-24.8,61.1-8.7C1052.8,352.8,1080.9,382.3,1069.7,431.5z"/>
		<path class="st15" d="M959.5,359.3c0,0-16.5,23.1-1.2,41.5"/>
		<line class="st1" x1="886.7" y1="904.9" x2="839.5" y2="680"/>
		<line class="st1" x1="886.7" y1="904.9" x2="839.5" y2="680"/>
		<line class="st1" x1="1193.2" y1="904.9" x2="1120" y2="680"/>
		<polygon class="st1" points="890.7,569.5 914.7,540 1024.1,533.2 1052.6,561.9 		"/>
		<polygon class="st2" points="643,485.9 528.4,530.6 539.6,550.6 		"/>
	</g>
</g>
<g id="Speed">
</g>
<g id="Home_page">
</g>
</svg>
