<?xml version="1.0" encoding="utf-8"?>
<!-- Generator: Adobe Illustrator 26.0.2, SVG Export Plug-In . SVG Version: 6.00 Build 0)  -->
<svg version="1.1" xmlns="http://www.w3.org/2000/svg" xmlns:xlink="http://www.w3.org/1999/xlink" x="0px" y="0px"
	 viewBox="0 0 1500 1080" style="enable-background:new 0 0 1500 1080;" xml:space="preserve">
<style type="text/css">
	.st0{fill:#84B0FB;}
	.st1{fill:none;stroke:#25014B;stroke-width:2;stroke-linecap:round;stroke-linejoin:round;stroke-miterlimit:10;}
	.st2{opacity:0.2;fill:#25014B;stroke:#25014B;stroke-width:2;stroke-linecap:round;stroke-linejoin:round;stroke-miterlimit:10;}
	.st3{fill:#F1A64C;}
	.st4{clip-path:url(#SVGID_00000145038997586065702260000013102098524786780566_);}
	.st5{fill:none;stroke:#84B0FB;stroke-width:2;stroke-linecap:round;stroke-linejoin:round;stroke-miterlimit:10;}
	.st6{fill:#25014B;stroke:#25014B;stroke-width:2;stroke-linecap:round;stroke-linejoin:round;stroke-miterlimit:10;}
	.st7{fill:none;stroke:#F1A64C;stroke-width:2;stroke-linecap:round;stroke-linejoin:round;stroke-miterlimit:10;}
	.st8{opacity:0.2;fill:#25014B;}
	.st9{fill:#FFFFFF;stroke:#FFFFFF;stroke-width:2;stroke-linecap:round;stroke-linejoin:round;stroke-miterlimit:10;}
	.st10{opacity:0.2;}
	.st11{fill:#25014B;}
	.st12{clip-path:url(#SVGID_00000040563826890346864070000001073686163982079414_);}
	.st13{fill:#0656FD;stroke:#0656FD;stroke-miterlimit:10;}
	.st14{fill:none;stroke:#0656FD;stroke-width:10;stroke-miterlimit:10;}
	.st15{fill:none;stroke:#FFFFFF;stroke-width:2;stroke-linecap:round;stroke-linejoin:round;stroke-miterlimit:10;}
	.st16{fill:none;stroke:#84B0FB;stroke-width:2;stroke-miterlimit:10;}
	.st17{clip-path:url(#SVGID_00000127762999553232178670000017952067307759344309_);}
	.st18{clip-path:url(#SVGID_00000047774540147195308950000009154978990591410308_);}
	.st19{fill:none;stroke:#F1A64C;stroke-width:10;stroke-miterlimit:10;}
	
		.st20{fill:none;stroke:#25014B;stroke-width:2;stroke-linecap:round;stroke-linejoin:round;stroke-miterlimit:10;stroke-dasharray:20;}
	.st21{clip-path:url(#SVGID_00000094615976493489142940000000776453589734779046_);}
	.st22{fill:none;stroke:#F1A64C;stroke-width:6;stroke-miterlimit:10;}
	.st23{fill:none;stroke:#25014B;stroke-width:2;stroke-linecap:round;stroke-linejoin:round;}
	
		.st24{fill:none;stroke:#25014B;stroke-width:11;stroke-linecap:round;stroke-linejoin:round;stroke-miterlimit:10;stroke-dasharray:0,28,0,0;}
</style>
<g id="Safety">
</g>
<g id="Significant_cost_savings">
</g>
<g id="Successful_result">
</g>
<g id="Speed">
	<g>
		<g>
			<path class="st0" d="M979.4,290.5c0.2-0.4,0.3-0.9,0.3-1.3C979.6,289.7,979.5,290.1,979.4,290.5z M982.6,271.1l-5.9,7.7l-1.4,1.8
				c0,0,0.1,0,0.1,0.1l1.2-1.6l6.2-8.1c0.1-0.2,0.2-0.3,0.4-0.5C983,270.7,982.8,270.9,982.6,271.1z M995.1,281.2l-8.3,10.5h0
				l8.5-10.7c0.1-0.1,0.2-0.3,0.3-0.4C995.4,280.8,995.2,281,995.1,281.2z M995.1,281.2l-8.3,10.5h0l8.5-10.7
				c0.1-0.1,0.2-0.3,0.3-0.4C995.4,280.8,995.2,281,995.1,281.2z M982.6,271.1l-5.9,7.7l-1.4,1.8c0,0,0.1,0,0.1,0.1l1.2-1.6l6.2-8.1
				c0.1-0.2,0.2-0.3,0.4-0.5C983,270.7,982.8,270.9,982.6,271.1z M979.4,290.5c0.2-0.4,0.3-0.9,0.3-1.3
				C979.6,289.7,979.5,290.1,979.4,290.5z M979.4,290.5c0.2-0.4,0.3-0.9,0.3-1.3C979.6,289.7,979.5,290.1,979.4,290.5z M982.6,271.1
				l-5.9,7.7l-1.4,1.8c0,0,0.1,0,0.1,0.1l1.2-1.6l6.2-8.1c0.1-0.2,0.2-0.3,0.4-0.5C983,270.7,982.8,270.9,982.6,271.1z M995.1,281.2
				l-8.3,10.5h0l8.5-10.7c0.1-0.1,0.2-0.3,0.3-0.4C995.4,280.8,995.2,281,995.1,281.2z M1237.1,429.3c-0.1-0.2-0.1-0.4-0.2-0.6
				c-0.3-0.9-0.6-1.8-0.9-2.7c-0.3-0.9-0.6-1.8-1-2.7c-0.8-2.1-1.6-4.2-2.4-6.3c-0.4-1.1-0.9-2.2-1.3-3.3s-0.9-2.2-1.4-3.3
				c-0.5-1.1-0.9-2.2-1.4-3.3c-0.5-1.1-1-2.2-1.5-3.3c-0.7-1.6-1.5-3.2-2.2-4.8c-0.4-0.8-0.8-1.6-1.1-2.4c-0.4-0.8-0.8-1.6-1.2-2.4
				c-0.1-0.1-0.1-0.2-0.1-0.3c-0.4-0.9-0.9-1.7-1.3-2.6c-0.1-0.2-0.2-0.3-0.2-0.5c-0.3-0.6-0.6-1.2-1-1.9c0,0,0,0,0-0.1
				c-0.4-0.8-0.9-1.7-1.3-2.5c-0.3-0.6-0.6-1.1-0.9-1.7c-0.1-0.1-0.1-0.3-0.2-0.4c-0.5-0.9-1-1.9-1.5-2.8c0-0.1-0.1-0.1-0.1-0.2
				c-0.2-0.4-0.5-0.9-0.7-1.3c-0.1-0.1-0.1-0.2-0.2-0.3c-0.5-1-1.1-1.9-1.7-2.9c0-0.1-0.1-0.1-0.1-0.2c-0.1-0.2-0.2-0.4-0.3-0.6
				c-0.2-0.3-0.3-0.6-0.5-0.8c-0.5-0.9-1-1.8-1.6-2.6c-0.3-0.5-0.6-1-0.9-1.5c-0.5-0.8-1-1.6-1.5-2.4c-0.3-0.5-0.6-0.9-0.9-1.4
				c-0.1-0.2-0.3-0.5-0.5-0.7c-0.3-0.5-0.6-1-1-1.5c0-0.1-0.1-0.1-0.1-0.2c0,0,0,0,0,0h0c-0.9-1.4-1.9-2.8-2.8-4.2c0,0,0,0,0,0
				c0,0,0,0,0-0.1c-0.3-0.4-0.5-0.8-0.8-1.2c-5.8-8.5-12-16.7-18.6-24.5c-5.4-6.4-11-12.5-16.9-18.4c-0.8-0.8-1.7-1.7-2.5-2.5
				c-0.7-0.7-1.5-1.4-2.2-2.1c-0.1-0.1-0.2-0.1-0.2-0.2c-0.6-0.6-1.3-1.2-1.9-1.8c-1.6-1.5-3.3-3-4.9-4.5c-0.8-0.7-1.6-1.5-2.5-2.2
				c-0.1-0.1-0.2-0.2-0.3-0.2c-0.2-0.2-0.5-0.4-0.7-0.6c-0.2-0.2-0.5-0.4-0.8-0.7c-0.5-0.5-1.1-1-1.7-1.4c-0.1-0.1-0.3-0.2-0.4-0.3
				c-0.8-0.7-1.6-1.4-2.5-2c0,0,0,0-0.1-0.1c-0.9-0.8-1.9-1.5-2.8-2.3c-0.1-0.1-0.2-0.2-0.3-0.3c-1.1-0.9-2.3-1.8-3.5-2.7
				c-0.5-0.4-1.1-0.9-1.6-1.3v0c-1-0.8-2-1.5-3-2.3c-1.7-1.3-3.4-2.6-5.2-3.8c-0.8-0.6-1.6-1.2-2.4-1.7c-1.1-0.8-2.2-1.5-3.3-2.3
				c-1.5-1-3-2-4.5-3c-0.9-0.6-1.9-1.2-2.8-1.8c-0.9-0.6-1.9-1.2-2.8-1.8c-1.1-0.7-2.3-1.4-3.4-2.1c-1-0.6-1.9-1.2-2.9-1.7
				c-1-0.6-1.9-1.1-2.9-1.7c-1-0.6-2-1.1-2.9-1.7c-1-0.5-2-1.1-3-1.6c-29.1-15.8-61.3-26.9-95.3-32.1c-14.8-2.3-30-3.5-45.4-3.5
				c-2,0-4,0-6,0.1c-0.9,0-1.8,0-2.7,0.1c-0.9,0-1.8,0-2.7,0.1c-0.9,0-1.9,0.1-2.8,0.1c-0.5,0-1,0-1.5,0.1c-0.5,0-0.9,0-1.4,0.1
				c-0.9,0.1-1.9,0.1-2.8,0.2c-1.2,0.1-2.4,0.2-3.6,0.3c0,0-0.1,0-0.1,0c-1.2,0.1-2.5,0.2-3.7,0.3c-2.5,0.2-4.9,0.5-7.4,0.8
				c-0.8,0.1-1.5,0.2-2.2,0.3l-1.2,0.1c-0.9,0.1-1.7,0.2-2.6,0.4c-1.6,0.2-3.2,0.4-4.8,0.7c-0.7,0.1-1.3,0.2-2,0.3
				c-1.9,0.3-3.8,0.6-5.7,1c-0.6,0.1-1.2,0.2-1.8,0.3c-0.9,0.2-1.9,0.4-2.8,0.5c-0.6,0.1-1.2,0.2-1.8,0.4c-1.2,0.2-2.4,0.5-3.6,0.8
				c-1.2,0.3-2.4,0.5-3.6,0.8c-1.2,0.3-2.4,0.6-3.6,0.8c-1.5,0.4-3,0.7-4.5,1.1c-1.6,0.4-3.2,0.8-4.8,1.3c-0.4,0.1-0.9,0.2-1.3,0.4
				c-1.8,0.5-3.6,1-5.3,1.6c-0.5,0.2-1.1,0.3-1.6,0.5c-1.1,0.3-2.1,0.7-3.2,1c-1.2,0.4-2.4,0.8-3.6,1.2c-0.7,0.2-1.4,0.5-2,0.7
				c-0.7,0.2-1.5,0.5-2.2,0.8c-0.9,0.3-1.8,0.6-2.7,1c-1,0.4-2,0.7-2.9,1.1s-2,0.8-2.9,1.1c-0.9,0.3-1.7,0.7-2.6,1
				c-2.8,1.1-5.6,2.3-8.3,3.5c-20.5,9-39.8,20.2-57.5,33.4l45,41.5c30.3-20.3,65.7-33.8,103.8-38.1c0.8-4,2.4-8.2,5.2-12.2
				c4.5-6.4,10-8.8,16-8.6c2.8,0.1,5.8,0.8,8.8,1.9l9.8-11.5c1.7-1.9,4.1-2.9,6.4-2.7c1.8,0.1,3.6,0.8,5,2.2
				c1.6,1.5,2.4,3.6,2.4,5.7c0,1.5-0.4,2.9-1.2,4.2c2-2.1,4.9-2.8,7.6-2.2c1.1,0.3,2.2,0.8,3.2,1.6c3.3,2.7,3.9,7.3,1.5,10.8
				c1.6-1.6,3.7-2.4,5.8-2.4c1.8,0,3.6,0.6,5.1,1.8c3.4,2.8,4,7.8,1.2,11.3l-2.7,3.4c0,0,0,0,0.1,0l2.7-3.4c1.6-2,4-3.1,6.3-3.1
				c1.8,0,3.6,0.6,5.1,1.8c2.6,2.2,3.6,5.7,2.6,8.8c30.6,8.6,58.7,23.3,82.9,42.6c53.9,43.1,88.4,109.4,88.4,183.8
				c0,129.9-105.3,235.2-235.2,235.2c-58.9,0-112.7-21.6-153.9-57.4L872.8,807l-0.9,0.6c27.2,8.3,56.1,12.7,86,12.7
				c163,0,295.1-132.1,295.1-295.1C1253,491.6,1247.4,459.4,1237.1,429.3z M746.1,378l-56.7,79.3l-22.9,38.3L734,597.5
				c-7.3-22.8-11.3-47.1-11.3-72.3c0-49.1,15-94.7,40.8-132.4L746.1,378z M979.4,290.5c0.2-0.4,0.3-0.9,0.3-1.3
				C979.6,289.7,979.5,290.1,979.4,290.5z M982.6,271.1l-5.9,7.7l-1.4,1.8c0,0,0.1,0,0.1,0.1l1.2-1.6l6.2-8.1
				c0.1-0.2,0.2-0.3,0.4-0.5C983,270.7,982.8,270.9,982.6,271.1z M995.1,281.2l-8.3,10.5h0l8.5-10.7c0.1-0.1,0.2-0.3,0.3-0.4
				C995.4,280.8,995.2,281,995.1,281.2z M995.1,281.2l-8.3,10.5h0l8.5-10.7c0.1-0.1,0.2-0.3,0.3-0.4
				C995.4,280.8,995.2,281,995.1,281.2z M982.6,271.1l-5.9,7.7l-1.4,1.8c0,0,0.1,0,0.1,0.1l1.2-1.6l6.2-8.1c0.1-0.2,0.2-0.3,0.4-0.5
				C983,270.7,982.8,270.9,982.6,271.1z M979.4,290.5c0.2-0.4,0.3-0.9,0.3-1.3C979.6,289.7,979.5,290.1,979.4,290.5z M979.4,290.5
				c0.2-0.4,0.3-0.9,0.3-1.3C979.6,289.7,979.5,290.1,979.4,290.5z M982.6,271.1l-5.9,7.7l-1.4,1.8c0,0,0.1,0,0.1,0.1l1.2-1.6
				l6.2-8.1c0.1-0.2,0.2-0.3,0.4-0.5C983,270.7,982.8,270.9,982.6,271.1z M982.6,271.1l-5.9,7.7l-1.4,1.8c0,0,0.1,0,0.1,0.1l1.2-1.6
				l6.2-8.1c0.1-0.2,0.2-0.3,0.4-0.5C983,270.7,982.8,270.9,982.6,271.1z M979.4,290.5c0.2-0.4,0.3-0.9,0.3-1.3
				C979.6,289.7,979.5,290.1,979.4,290.5z"/>
			<circle class="st16" cx="957.9" cy="525.2" r="23.4"/>
			<line class="st16" x1="972.5" y1="506.9" x2="1113.1" y2="330.9"/>
			<line class="st16" x1="957.9" y1="772.6" x2="957.9" y2="696.1"/>
			<line class="st16" x1="710.5" y1="525.2" x2="787" y2="525.2"/>
			<line class="st16" x1="1205.3" y1="525.2" x2="1128.8" y2="525.2"/>
			
				<rect x="1139.2" y="281.9" transform="matrix(0.7229 0.691 -0.691 0.7229 533.4199 -725.2357)" class="st0" width="63.3" height="40.9"/>
			
				<rect x="1142.9" y="244" transform="matrix(0.7229 0.691 -0.691 0.7229 519.7183 -755.3856)" class="st0" width="117.5" height="52.4"/>
			<rect x="912.5" y="165.4" class="st0" width="90.8" height="72.5"/>
			<rect x="877.6" y="104.1" class="st5" width="160.6" height="61.3"/>
			<line class="st16" x1="957.9" y1="104.1" x2="957.9" y2="165.4"/>
			<line class="st16" x1="912.5" y1="104.1" x2="912.5" y2="165.4"/>
			<line class="st16" x1="1003.3" y1="104.1" x2="1003.3" y2="165.4"/>
			<circle class="st0" cx="957.9" cy="653.1" r="13"/>
			<line class="st16" x1="957.9" y1="586.7" x2="957.9" y2="611.8"/>
			<line class="st16" x1="933" y1="591.5" x2="942.4" y2="614.8"/>
			<line class="st16" x1="911.8" y1="605.3" x2="929.2" y2="623.3"/>
			<line class="st16" x1="897.3" y1="625.9" x2="920.2" y2="636.1"/>
			<line class="st16" x1="982.8" y1="591.5" x2="973.4" y2="614.8"/>
			<line class="st16" x1="1004" y1="605.3" x2="986.6" y2="623.3"/>
			<line class="st16" x1="1018.5" y1="625.9" x2="957.9" y2="653.1"/>
			<path class="st1" d="M957.9,230.1c-42.3,0-82.6,8.9-118.9,24.9"/>
			<path class="st1" d="M1167,317c-20.1-20.2-43.2-37.5-68.5-51.3"/>
			<path class="st1" d="M1238.6,433.7c-8.8-26.9-21.3-52.1-36.9-75"/>
			<path class="st5" d="M1167,805.5c14.6-10.9,28.3-22.9,41-36"/>
			<path class="st5" d="M1241,730.5c32.1-44.2,54.1-96.2,62.6-152.7"/>
		</g>
		<line class="st1" x1="196.4" y1="1010.3" x2="595.7" y2="1010.3"/>
		<line class="st1" x1="657.2" y1="1010.3" x2="707.4" y2="1010.3"/>
		<g>
			<defs>
				<path id="SVGID_00000069390618280380745760000009957905994436027279_" d="M568.2,378L568.2,378c-63.9,15.6-95.2,88-62.8,145.2
					l216.7,382.4L872.8,807L666.5,495.6l22.9-38.3L568.2,378z"/>
			</defs>
			<clipPath id="SVGID_00000122691491677717941780000007874680884948643456_">
				<use xlink:href="#SVGID_00000069390618280380745760000009957905994436027279_"  style="overflow:visible;"/>
			</clipPath>
			<g style="clip-path:url(#SVGID_00000122691491677717941780000007874680884948643456_);">
				<g>
					<path class="st3" d="M531.6,379.2c-0.2,1.8,0,4.8,0.3,7.7C531.9,384.6,531.8,382.3,531.6,379.2z"/>
					<path class="st3" d="M531.9,386.9C531.9,386.9,531.9,387,531.9,386.9C531.9,386.9,531.9,386.9,531.9,386.9
						C531.9,386.9,531.9,386.9,531.9,386.9z"/>
					<path class="st3" d="M739.6,567.8c-0.6,0.3-1.2,0.6-1.9,1C738.4,568.4,739,568.1,739.6,567.8z"/>
					<path class="st3" d="M624.9,462.5l0.2-0.6c0.8-0.4,1.5-0.7,2-1c0.5-0.3,0.9-0.5,1.2-0.6c0.6-0.3,0.8-0.4,1-0.4
						c0.4-0.2,0.9-0.2,3.6-2.2c0.5-0.5,1.3-1.1,2.2-1.9c0.9-0.8,2.1-1.6,3.1-2.5c0.5-0.5,1-0.9,1.5-1.3c0.5-0.4,0.9-0.9,1.4-1.3
						c0.8-0.8,1.5-1.5,1.8-2c0,0.1,2.2-2.4,2.2-2.1c0.4-1,2.1-2.7,3.1-4.5c0.4-0.7-0.4,0.4-0.8,0.8l1.3-2c0.4-0.7,0.8-1.4,1.2-2.1
						c0.5-0.8,0.9-1.2,1-1.3c0.1-0.1,0,0.3-0.5,1.2c1.6-2.7,4.5-8,6.3-15.6c0.9-3.8,1.5-8.1,1.1-12.8c-0.1-1.2-0.3-2.4-0.5-3.7
						c-0.3-1.3-0.6-2.6-1.2-3.9l-0.4-1l-0.5-1l-0.6-1c-0.2-0.3-0.5-0.7-0.7-1l-0.8-1c-0.3-0.3-0.7-0.7-1.1-1
						c-0.4-0.3-0.8-0.6-1.2-0.9c-0.4-0.3-0.8-0.5-1.2-0.7c-0.8-0.4-1.5-0.7-2.3-1c-0.7-0.2-1.4-0.4-2.1-0.6
						c-1.4-0.3-2.6-0.5-3.9-0.6c-2.5-0.2-4.8-0.1-7,0.1c-4.5,0.4-8.5,1.3-12.2,2.4c-7.3,2.2-12.7,5.1-15.6,6.7
						c1.6-0.7,5.1-2.6,6.7-2.9c-3.1,1.6-4.6,2.2-5.8,3.1c-0.7,0.1-2.4,1-4.2,2.1c-0.9,0.5-1.8,1.2-2.6,1.7c-0.8,0.5-1.6,1-2.2,1.3
						l-0.6,0.9l-1.5,0.9c-2.9,2.5-4.4,4.2-5.2,5.1c-0.9,0.9-1.1,1.2-1.3,1.5c-0.2,0.2-0.4,0.4-1.1,1.2c-0.3,0.4-0.8,1-1.5,1.7
						c-0.6,0.8-1.5,1.8-2.4,3.3c-2.2,3.3-3.6,6-4.6,8.3c-0.5,1.1-0.9,2.2-1.3,3.2c-0.4,1-0.8,2-1.2,3.1c0.2-0.6,1-2.2,0.4-0.2
						c-0.2,0.1-0.6,1.4-1,2.8c-0.3,1.4-0.7,2.9-0.9,3.4c-0.2,1-0.7,3.1-0.8,4.7c-0.2,1.6-0.2,2.7,0.1,1.6c-0.1,0.5-0.4,2.2-0.6,3.4
						c-0.1,1.1-0.2,1.7-0.2,0c-0.1,1-0.1,1.9-0.2,2.8c0,0.9,0,1.7,0,2.4l0.1-2.5c-0.1,3.3-0.1,5.8,0.1,8c0.1,1.1,0.1,2.1,0.3,3.2
						c0.1,1,0.3,2,0.5,3l-0.1-2.4c0.1,1,0.2,1.9,0.4,2.7c0.1,0.9,0.3,1.6,0.4,2.4c0.2,1.5,0.4,2.6,0.3,3.4c-0.3-1.3-0.6-2.5-0.8-3.8
						c1.1,6.3,2.2,9.9,3.9,14.9c-0.2-0.6-0.4-1.2-0.6-1.8c0.6,1.6,1.7,4.8,3.3,8.7c1.7,3.9,3.8,8.6,6.2,13.1
						c2.4,4.5,4.9,8.8,7.1,12.3c1.1,1.8,2.1,3.3,3,4.5c0.9,1.2,1.6,2.2,2,2.8l-1.3-2.5l3,4.2c-0.3-0.5-2.1-1.6-2.3-2
						c0.8,1.1,1.9,2.9,3.4,5.1c1.6,2.1,3.5,4.7,5.6,7.6c1.1,1.4,2.3,2.8,3.5,4.3c0.6,0.7,1.2,1.5,1.9,2.3c0.6,0.8,1.3,1.6,2,2.3
						c2.8,3,5.6,6.2,8.8,9.1c3,3.1,6.4,5.7,9.5,8.4c3.3,2.4,6.4,4.9,9.5,6.7c0.7,0.5,1.5,1,2.2,1.4c0.7,0.5,1.4,0.9,2.1,1.3
						c1.4,0.8,2.6,1.5,3.8,2.1c0.6,0.3,1.1,0.6,1.6,0.9c0.5,0.3,1,0.5,1.5,0.7c0.9,0.4,1.7,0.8,2.3,1.1c3.8,1.9,0.5,0.7,0.4,0.7
						c2.3,1.1,2.9,1.1,3.4,1.3c0.5,0.1,0.8,0.2,2.8,1c1.1,0.5-0.3,0.1-1-0.1c1.8,0.7,3.4,1.4,3.6,1.3c-2.2-0.9-1.1-0.9-2-1.5
						c1.7,0.7,3.5,1.2,5.3,1.8l-0.3,0.1c0.6,0.2,1.4,0.3,2.7,0.5c1.3,0.2,3.2,0.5,5.8,1.2c9.1,2,19.2,2.4,28.5,1.6
						c-0.1,0.2-2.1,0.4-4,0.6c1.2-0.1,3.2-0.2,4.3-0.2c-2.3,0,3.9-0.6,2.1-0.5c3.4-0.6,7.2-1.3,10.9-2.1c3.7-0.9,7.3-1.8,10-3
						c0.2-0.3,2.5-3.3,4.5-6.4c2-3.1,3.6-6.2,3.4-6.5c1.5-0.7,3-1.5,3.2-1.7c-0.2,0-3.2,1.5-4.7,2.3l-0.1,0.4
						c-3.7,1.7-0.9,0.2-4.6,1.8c-0.3-0.2,3.1-1.5,5.9-3c-1.3,0.6-2.6,1.1-3.7,1.6c-1.1,0.4-2.1,0.9-2.6,1.2
						c-2.6,0.9,0.2-0.4-2.9,0.6c-2.2,0.8-5,2-7.7,2.5l0-0.1c-1.6,0.4-3,0.7-4.3,1c-1.3,0.3-2.5,0.6-3.7,0.8
						c-2.4,0.5-4.7,0.9-7.7,1.1c0.2,0,0.4-0.1,0.6-0.1c-1.1,0-2.6,0.1-4.4,0.2c-1.8,0.1-3.7,0.1-5.6,0c1.1,0.1,2,0.3-0.3,0.3
						c-4.3-0.3-7.3-0.5-10.4-1.1l-3-0.3c-3.7-0.7-10.2-2.1-17.6-5.2c-7.4-3-15.7-7.7-23.2-13.6c-7.5-5.8-14.3-12.8-19.7-19
						c-2.6-3.2-5.1-6-6.9-8.7c-1-1.3-1.8-2.5-2.6-3.6c-0.8-1.1-1.5-2-2-2.8l0.4,0.5c-1.7-2.5-3.5-5.4-5.6-8.5c-1-1.6-1.9-3.2-3-4.9
						c-1-1.7-2-3.5-3-5.4c-2-3.7-3.9-7.6-5.7-11.7c-1.8-4.1-3.4-8.3-4.7-12.7c-2.7-8.6-4.1-17.5-3.8-25.6c0.3-8.1,2.3-15.1,4.7-20.4
						c0.9-1.6,1.9-3.4,3.1-5.2c1.2-1.8,2.5-3.5,3.7-4.9c-1.4,1.5-1.1,0.9,0-0.4c1.9-2.2,2.9-3.2,3.5-3.8c0.6-0.6,0.6-0.6,0.7-0.7
						c0.1-0.1,0.1-0.2,0.7-0.8c0.6-0.6,1.7-1.6,4-3.4c2.7-2.1,7.5-5.4,14-8.1c3.2-1.3,6.9-2.5,10.7-3.3c3.8-0.8,7.9-1.2,11.4-0.8
						c0.9,0.1,1.7,0.3,2.4,0.5c0.7,0.2,1.3,0.5,1.4,0.6c0,0.1,0.1,0.1,0.1,0.1c0.1,0.1,0.1,0.2,0.2,0.3l0.3,0.3l0.2,0.4l0.2,0.4
						c0.1,0.2,0.1,0.3,0.2,0.5c0.1,0.3,0.3,0.6,0.4,1c0.9,3,0.8,6.6,0.4,9.7c-1,6.4-3.4,11.4-4.8,14c-1.3,2.9-3.2,5.9-5.5,8.7
						c-2.2,2.8-4.9,5.2-7.2,7.2l0.4-0.5c-1.3,1.1-4.2,3.3-8.3,5.5c-4.1,2.1-9.5,4-15.1,5c-0.7,0.1-1.4,0.3-2.1,0.4
						c-0.7,0.1-1.4,0.2-2.1,0.2c-1.4,0.2-2.8,0.3-4.2,0.3c-0.7,0-1.4,0.1-2.1,0.1c-0.7,0-1.4,0-2,0c-0.7,0-1.3,0-2,0
						c-0.6,0-1.2-0.1-1.8-0.1c-4.7-0.3-8.3-1.5-10.1-2l1,0.3c-0.8-0.2-1.5-0.4-2.1-0.6c-0.6-0.2-1.1-0.4-1.5-0.6
						c-0.8-0.4-1.5-0.6-2-1c-0.5-0.3-1-0.7-1.6-1.1c-0.3-0.2-0.7-0.4-1.1-0.7c-0.4-0.2-0.8-0.6-1.4-1c0.2,0.4-1-0.2-2.3-1
						c-0.7-0.5-1.4-1-2.1-1.5c-0.3-0.3-0.7-0.5-0.9-0.7c-0.3-0.3-0.5-0.5-0.7-0.7l0.1,0c-0.6-0.6-1.4-1.3-2.3-2.2
						c-0.9-1-1.9-2-2.9-3.2c-0.9-1.2-2-2.4-2.9-3.8c-0.5-0.7-0.9-1.3-1.3-1.9c-0.4-0.6-0.8-1.3-1.2-1.9l0.3,0.1
						c-0.3-0.5-0.7-1.1-1-1.7c-0.4-0.6-0.7-1.3-1.1-2c-0.4-0.7-0.8-1.4-1.1-2.2c-0.3-0.8-0.7-1.5-1-2.3c-1.4-3-2.4-6-3-7.7
						c-1.3-3.8-2.6-8.7-3.7-14.1c-1.1-5.3-2.1-11.1-2.9-16.4c-0.1-2.3-0.1-4.7-0.1-7l-0.1-1c0,0-2.1-2.6-4.2-3.6
						c-1.1-0.5-2.2-0.6-3.1,0.5c-0.9,1-1.6,3.2-1.7,7l-0.2-0.2l0.3,3c0.3,3.6,0.8,5.2,0.5,5c-0.2-1.6-0.4-3.2-0.6-4.9
						c0.3,3.6-0.1,1.1-0.3-0.3c0.1,1.5,0.3,2.9,0.4,4.1c0.2,0.7,0-0.5,0-1.1c0.3,1.9,0.9,4.5,1.2,6.9c0.6,3.6-0.3,0.3,0.4,4.5
						c2.1,11.2,5.1,22.1,10,32.5c2.5,5.2,5.4,10.3,9.2,15c3.7,4.7,8.2,9,13.6,12.3c0.4,0.4-0.1,0-0.8-0.4c6.4,4.1,13,6.4,19.7,7.4
						c1.9,0.3,2.4,0.5,2.9,0.6c-0.1,0,0.3,0,1.3,0.1c0.5,0,1.1,0.1,1.8,0.1c0.7,0,1.4,0,2.3,0c0.8,0,1.8,0,2.7,0
						c1-0.1,2-0.1,3.1-0.2c2.1-0.1,4.5-0.4,6.8-0.7c4.6-0.8,9.3-1.9,12.7-3.2c1.7-0.6,3.1-1.2,4.2-1.7
						C624.2,462.9,624.8,462.6,624.9,462.5z"/>
				</g>
				<g>
					<path class="st3" d="M683.1,501.9c-0.7,1-1.5,2.9-2.2,4.6C681.6,505.3,682.3,503.9,683.1,501.9z"/>
					<path class="st3" d="M680.9,506.6C680.9,506.6,680.9,506.6,680.9,506.6C680.9,506.6,680.9,506.6,680.9,506.6
						C680.9,506.6,680.9,506.6,680.9,506.6z"/>
					<path class="st3" d="M849.8,753.4c-0.4,0-0.9,0-1.4,0.1C848.9,753.5,849.4,753.5,849.8,753.4z"/>
					<path class="st3" d="M664.1,596.4l0.4,0.3c0.2,4.5-0.4,1.3-0.2,5.5c0.6,1.6,0.4,7,0.8,8.4c-0.1,0,0.1,2,0,1.9
						c0.4,0.6,0.3,2.1,0.6,3.4c0.1,0.5,0-0.4,0.1-0.7l0.5,2.9c0,1.2-0.1,1.5-0.3,0.2c0.1,1,0.3,2.4,0.6,4.1c0.3,1.8,0.6,3.9,1,6.2
						c0.5,2.3,1,4.9,1.6,7.5c0.7,2.6,1.4,5.4,2.2,8.1c0.9,2.7,1.8,5.4,2.7,8c1,2.6,2,5,2.9,7.3c0.9,2.2,1.9,4.2,2.7,5.9
						c0.8,1.7,1.4,3,2,3.9c-0.4-1-1.6-3.4-1.7-4.4c1.2,1.9,1.3,3,2,3.8c-0.1,1,2.2,4.3,2.6,6.1l0.6,0.4l0.4,1.1
						c2.8,4.1,3.1,4.5,3.3,4.9c0.1,0.2,0.2,0.3,0.5,0.9c0.2,0.3,0.4,0.7,0.7,1.2c0.3,0.6,0.8,1.2,1.4,2.1c1.5,2,2.7,3.4,3.7,4.7
						c0.5,0.6,1,1.2,1.4,1.7c0.5,0.5,0.9,1,1.3,1.6c-0.3-0.3-0.8-1.3,0.1-0.3c-0.1,0.3,2.3,2.5,2.5,3.2c0.4,0.5,1.3,1.5,1.9,2.2
						c0.7,0.7,1.2,1.2,0.9,0.5c0.3,0.6,2.7,3.4,1.1,1.9c0.8,0.9,1.6,1.8,2.2,2.4l-1-1.2c1.4,1.5,2.4,2.8,3.4,3.8
						c1,1,1.9,1.9,2.9,2.7l-1-1.2c1.8,1.7,3.3,3.2,3.7,4.1l-1.9-1.7c0.7,0.7,1.4,1.4,2,2c0.6,0.6,1.2,1.1,1.8,1.6
						c1.2,1,2.3,2,3.6,3.1l-0.9-0.8c0.4,0.3,1.1,0.9,1.9,1.5c0.8,0.6,1.8,1.4,2.9,2.3c1.1,0.9,2.3,1.8,3.6,2.8
						c1.3,0.9,2.7,1.9,4.1,2.9c5.5,4,11.2,7.4,13,8.3l-1.4-1.2l3,1.6c-0.3-0.2-1.9-0.1-2.1-0.4c3.1,2.1,13,7.9,23.4,12.5
						c5.2,2.3,10.5,4.4,14.9,5.9c1.1,0.4,2.1,0.8,3.1,1.1c1,0.3,1.9,0.6,2.7,0.9c1.6,0.5,2.9,1,3.7,1.2c2.6,0.9,0.3,0.6,0.3,0.6
						c3.3,0.8,1.5,0.1,4.2,0.9c0.7,0.3-0.2,0.2-0.6,0.1c1.2,0.3,2.3,0.7,2.4,0.6c-1.5-0.5-0.8-0.7-1.3-1.1c1.2,0.3,2.4,0.6,3.5,0.9
						l-0.2,0.2c0.8,0.2,2.1,0,5.6,0.8c5.9,1.4,12.4,2.5,18.4,3.3c-0.1,0.1-1.4,0-2.7-0.1c0.8,0.1,2,0.3,2.8,0.4
						c-1.4-0.4,2.6,0.1,1.4-0.1c4.5,0,10.2,0.9,14.2,0.7c0.2-0.2,2.4-2.2,4.4-4.3c2-2.1,3.9-4.2,3.9-4.5c1.1,0,2.3-0.1,2.5,0
						c-0.2-0.1-2.4-0.1-3.6,0l-0.2,0.3c-2.8,0.1-0.6-0.2-3.3-0.2c-0.1-0.3,2.4-0.3,4.5-0.3c-1.9,0-3.9-0.2-4.7,0.1
						c-1.8-0.1,0.2-0.3-2-0.5c-1.6,0-3.7,0.2-5.5-0.1l0,0c-4.4-0.6-6.8-0.2-10.9-0.9l0.4,0c-1.4-0.3-4.3-0.5-6.8-1.1
						c0.7,0.2,1.3,0.5-0.2,0.2c-2.9-0.6-5-0.9-7.1-1.5c-0.7,0-1.4-0.1-2.1-0.2c-5.1-1.1-17.8-4.1-29.8-8.9
						c-12.1-4.6-23.5-11-27.9-13.7l0.4,0.2c-1.7-1.1-3.6-2.3-5.7-3.6c-2-1.4-4.2-2.9-6.5-4.5c-1.1-0.8-2.3-1.7-3.4-2.6
						c-1.2-0.9-2.4-1.7-3.5-2.7c-2.3-1.9-4.7-3.8-7-5.9c-1.1-1-2.3-2.1-3.4-3.1c-1.1-1-2.2-2.1-3.3-3.2c-1.1-1.1-2.1-2.1-3.2-3.1
						c-1-1.1-2-2.1-2.9-3.2c-1-1-1.9-2.1-2.8-3c-0.9-1-1.7-2-2.5-3c-0.8-1-1.6-1.9-2.4-2.8c-0.4-0.4-0.8-0.9-1.1-1.3
						c-0.3-0.4-0.7-0.9-1-1.3c-0.7-1.1-1.5-2.3-2.4-3.6c-0.9-1.2-1.8-2.5-2.5-3.6c0.7,1.3,0.3,1-0.3,0c-2.2-3.4-2.3-3.5-2.4-3.6
						c-0.1,0-0.1-0.1-0.5-0.6c-0.3-0.5-1-1.3-2-3.1c-2.5-4-7.7-14.2-11.2-24.9c-0.4-1.3-0.9-2.7-1.3-4c-0.4-1.3-0.7-2.7-1.1-4
						c-0.3-1.3-0.7-2.6-1-3.8c-0.3-1.3-0.5-2.5-0.8-3.6c-0.2-1.2-0.5-2.3-0.7-3.3c-0.2-1-0.3-2-0.4-2.9c-0.3-1.8-0.5-3.3-0.6-4.3
						c-0.5-2.2-0.8-4.7-1.1-7.3c-0.3-2.5-0.4-5-0.7-7.2l0.1,0.4c-0.3-2.4-0.5-10.3-0.2-18.4c0.1-2,0.2-4,0.3-6
						c0.2-1.9,0.3-3.8,0.4-5.5c0.3-3.4,0.6-6.1,0.7-7.5l-0.1,0.7c0.4-4.9,0.7-4.1,1.4-7.9c-0.5,0.4,0-3.7,0.2-5.3l0.1,0.1
						c0.3-2.4,1-7.8,1.8-11.7l0.2,0.2c0.2-1.7,0.8-4,1.3-6.2c0.5-2.2,1.1-4.3,1.4-5.4c0.8-2.6,1.8-5.9,3-9.4
						c1.2-3.5,2.4-7.2,3.6-10.6c0.7-1.4,1.5-2.8,2.3-4.1l0.2-0.7c0,0-1.1-2.4-2.7-3.9c-0.8-0.7-1.8-1.3-2.9-1
						c-1.1,0.3-2.4,1.2-3.7,3.4l-0.1-0.2l-0.7,1.9c-1,2.2-1.1,3.3-1.2,3.1c0.4-1,0.8-2,1.2-3c-0.9,2.2-0.4,0.6-0.2-0.3
						c-0.4,0.9-0.7,1.8-1.1,2.5c-0.1,0.5,0.2-0.3,0.4-0.6c-0.4,1.2-0.8,3-1.4,4.4c-0.8,2.3-0.4,0-1.3,2.7
						c-4.8,14.2-8.5,28.3-10.7,43.3c-0.1,0.3-0.1-0.1-0.1-0.5c-0.3,2.3-0.6,4.4-0.8,6.5c-0.2,2.1-0.4,4.1-0.6,6.2
						c-0.2,1.1-0.4,1.4-0.5,1.8c0.1-0.2,0,1.2-0.1,3.3c-0.1,1.1-0.2,2.3-0.2,3.7c-0.1,1.4-0.1,2.8-0.2,4.3c0,1.5-0.1,3-0.1,4.4
						c0,1.4,0,2.7,0,3.9C664,594.8,664.1,596.3,664.1,596.4z"/>
				</g>
				<g>
					<path class="st3" d="M767.4,639.7c-0.2,0.7-0.1,2-0.1,3.3C767.4,642,767.5,641,767.4,639.7z"/>
					<path class="st3" d="M767.2,643C767.2,643,767.2,643,767.2,643C767.2,643,767.2,643,767.2,643C767.2,643,767.2,643,767.2,643z"
						/>
					<path class="st3" d="M686.7,865.9c0.3-0.2,0.5-0.4,0.8-0.7C687.3,865.4,687,865.6,686.7,865.9z"/>
					<path class="st3" d="M763.2,702.9l0.4,0.2c-0.4,2.9-0.6,0.8-0.9,3.5c0.4,1.1-0.8,4.5-0.6,5.4c0,0-0.3,1.3-0.5,1.2
						c0.2,0.5-0.2,1.4-0.3,2.2c0,0.3,0.1-0.2,0.3-0.4l-0.3,1.9c-0.2,0.7-0.5,0.9-0.3,0.1c-0.3,1.2-0.7,3.6-1.5,6.6
						c-0.7,3-1.5,6.6-2.5,10.1c-0.5,1.8-0.9,3.6-1.4,5.3c-0.5,1.7-1,3.3-1.4,4.8c-0.4,1.5-0.8,2.8-1.1,4c-0.4,1.1-0.6,2.1-0.8,2.7
						c0.4-0.6,0.8-2.2,1.3-2.7c-0.2,1.4-0.7,2-0.7,2.6c-0.7,0.4-1.1,3-1.9,3.8l0.2,0.5l-0.4,0.6c-1.8,6-0.3,1.4-2.3,6.6
						c-0.5,1.5-0.8,2.7-1.1,3.7c-0.3,1-0.5,1.8-1,2.6c0.1-0.2,0.5-0.8,0.3,0c-0.3,0-0.7,2.1-1.1,2.4c-0.3,0.8-1.3,3.2-0.6,2.5
						c-0.3,0.3-1.3,2.5-0.9,1.1c-0.3,0.7-0.7,1.4-0.8,2l0.5-0.9c-1.1,2.5-1.9,3.7-2.4,5.4l0.5-0.8c-0.6,1.5-1.2,2.7-1.8,3.1l0.6-1.6
						c-1.1,2.4-1.8,3.9-2.6,5.9l0.4-0.7c-0.2,0.7-0.8,2-1.6,3.7c-0.4,0.8-0.8,1.8-1.2,2.7c-0.5,0.9-1,1.9-1.5,2.9
						c-1,2-2,3.9-2.8,5.5c-0.8,1.6-1.5,2.8-1.8,3.5l0.9-0.9l-1,2c0.1-0.2-0.2-1.4,0-1.5c-0.6,1-2,3.1-3.6,5.7
						c-1.7,2.6-3.9,5.6-6,8.6c-2.2,3-4.6,5.8-6.5,8.2c-0.9,1.2-1.9,2.2-2.6,3c-0.8,0.8-1.4,1.5-1.7,1.9c-1.3,1.2-0.5-0.1-0.6-0.1
						c-1.4,1.7-0.4,0.9-1.7,2.3c-0.4,0.3-0.1-0.2,0.1-0.5c-0.5,0.6-1.1,1.1-1,1.3c0.8-0.7,0.7-0.1,1.2-0.3c-0.5,0.6-1.1,1.2-1.6,1.8
						l-0.1-0.2c-0.4,0.4-0.5,1.4-2.3,2.9c-1.4,1.4-2.9,2.8-4.4,4.3c-0.7,0.8-1.5,1.4-2.3,2.1c-0.8,0.7-1.5,1.3-2.3,2
						c0-0.1,0.5-0.8,1.1-1.4c-0.4,0.3-1,0.9-1.4,1.2c0.9-0.5-1.1,1.2-0.5,0.8c-0.9,1.2-2.2,2.3-3.4,3.4c-1.3,1-2.6,2-3.5,2.9
						c0.1,0.3,0.3,2.7,0.5,5.3c0.2,2.5,0.4,5.1,0.5,5.3c-0.7,0.5-1.3,1-1.6,1.1c0.3,0,1.6-1,2.2-1.6l-0.1-0.3c1.5-1.3,0.5-0.1,2-1.4
						c0.2,0.1-1.2,1.3-2.4,2.3c1.2-0.9,2.4-1.6,2.7-2.2c1.1-0.7,0.1,0.3,1.4-0.6c0.9-0.8,1.9-1.9,3.1-2.6l0,0
						c0.7-0.4,1.2-0.9,1.7-1.4c0.5-0.5,0.9-0.9,1.3-1.3c0.8-0.9,1.7-1.7,2.9-2.6l-0.2,0.3c0.9-0.6,2.3-2.1,3.8-3.2
						c-0.4,0.3-0.9,0.5-0.1-0.3c1.7-1.4,2.6-2.6,3.9-3.5l0.9-1.3c0.7-0.7,1.6-1.6,2.7-2.7c0.3-0.3,0.6-0.6,0.9-0.9
						c0.3-0.3,0.6-0.6,0.9-1c0.6-0.7,1.2-1.4,1.9-2.1c1.3-1.5,2.7-3.1,4.2-4.8c1.5-1.7,2.8-3.6,4.3-5.4c0.7-0.9,1.4-1.8,2.1-2.8
						c0.4-0.5,0.7-0.9,1.1-1.4c0.3-0.5,0.7-0.9,1-1.4c1.3-1.8,2.5-3.6,3.7-5.2c0.6-0.8,1.1-1.6,1.6-2.3c0.5-0.8,0.9-1.5,1.3-2.1
						c0.8-1.3,1.5-2.4,2-3.2l-0.1,0.3c0.8-1.2,1.6-2.6,2.6-4.1c0.9-1.5,1.8-3.2,2.8-5c1-1.8,2.1-3.6,3-5.5c1-1.9,2-3.9,3-5.9
						c0.5-1,1-2,1.5-3c0.4-1,0.9-2,1.3-3c0.9-2,1.7-3.9,2.6-5.8c1.5-3.8,2.8-7.2,3.9-10c0.9-1.6,1.7-4,2.4-5.8
						c-0.5,1-0.5,0.6-0.2-0.2c1-2.7,1-2.8,1-3c0-0.1,0-0.2,0.8-3.1c0.5-1.6,1.4-4.4,2.4-7.7c0.5-1.7,1-3.5,1.5-5.3
						c0.3-0.9,0.6-1.9,0.8-2.8c0.3-1,0.5-1.9,0.8-2.9c0.5-1.9,1-3.9,1.5-5.8c0.5-1.9,0.9-3.7,1.3-5.3c0.4-1.6,0.7-3.1,1-4.4
						c0.3-1.3,0.5-2.3,0.7-3c0.1-1.6,0.4-3.4,0.8-5.2c0.3-1.8,0.6-3.5,0.7-5.1l0,0.3c0.1-0.8,0.4-2.6,0.8-4.9
						c0.3-2.3,0.7-5.1,1.2-7.9c0.3-2.8,0.7-5.7,1-8.1c0.2-2.4,0.4-4.3,0.5-5.3l-0.1,0.5c0.1-3.4,0.4-2.9,0.7-5.6
						c-0.4,0.3-0.4-2.6-0.4-3.7l0.1,0c0-1.7,0-5.5-0.1-8.3l0.2,0.1c-0.1-1.2,0-2.8,0-4.4c0-1.6,0.1-3.1,0.1-3.9
						c0.1-3.8,0.5-9.7,0-14.8c0.2-1.1,0.3-2.2,0.5-3.4l-0.1-0.5c0,0-2-1.2-4.1-1.6c-1.1-0.2-2.2-0.1-3.1,0.4
						c-0.9,0.5-1.6,1.4-1.9,3.1l-0.2-0.1l0.1,1.3c0,1.5,0.2,2.3,0,2.2l-0.1-2.1c0,1.6-0.2,0.5-0.3-0.1c0,0.6,0,1.3,0,1.8
						c0.1,0.3,0.1-0.2,0.1-0.5c0.1,0.8,0.4,2,0.3,3c0,1.6-0.3,0.1-0.3,2c0,9.8-0.6,19.4-1.2,29.3c-0.1,0.2-0.1,0-0.1-0.3
						c-0.1,3-0.4,5.6-0.6,8.4c-0.2,0.7-0.3,0.9-0.4,1.2c0.1-0.2-0.2,3.5-0.7,7.4c-0.2,1.9-0.5,3.8-0.7,5.3
						C763.4,701.9,763.2,702.9,763.2,702.9z"/>
				</g>
				<g>
					<path class="st3" d="M622.1,767.8c0.7,0.1,1.9-0.1,3.1-0.3C624.3,767.5,623.3,767.5,622.1,767.8z"/>
					<path class="st3" d="M625.2,767.6C625.2,767.6,625.2,767.6,625.2,767.6C625.2,767.6,625.2,767.6,625.2,767.6L625.2,767.6z"/>
					<path class="st3" d="M814.9,870.7c-0.1-0.3-0.2-0.6-0.4-1C814.6,870.1,814.7,870.4,814.9,870.7z"/>
					<path class="st3" d="M682.3,767.9l0.2-0.4c2.8,0.4,0.7,0.6,3.3,0.9c0.5-0.2,1.6,0,2.6,0.2c1,0.3,2,0.6,2.5,0.5
						c0,0,1.2,0.3,1.1,0.5c0.4-0.2,1.3,0.2,2.1,0.3c0.3,0-0.2-0.1-0.4-0.3l1.8,0.3c0.7,0.3,0.8,0.5,0,0.3c1.2,0.3,3.4,0.9,6.2,1.7
						c1.4,0.3,2.9,0.9,4.5,1.4c1.6,0.5,3.2,1,4.9,1.6c1.6,0.6,3.2,1.2,4.8,1.8c0.8,0.3,1.5,0.6,2.3,0.9c0.7,0.3,1.4,0.6,2.1,0.9
						c2.7,1.2,4.9,2.1,6,2.6c-0.5-0.5-2-1-2.4-1.6c1.3,0.4,1.8,0.9,2.4,0.9c0.2,0.7,2.6,1.5,3.3,2.4l0.5-0.1l0.5,0.5
						c5.4,2.5,1.3,0.4,5.8,3.1c2.6,1.5,4.1,1.9,5.5,2.9c-0.2-0.1-0.7-0.7,0-0.3c0,0.3,1.8,1,2,1.5c0.7,0.4,2.7,1.9,2.2,1.1
						c0.2,0.4,2.1,1.7,0.9,1.1c0.6,0.4,1.2,0.9,1.7,1.1l-0.7-0.6c1.1,0.7,1.8,1.4,2.5,1.9c0.7,0.6,1.3,1,2,1.4l-0.7-0.7
						c1.2,0.9,2.2,1.7,2.5,2.4l-1.3-0.9c2,1.6,3.2,2.4,4.9,3.8l-0.6-0.5c0.6,0.4,1.6,1.3,3,2.4c0.7,0.6,1.4,1.2,2.2,1.8
						c0.8,0.6,1.6,1.3,2.3,2.1c3,2.9,6.1,5.8,7,6.6c-0.2-0.4-0.3-0.7-0.5-1.1c0.6,0.5,1,1,1.6,1.5c-0.2-0.2-1.4-0.2-1.4-0.4
						c0.7,0.9,2.3,2.7,4.2,5c0.5,0.6,1,1.2,1.5,1.8c0.3,0.3,0.5,0.6,0.8,0.9c0.2,0.3,0.5,0.7,0.7,1c1,1.4,2,2.8,3.1,4.3
						c0.5,0.7,1,1.4,1.6,2.2c0.5,0.7,1,1.4,1.5,2.1c0.9,1.4,1.7,2.8,2.5,4.1c1.5,2.5,2.7,4.5,3.2,5.4c0.7,1.6-0.2,0.5-0.3,0.5
						c1.1,1.8,0.7,0.7,1.5,2.2c0.2,0.5-0.2,0-0.4-0.2c0.4,0.7,0.6,1.4,0.8,1.4c-0.4-0.9,0.1-0.7,0.1-1.2l1,2.1l-0.2,0
						c0.2,0.5,1.1,0.9,2.1,2.9c0.4,0.9,0.9,1.7,1.3,2.6c0.4,0.9,0.8,1.8,1.2,2.7c0.8,1.8,1.6,3.7,2.4,5.4c-0.1,0-0.5-0.7-0.9-1.4
						c0.2,0.5,0.6,1.2,0.7,1.6c-0.2-0.9,0.8,1.4,0.6,0.7c0.4,0.6,0.8,1.3,1.1,2c0.3,0.7,0.6,1.5,0.9,2.2c0.5,1.5,1,2.9,1.7,4
						c0.3,0,2.7,0.5,5.1,1.1c2.4,0.5,4.9,1.1,5.2,1c0.3,0.8,0.5,1.5,0.6,1.8c0.1-0.2-0.4-1.7-0.8-2.5l-0.3,0c-0.8-1.8,0-0.5-0.7-2.3
						c0.2-0.2,0.9,1.4,1.4,2.9c-0.5-1.3-0.8-2.7-1.2-3.1c-0.4-1.3,0.3,0-0.1-1.5c-0.5-1-1.2-2.3-1.5-3.6l0,0
						c-0.4-1.5-0.9-2.6-1.4-3.6c-0.6-1-1.1-2-1.6-3.4l0.2,0.2c-0.3-1-1.3-2.7-1.9-4.4c0.2,0.5,0.2,1-0.3,0c-0.7-2-1.4-3.2-1.9-4.7
						l-0.9-1.2c-0.9-1.6-2.3-4.4-4.1-7.8c-0.9-1.7-2-3.5-3.2-5.3c-1.2-1.8-2.4-3.8-3.6-5.7c-0.6-1-1.3-1.9-1.9-2.8
						c-0.7-0.9-1.3-1.8-2-2.7c-1.3-1.8-2.5-3.5-3.7-5c-2.5-3-4.5-5.4-5.7-6.8l0.2,0.2c-3.6-4.3-9.6-10.4-16.1-16
						c-0.8-0.7-1.7-1.4-2.5-2c-0.8-0.7-1.7-1.3-2.5-2c-0.8-0.6-1.7-1.3-2.5-1.9c-0.4-0.3-0.8-0.6-1.2-0.9c-0.4-0.3-0.8-0.6-1.2-0.8
						c-1.6-1.1-3.2-2.1-4.7-3.1c-0.7-0.5-1.4-0.9-2.1-1.4c-0.7-0.4-1.4-0.8-2-1.1c-1.4-1.1-3.6-2.3-5.1-3.4c0.8,0.6,0.5,0.6-0.2,0.2
						c-5-2.7-0.4-0.1-5.6-2.6c-0.7-0.4-1.7-0.9-2.9-1.4c-1.2-0.6-2.6-1.2-4.2-1.9c-1.6-0.7-3.2-1.4-5-2.2c-1.8-0.7-3.6-1.4-5.5-2.1
						c-0.9-0.3-1.8-0.7-2.7-1c-0.9-0.3-1.8-0.6-2.7-0.9c-1.8-0.6-3.5-1.1-5.1-1.7c-3.2-0.9-5.7-1.6-7.1-2c-1.6-0.2-3.3-0.5-5-0.9
						c-1.7-0.3-3.4-0.8-5-0.9l0.3,0c-1.6-0.2-7-1.2-12.6-1.9c-1.4-0.2-2.8-0.3-4.1-0.4c-1.3-0.1-2.6-0.2-3.8-0.3
						c-2.3-0.2-4.2-0.2-5.2-0.3l0.5,0.1c-3.3,0.1-2.9-0.3-5.5-0.5c0.3,0.4-2.5,0.6-3.6,0.6l0-0.1c-1.6,0.1-5.3,0.5-8,0.6l0.1-0.2
						c-1.1,0.2-2.7,0.3-4.3,0.4c-1.5,0.1-3,0.2-3.8,0.3c-3.7,0.2-9.5,0.4-14.3,1.5c-1.1,0-2.2-0.1-3.3-0.1l-0.5,0.1
						c0,0-0.9,2.1-0.9,4.3c0,1.1,0.2,2.2,0.8,3c0.6,0.8,1.6,1.4,3.1,1.6l-0.1,0.2c0.4-0.1,0.8-0.2,1.2-0.2c1.5-0.1,2.1-0.5,2-0.3
						l-2,0.3c1.5-0.2,0.5,0.1-0.1,0.3c0.6-0.1,1.2-0.1,1.7-0.2c0.3-0.1-0.2-0.1-0.5-0.1c0.8-0.2,1.8-0.6,2.8-0.6
						c1.5-0.2,0.1,0.3,1.9,0.1c9.3-1,18.4-1.2,27.9-1c0.2,0.1,0,0.1-0.3,0.1c1.4,0,2.8,0,4.1,0.1c1.3,0,2.6,0.1,3.9,0.1
						c0.7,0.1,0.9,0.3,1.1,0.4c-0.2-0.1,3.4,0.1,7,0.5c1.8,0.2,3.7,0.4,5,0.6C681.3,767.7,682.2,767.9,682.3,767.9z"/>
				</g>
				<g>
					<path class="st3" d="M484.5,492.8c0.6,0.2,1.7,0.2,2.8,0.3C486.5,492.9,485.6,492.8,484.5,492.8z"/>
					<path class="st3" d="M487.4,493.1L487.4,493.1C487.4,493.1,487.3,493.1,487.4,493.1L487.4,493.1z"/>
					<path class="st3" d="M569.3,655.2c0.2-0.3,0.4-0.6,0.6-0.9C569.6,654.6,569.4,654.9,569.3,655.2z"/>
					<path class="st3" d="M536.4,508.1l0.4-0.2c2.1,1.4,0.3,0.8,2.3,2c1.1,0,3,2.4,3.9,2.6c0,0,0.8,0.7,0.7,0.8
						c0.5,0,0.9,0.7,1.5,1.1c0.3,0.1-0.1-0.2-0.2-0.4l1.3,1c0.4,0.5,0.4,0.7-0.1,0.3c0.2,0.2,0.4,0.4,0.7,0.7
						c0.3,0.3,0.6,0.6,0.9,0.9c0.7,0.7,1.5,1.5,2.4,2.5c0.9,1,1.8,2,2.8,3.2c0.9,1.2,1.9,2.4,2.8,3.6c3.7,5,6.6,10.7,7.7,12.7
						c-0.1-0.6-0.9-1.8-0.8-2.5c0.7,1,0.8,1.6,1.2,2c-0.1,0.3,0.2,0.9,0.4,1.6c0.3,0.7,0.5,1.4,0.5,2l0.4,0.2l0.1,0.6
						c1.3,2.4,1.3,2.7,1.4,2.9c0.1,0.2,0.1,0.4,0.9,2.7c0.2,0.7,0.5,1.2,0.7,1.7c0.2,0.5,0.4,1,0.6,1.4c0.4,0.8,0.6,1.5,0.8,2.3
						c-0.1-0.2-0.1-0.9,0.2-0.2c-0.2,0.2,0.8,1.8,0.6,2.3c0.2,0.7,0.8,3,0.9,2.1c-0.1,0.4,0.4,2.5-0.1,1.3c0.2,0.7,0.3,1.4,0.5,1.8
						l-0.1-0.9c0.7,2.3,0.6,3.6,1.3,5.1l0-0.9c0.3,1.4,0.6,2.5,0.4,3.2c-0.1-0.5-0.3-0.9-0.4-1.4c0.5,2.3,0.7,3.7,1.3,5.6l-0.1-0.7
						c0.1,0.3,0.2,0.8,0.4,1.4c0.1,0.6,0.3,1.3,0.4,2.1c0.2,0.8,0.3,1.7,0.5,2.6c0.2,0.9,0.3,1.9,0.4,2.8c0.1,1,0.3,1.9,0.4,2.8
						c0.1,0.9,0.2,1.8,0.3,2.6c0.2,1.6,0.4,2.8,0.5,3.4l0.3-1.1l0.3,2c0-0.2-0.9-0.9-0.9-1.1c0.1,2.1,0.3,8.8-0.3,15.3
						c-0.5,6.6-1.8,13-2.4,14.8c-0.5,1.5-0.5,0.2-0.5,0.1c-0.3,1.9,0.1,0.9-0.3,2.5c-0.2,0.4-0.2-0.1-0.2-0.4
						c-0.1,0.7-0.4,1.3-0.3,1.4c0.3-0.8,0.6-0.4,0.9-0.7l-0.6,2l-0.2-0.2c-0.1,0.4,0.2,1.3-0.5,3.3c-1.1,3.3-2.4,6.9-3.9,10.1
						c-0.1-0.1,0.1-0.8,0.3-1.5c-0.2,0.4-0.4,1.1-0.7,1.5c0.6-0.7-0.4,1.4-0.1,0.8c-0.6,2.6-2.5,5.3-3.3,7.4
						c0.2,0.2,1.4,2.3,2.5,4.5c1.1,2.2,2.1,4.5,2.4,4.6c-0.5,0.7-0.9,1.3-1.2,1.6c0.4-0.2,1.3-1.5,1.7-2.2l-0.2-0.3
						c1-1.7,0.4-0.3,1.4-1.9c0.3,0-0.6,1.5-1.4,2.8c0.8-1.1,1.7-2.2,1.7-2.8c0.7-1,0.2,0.3,1.1-1c0.5-1,1-2.3,1.7-3.4l0,0
						c1.6-2.6,1.7-4.3,3-6.7l0,0.3c0.3-0.4,0.5-1.1,0.8-1.8c0.3-0.8,0.6-1.6,1-2.4c-0.2,0.4-0.6,0.8-0.2-0.2
						c0.8-1.8,1.2-3.1,1.8-4.5l0.2-1.4c0.6-1.6,1.4-4.5,2.3-8.1c0.8-3.5,1.6-7.8,2.2-12c0.5-4.2,0.8-8.5,0.9-12.1
						c0.1-3.6,0.1-6.6,0-8.3l0,0.3c-0.1-5.2-0.8-13.3-2.2-21.1c-1.4-7.9-3.6-15.7-5.4-20.7c-0.2-1.7-1.1-3.8-1.6-5.5
						c0.2,1,0,0.7-0.3,0c-0.9-2.5-1-2.6-1.1-2.7c-0.1-0.1-0.2-0.1-1.3-2.6c-1.3-2.9-4.6-9.7-9-15.8c-1-1.6-2.2-3-3.3-4.5
						c-1.1-1.5-2.2-2.7-3.3-3.9c-0.5-0.6-1-1.2-1.5-1.7c-0.5-0.5-1-1-1.4-1.4c-0.8-0.9-1.5-1.6-2-2.1c-1.3-0.9-2.5-1.9-3.8-3
						c-1.3-1-2.7-2.1-3.9-2.9l0.3,0.1c-0.7-0.4-2.1-1.4-3.9-2.6c-0.9-0.6-1.9-1.2-3-1.9c-0.5-0.3-1.1-0.7-1.7-1
						c-0.6-0.3-1.2-0.6-1.7-1c-4.6-2.6-9.6-4.7-11.3-5.3l0.4,0.2c-3.1-0.9-2.5-1.2-4.8-2.1c0.2,0.5-2.5-0.2-3.5-0.4l0.1-0.1
						c-1.5-0.4-5-1-7.5-1.5l0.1-0.2c-2.1-0.3-6.1-1.1-7.6-1.3c-3.4-0.6-8.8-1.6-13.5-1.5c-1-0.2-2-0.5-3.1-0.7l-0.5,0.1
						c0,0-1.2,1.9-1.6,4.1c-0.2,1.1-0.1,2.2,0.3,3.1c0.4,0.9,1.2,1.7,2.6,2.1l-0.1,0.2l1.1,0c1.3,0.1,2-0.1,1.9,0.1
						c-0.6,0-1.2-0.1-1.8-0.1c1.3,0.1,0.4,0.2-0.1,0.3c0.6,0,1.1,0.1,1.5,0.2c0.3-0.1-0.2-0.1-0.4-0.2c0.7-0.1,1.7-0.2,2.6-0.1
						c1.4,0.1,0.1,0.4,1.7,0.5c8.5,0.8,16.6,2.7,24.7,5.4c0.2,0.1-0.1,0.1-0.3,0c1.2,0.3,2.4,0.8,3.5,1.2c0.6,0.2,1.1,0.4,1.7,0.6
						c0.5,0.2,1.1,0.4,1.6,0.6c0.6,0.3,0.7,0.5,0.8,0.7c-0.1-0.2,2.8,1.1,5.7,2.6c0.7,0.4,1.5,0.8,2.1,1.1c0.7,0.4,1.3,0.8,1.8,1.1
						C535.6,507.6,536.4,508.1,536.4,508.1z"/>
				</g>
			</g>
		</g>
		<path class="st1" d="M568.2,378L568.2,378c-63.9,15.6-95.2,88-62.8,145.2l216.7,382.4L872.8,807L666.5,495.6l22.9-38.3L568.2,378z
			"/>
		<g>
			<defs>
				<path id="SVGID_00000181789399735856217700000013371833666570606727_" d="M505.4,523.3l-48.8,82.5l-124-25.4v178.1l155.1,16.8
					c36.6,4,71.3-17.1,84.8-51.4l19-48.5L505.4,523.3z"/>
			</defs>
			<clipPath id="SVGID_00000083050279688303715860000002700336543430222736_">
				<use xlink:href="#SVGID_00000181789399735856217700000013371833666570606727_"  style="overflow:visible;"/>
			</clipPath>
			<g style="clip-path:url(#SVGID_00000083050279688303715860000002700336543430222736_);">
				<g>
					<path class="st3" d="M486.4,523.4c-0.4,0.8-0.6,2.2-0.8,3.5C485.9,526,486.2,524.9,486.4,523.4z"/>
					<path class="st3" d="M485.5,527C485.5,527,485.5,527,485.5,527C485.5,527,485.5,527,485.5,527C485.5,527,485.5,527,485.5,527z"
						/>
					<path class="st3" d="M570.4,754.3c-0.3-0.2-0.6-0.4-0.9-0.6C569.8,753.9,570.1,754.1,570.4,754.3z"/>
					<path class="st3" d="M482.3,591.7l0.4,0.2c0.2,3.2-0.4,0.9-0.1,3.9c0.6,1.1,0.3,4.9,0.7,5.9c0,0,0.1,1.4-0.1,1.3
						c0.3,0.4,0.2,1.5,0.4,2.4c0.1,0.3,0.1-0.2,0.1-0.5l0.3,2.1c0,0.8-0.2,1-0.3,0.2c0.2,2.7,0.9,10.6,2.1,18.4
						c1.1,7.9,2.8,15.7,3.5,18.6c0-0.8-0.5-2.5-0.3-3.3c0.5,1.5,0.4,2.3,0.8,2.9c-0.4,0.7,0.6,3.4,0.4,4.6l0.4,0.4l0,0.8
						c2,6.6,0.5,1.5,2,7.4c1,3.4,1.9,4.8,2.3,6.8c-0.1-0.3-0.1-1.1,0.2-0.2c-0.2,0.2,0.9,2.2,0.8,2.8c0.3,0.8,1.2,3.6,1.2,2.5
						c0,0.5,0.8,3,0.1,1.6c0.3,0.8,0.5,1.6,0.8,2.2l-0.3-1.1c1,2.8,1.3,4.3,2.3,6l-0.2-1.1c0.6,1.6,1.2,3,1.1,3.8l-0.8-1.6
						c1.1,2.7,1.7,4.3,2.9,6.5l-0.3-0.8c0.4,0.7,1.1,2.1,2,3.9c0.9,1.8,2,3.9,3.1,6.1c2.2,4.2,4.6,8.3,5.5,9.5l-0.4-1.3l1.4,2
						c-0.1-0.3-1.4-0.6-1.4-0.8c1.3,2.3,5.3,9.4,9.9,16c4.6,6.7,9.7,12.9,11.2,14.8c1.1,1.6-0.1,0.6-0.2,0.6
						c1.6,1.7,0.9,0.6,2.2,2.1c0.3,0.4-0.2,0.1-0.5-0.1c0.6,0.6,1.1,1.3,1.2,1.3c-0.7-0.9-0.1-0.8-0.2-1.3l1.7,2l-0.2,0.1
						c0.4,0.4,1.4,0.7,3.1,2.6c2.9,3.2,6.4,6.4,9.5,9.3c-0.1,0.1-0.9-0.5-1.6-1.1c0.4,0.4,1.1,1,1.4,1.4c-0.6-0.9,1.5,1.1,0.9,0.5
						c1.4,0.8,2.8,2,4.1,3.1c1.4,1.1,2.7,2.2,3.9,2.9c0.3-0.1,2.7-0.8,5.1-1.7c2.4-0.8,4.8-1.7,4.9-2c0.7,0.5,1.3,1,1.5,1.2
						c-0.1-0.2-1.4-1.2-2.1-1.7l-0.3,0.2c-1.7-1.1-0.3-0.4-1.8-1.5c0.1-0.3,1.5,0.7,2.8,1.6c-1.1-0.9-2.1-1.8-2.8-2
						c-1-0.9,0.3-0.1-0.9-1.2c-0.9-0.6-2.3-1.4-3.2-2.3l0,0c-1.2-1.1-2.1-1.8-3.1-2.5c-1-0.7-1.9-1.3-2.9-2.4l0.3,0.1
						c-0.7-0.8-2.3-2-3.5-3.4c0.3,0.4,0.6,0.8-0.3,0.1c-1.4-1.6-2.6-2.5-3.5-3.7l-1.2-0.9c-2.6-2.6-8.9-9.3-14.3-16.7
						c-5.6-7.3-10.3-15.2-12.1-18.5l0.2,0.2c-2.9-4.9-6.8-12.7-10.2-20.8c-3.4-8.1-6.3-16.5-8.1-22.1c-0.3-1.8-1-4.2-1.5-6.1
						c0.2,1.1-0.1,0.7-0.3-0.1c-1.4-5.7-0.3-0.3-1.8-6c-0.9-3.3-2.7-11.3-4-19.4c-1.3-8-2-16.1-2.2-19.1c-0.7-3.2-0.8-7.3-1.2-10.5
						l0.1,0.3c-0.2-1.7-0.5-7.4-0.6-13.2c-0.1-5.8-0.1-11.6-0.1-13.6l-0.1,0.5c-0.2-3.5,0.2-3,0.4-5.7c-0.4,0.4-0.6-2.6-0.6-3.8
						l0.1,0c0-1.7-0.2-5.6-0.1-8.5l0.2,0.1c-0.1-2.4,0.3-6.8,0.4-8.5c0.4-3.9,1.4-9.8,1.8-14.9l1.1-3.2l0-0.5c0,0-1.7-1.6-3.7-2.4
						c-2-0.9-4.4-0.9-5.7,2.5l-0.2-0.1l-0.2,1.4c-0.3,1.7-0.2,2.5-0.4,2.3l0.3-2.3c-0.3,1.7-0.3,0.5-0.3-0.2
						c-0.1,0.7-0.2,1.4-0.4,1.9c0,0.3,0.1-0.2,0.2-0.5c0,0.9,0,2.2-0.2,3.3c-0.2,1.7-0.4,0.1-0.6,2.1c-1.4,10.5-2.3,20.8-2.5,31.5
						c-0.1,0.2-0.1,0-0.1-0.4c0,3.2,0,6.1,0.1,9c-0.1,0.8-0.2,1-0.3,1.3c0.1-0.2,0.2,3.8,0.3,8C482.1,587.3,482.3,591.5,482.3,591.7
						z"/>
				</g>
				<g>
					<path class="st3" d="M397,772.5c0.5-0.5,1.1-1.5,1.7-2.4C398.1,770.6,397.6,771.4,397,772.5z"/>
					<path class="st3" d="M398.8,770C398.8,770,398.8,770,398.8,770C398.7,770,398.7,770,398.8,770L398.8,770z"/>
					<path class="st3" d="M590.8,706.8c-0.3-0.2-0.6-0.3-0.9-0.5C590.2,706.4,590.5,706.6,590.8,706.8z"/>
					<path class="st3" d="M433.7,728.3l-0.1-0.4c2-1.7,0.9-0.2,2.7-1.8c0.4-1.1,3.2-2.5,3.7-3.3c0,0,1-0.7,1-0.5
						c0.1-0.5,0.9-0.8,1.5-1.3c0.2-0.2-0.2,0-0.4,0.1l1.3-1.1c0.6-0.3,0.8-0.3,0.3,0.2c1.9-1.3,7.3-5,13.1-8.2
						c1.5-0.8,2.9-1.5,4.3-2.3c1.4-0.7,2.8-1.3,4.1-1.9c2.5-1.1,4.6-2,5.7-2.5c-0.7,0-2,0.8-2.7,0.6c1.1-0.7,1.8-0.7,2.2-1.1
						c0.7,0.3,2.7-0.9,3.8-0.7l0.2-0.4l0.7-0.1c5.3-2,1.2-0.6,6-2c2.8-0.8,4-1.6,5.6-1.8c-0.2,0-0.9,0-0.2-0.2
						c0.2,0.2,1.9-0.6,2.3-0.4c0.4-0.1,1.1-0.3,1.7-0.4c0.6-0.1,0.9-0.3,0.5-0.4c0.4,0.1,2.5-0.2,1.3,0.2c0.7-0.1,1.4-0.2,1.9-0.4
						l-0.9,0.1c2.4-0.5,3.7-0.3,5.3-0.9l-0.9,0c1.4-0.2,2.6-0.4,3.3-0.1c-0.5,0.1-1,0.2-1.5,0.3c2.4-0.3,3.8-0.4,5.8-0.8l-0.7,0.1
						c0.6-0.2,1.9-0.3,3.6-0.5c1.7-0.2,3.6-0.3,5.6-0.4c2-0.1,4-0.1,5.6-0.1c1.6,0,2.9,0,3.5-0.1l-1.1-0.4l2.1-0.1
						c-0.2,0-1.1,0.8-1.3,0.7c2.2,0.1,9,0.7,15.7,1.9c6.7,1.2,13.2,3.1,15.1,3.8c1.5,0.6,0.2,0.5,0.1,0.6c1.9,0.5,0.9,0,2.5,0.5
						c0.4,0.2-0.2,0.2-0.4,0.1c0.7,0.2,1.3,0.5,1.4,0.4c-0.9-0.4-0.4-0.6-0.7-0.9c0.7,0.2,1.4,0.5,2.1,0.7l-0.2,0.2
						c0.5,0.2,1.4-0.2,3.4,0.7c3.4,1.3,7.1,2.7,10.4,4.2c-0.1,0.1-0.8-0.1-1.6-0.4c0.4,0.2,1.1,0.5,1.5,0.7
						c-0.7-0.6,1.5,0.5,0.9,0.1c2.7,0.6,5.6,2.6,7.8,3.3c0.2-0.2,2.3-1.4,4.4-2.7c2.1-1.2,4.3-2.4,4.5-2.7c0.7,0.4,1.4,0.8,1.6,1.1
						c-0.2-0.3-1.5-1.1-2.3-1.5l-0.3,0.2c-1.7-0.8-0.3-0.4-1.9-1.3c0-0.3,1.6,0.5,2.9,1.2c-1.2-0.7-2.3-1.5-2.9-1.5
						c-1.1-0.7,0.3-0.2-1-1c-1-0.4-2.4-0.9-3.4-1.6l0,0c-2.6-1.6-4.3-1.6-6.7-3l0.3,0c-0.8-0.5-2.7-1.1-4.2-1.9
						c0.4,0.2,0.8,0.6-0.2,0.2c-1.8-0.9-3.1-1.3-4.5-1.9l-1.4-0.3c-3.3-1.2-11.5-4-20-5.8c-8.5-1.9-17.2-2.8-20.7-3l0.3,0
						c-5.4-0.4-13.6-0.7-21.9,0c-8.3,0.6-16.5,2.3-21.8,3.9c-1.7,0.2-4,0.9-5.8,1.4c1-0.2,0.7,0.1,0,0.3c-2.6,0.8-2.7,0.9-2.8,1
						c-0.1,0.1-0.2,0.1-2.7,1.2c-3,1.2-10.1,4-16.8,7.6c-6.7,3.5-12.9,7.7-15.3,9.2c-1.1,1-2.5,2.1-3.8,3.1c-1.3,1-2.6,2.1-3.7,3.1
						l0.2-0.3c-1.2,1-5.3,4.4-9.2,8c-3.9,3.6-7.6,7.6-8.8,8.9l0.4-0.3c-2,2.5-2,1.9-3.7,3.8c0.5,0-1.1,2.3-1.7,3.1l0-0.1
						c-1,1.3-2.9,4.2-4.4,6.3l-0.1-0.2c-1.1,1.9-3.6,5.1-4.5,6.4c-2.1,2.9-5.5,7.2-7.6,11.5c-0.7,0.8-1.4,1.6-2.1,2.4l-0.2,0.4
						c0,0,1.1,2,2.8,3.4c1.7,1.3,3.9,2.1,6-0.1l0.1,0.2l0.5-1c0.8-1.2,0.9-1.9,1-1.7l-1,1.6c0.8-1.2,0.4-0.3,0.2,0.2
						c0.3-0.5,0.6-1,0.9-1.3c0.1-0.3-0.2,0.1-0.3,0.3c0.3-0.7,0.7-1.7,1.2-2.5c0.8-1.2,0.4,0.1,1.3-1.3c4.9-7.5,10.3-14.3,16.1-21.2
						c0.2-0.1,0,0.1-0.1,0.3c1.7-2.1,3.4-3.9,5-5.7c0.5-0.4,0.8-0.5,1-0.6c-0.1,0,0.4-0.6,1.3-1.5c0.4-0.5,1-1,1.5-1.6
						c0.6-0.6,1.2-1.2,1.8-1.8c1.2-1.2,2.5-2.4,3.5-3.3C433,728.9,433.7,728.3,433.7,728.3z"/>
				</g>
				<g>
					<path class="st3" d="M314.8,656.9c0.8-0.1,1.9-0.7,3.1-1.1C316.9,655.9,315.9,656.2,314.8,656.9z"/>
					<path class="st3" d="M317.9,655.7C317.9,655.7,317.9,655.7,317.9,655.7C317.9,655.7,317.9,655.7,317.9,655.7
						C317.9,655.7,317.9,655.7,317.9,655.7z"/>
					<path class="st3" d="M467.8,788c0.1-0.3,0.1-0.7,0.2-1.1C468,787.2,467.9,787.6,467.8,788z"/>
					<path class="st3" d="M378.5,647.6l0.2-0.4c3,0.3,0.8,0.5,3.6,0.8c1.2-0.4,4.6,0.7,5.6,0.6c0,0,1.3,0.3,1.2,0.5
						c0.5-0.2,1.4,0.2,2.3,0.3c0.3,0-0.2-0.1-0.4-0.3c0.7,0.1,1.3,0.2,2,0.3c0.7,0.3,0.9,0.5,0.1,0.3c2.5,0.6,9.8,2.5,17,5.1
						c1.8,0.7,3.6,1.3,5.3,2c0.8,0.4,1.7,0.7,2.5,1c0.4,0.2,0.8,0.3,1.2,0.5c0.4,0.2,0.7,0.3,1.1,0.5c2.8,1.2,4.9,2.5,6.1,3.1
						c-0.5-0.5-1.9-1.3-2.3-1.8c1.4,0.5,1.8,1.1,2.4,1.2c0.2,0.7,2.6,1.8,3.1,2.8l0.5,0l0.5,0.6c2.6,1.7,2.8,2,3,2.1
						c0.2,0.2,0.3,0.3,2.3,2.2c0.6,0.5,1.1,1,1.6,1.4c0.5,0.4,0.9,0.8,1.2,1.1c0.8,0.7,1.4,1.2,1.9,2c-0.2-0.2-0.5-0.9,0.1-0.3
						c-0.1,0.1,0.3,0.5,0.8,0.9c0.4,0.4,0.8,0.9,0.8,1.1c0.6,0.6,2.1,2.8,1.8,1.8c0.1,0.5,1.4,2.5,0.5,1.4c0.4,0.7,0.8,1.3,1.2,1.8
						l-0.5-0.9c0.8,1.1,1.3,2,1.7,2.8c0.5,0.8,0.9,1.5,1.4,2.2l-0.4-1c0.4,0.7,0.8,1.4,1.1,1.9c0.3,0.6,0.4,1.1,0.4,1.4l-0.9-1.4
						c1.3,2.4,2,3.8,3.1,5.8l-0.3-0.7c0.8,1.2,2.7,5.3,4.2,9.6c1.6,4.3,2.8,8.7,3.3,10l0-1.3l0.7,2.3c-0.1-0.3-1.1-0.9-1.1-1.2
						c0.3,1.2,0.8,3.7,1.4,6.9c0.6,3.2,1.1,7.1,1.5,11c0.8,7.8,0.8,15.6,0.7,17.9c-0.2,1.9-0.5,0.3-0.5,0.3c0.1,2.3,0.3,1,0.2,3
						c-0.1,0.5-0.2-0.1-0.3-0.4c0,0.9-0.1,1.7,0,1.7c0.1-1.1,0.5-0.6,0.7-1.1l-0.1,2.5l-0.2-0.1c0,0.6,0.6,1.5,0.3,3.9
						c-0.3,4.2-0.6,8.8-1.1,13c-0.1-0.1-0.1-1-0.1-1.9c-0.1,0.6-0.1,1.4-0.3,1.9c0.3-1,0,1.8,0.2,1c0.2,3.1-0.8,7.1-0.9,9.8
						c0.2,0.2,2.1,1.9,3.9,3.7c1.8,1.8,3.6,3.6,3.9,3.7c-0.2,0.9-0.4,1.7-0.5,2.1c0.2-0.3,0.6-2,0.7-2.9l-0.3-0.2
						c0.3-2.1,0.3-0.5,0.6-2.5c0.3-0.1,0,1.8-0.3,3.5c0.3-1.5,0.7-3,0.6-3.6c0.3-1.4,0.3,0.2,0.7-1.5c0.1-1.2,0.1-2.8,0.4-4.2l0,0
						c0.7-3.3,0.3-5.2,0.9-8.3l0,0.3c0.3-1.1,0.3-3.3,0.6-5.2c-0.1,0.6-0.3,1-0.3-0.2c0.3-2.3,0.3-3.8,0.6-5.5l-0.2-1.6
						c0.3-4,0.5-13.8-0.1-23.7c-0.3-4.9-0.9-9.9-1.5-14c-0.6-4.2-1.3-7.6-1.7-9.6l0.1,0.3c-1.3-6-3.7-15.2-7.7-24
						c-2-4.4-4.4-8.6-6.9-12.3c-2.5-3.7-5.2-6.9-7.5-9.2c-0.3-0.4-0.7-0.9-1-1.3c-0.4-0.4-0.8-0.9-1.3-1.3c-0.9-0.9-1.8-1.7-2.6-2.4
						c0.8,0.9,0.4,0.7-0.3,0.1c-2.5-2.1-2.6-2.1-2.7-2.1c-0.1,0-0.3-0.1-2.9-1.9c-0.8-0.5-1.9-1.2-3.2-2c-1.3-0.8-2.8-1.7-4.6-2.5
						c-0.4-0.2-0.9-0.4-1.3-0.7c-0.5-0.2-0.9-0.4-1.4-0.6c-0.9-0.4-1.9-0.9-2.9-1.3c-1.9-0.8-3.9-1.7-5.9-2.4
						c-8-3.1-16.3-5.4-19.4-6.1c-1.7-0.2-3.6-0.6-5.5-0.9c-1.9-0.4-3.8-0.7-5.5-0.8l0.4,0c-1.8-0.3-7.8-1.1-14-1.4
						c-6.1-0.4-12.4-0.2-14.5,0l0.6,0c-3.7,0.4-3.2,0-6.1,0.2c0.2,0.2-0.5,0.4-1.3,0.6c-0.9,0.2-2,0.4-2.5,0.5l0-0.1
						c-1.8,0.3-5.8,1.3-8.7,1.9l0.1-0.2c-2.4,0.7-7,1.7-8.7,2.2c-2,0.5-4.5,1.1-7.2,1.9c-2.7,0.8-5.5,1.9-8,3.1
						c-1.2,0.3-2.4,0.6-3.6,0.9l-0.5,0.3c0,0-0.5,2.4,0.1,4.5c0.3,1.1,0.9,2,1.7,2.6c0.8,0.6,2,0.9,3.6,0.6l0,0.2l1.2-0.6
						c1.5-0.5,2.1-1,2-0.8c-0.7,0.3-1.3,0.5-2,0.8c1.5-0.6,0.5,0,0,0.3c0.6-0.3,1.2-0.5,1.7-0.6c0.3-0.2-0.2,0-0.5,0.1
						c0.7-0.4,1.8-1,2.8-1.3c1.5-0.6,0.2,0.3,2-0.4c9.5-3.3,19.2-5.1,29.4-6.1c0.2,0.1,0,0.1-0.3,0.2c0.8-0.1,1.5-0.2,2.2-0.3
						c0.7-0.1,1.4-0.1,2.2-0.2c0.7-0.1,1.4-0.1,2.1-0.2c0.7,0,1.4-0.1,2.1-0.1c0.8,0.1,1,0.2,1.2,0.3c-0.1,0,0.8-0.1,2.2-0.1
						c1.4,0,3.4,0,5.4,0.1c2,0,4,0.2,5.5,0.3C377.4,647.5,378.5,647.6,378.5,647.6z"/>
				</g>
				<g>
					<path class="st3" d="M321.2,739.8c0.7,0.2,1.9,0.2,3,0.2C323.4,739.8,322.5,739.8,321.2,739.8z"/>
					<path class="st3" d="M324.3,740C324.3,740,324.3,740,324.3,740C324.3,740,324.3,740,324.3,740L324.3,740z"/>
					<path class="st3" d="M428.7,589.2c0,0.3,0,0.5,0,0.8C428.7,589.7,428.7,589.4,428.7,589.2z"/>
					<path class="st3" d="M375.3,725.8l0-0.4c2.3-1.3,0.9,0,2.9-1.3c0.3-0.5,1.1-1,2-1.4c0.9-0.5,1.7-1,2-1.3c0,0,1-0.6,1-0.4
						c0.1-0.5,1-0.7,1.6-1.2c0.2-0.2-0.2,0-0.4,0.1l1.4-1c0.6-0.3,0.9-0.2,0.3,0.2c0.9-0.6,2.7-1.9,4.9-3.6c1.1-0.8,2.2-1.8,3.4-2.8
						c1.2-1,2.5-2.1,3.7-3.2c4.8-4.5,9.1-9.5,10.6-11.4c-0.5,0.4-1.4,1.6-2.1,1.8c0.7-1.1,1.3-1.4,1.5-1.9c0.7,0,1.8-2.1,2.8-2.6
						l0-0.5l0.5-0.4c1.6-2.3,1.7-2.6,1.9-2.8c0.1-0.2,0.3-0.3,1.7-2.4c1.5-2.4,1.9-3.8,2.9-5.1c-0.1,0.2-0.6,0.7-0.3,0
						c0.3,0,0.8-1.8,1.2-2c0.3-0.6,1.5-2.7,0.8-2.2c0.4-0.3,1.4-2.1,1-0.9c0.4-0.6,0.7-1.2,0.9-1.7l-0.5,0.7c0.3-0.5,0.5-1,0.8-1.4
						c0.2-0.4,0.4-0.8,0.6-1.2c0.4-0.7,0.7-1.4,0.8-2.1l-0.5,0.7c0.6-1.3,1.1-2.4,1.6-2.7l-0.5,1.4c1-2.1,1.6-3.4,2.2-5.3l-0.3,0.6
						c0.3-1.2,1.5-4.9,2.8-8.6c1.1-3.7,2-7.4,2.1-8.5l-0.6,0.9l0.4-1.9c-0.1,0.2,0.6,1.2,0.5,1.3c0.2-0.5,0.4-1.3,0.7-2.2
						c0.2-1,0.5-2.2,0.8-3.5c0.3-1.3,0.7-2.8,1-4.3c0.4-1.5,0.8-3.1,1-4.7c0.6-3.2,1.2-6.3,1.6-8.9c0.4-2.6,0.6-4.7,0.8-5.6
						c0.4-1.5,0.5-0.2,0.5-0.2c0.1-1.9-0.2-0.8,0-2.4c0.1-0.4,0.2,0.1,0.2,0.4c0.1-0.7,0.2-1.3,0.1-1.4c-0.2,0.9-0.5,0.5-0.8,0.8
						l0.3-2l0.2,0.1c0-0.5-0.4-1.2-0.1-3.2c0.3-3.4,0.5-7.1,0.8-10.5c0.1,0.1,0.2,0.8,0.2,1.5c0-0.5,0.1-1.2,0.2-1.6
						c-0.3,0.8-0.1-1.4-0.2-0.8c-0.4-2.5,0.1-5.8-0.2-8c-0.5-0.2-8.3-4.8-8.9-4.8c0-0.7,0-1.3,0.1-1.5c-0.1,0.2-0.2,1.5-0.2,2.2
						l0.3,0.1c0.1,1.6-0.2,0.4-0.2,1.9c-0.3,0.1-0.3-1.4-0.3-2.6c-0.1,1.1-0.3,2.3,0,2.7c-0.1,1.1-0.3-0.1-0.4,1.2
						c0.1,0.9,0.3,2.1,0.1,3.2l0,0c-0.2,1.3-0.1,2.3,0,3.2c0,0.5,0.1,0.9,0.1,1.4c0,0.5-0.1,1-0.2,1.6l-0.1-0.3
						c-0.2,0.8-0.1,2.4-0.4,3.9c0.1-0.4,0.3-0.8,0.3,0.1c-0.3,1.7-0.2,2.9-0.5,4.1l0.2,1.2c-0.1,1.5-0.4,4-0.8,7.2
						c-0.2,1.6-0.4,3.2-0.6,5c-0.1,0.9-0.2,1.8-0.4,2.7c-0.2,0.9-0.3,1.8-0.5,2.7c-0.3,1.8-0.6,3.6-0.9,5.4
						c-0.1,0.9-0.3,1.7-0.5,2.5c-0.2,0.8-0.4,1.6-0.6,2.4c-0.7,3-1.3,5.6-1.7,7l0-0.2c-0.7,2.2-1.5,4.9-2.4,7.9
						c-0.5,1.5-1.1,3-1.7,4.6c-0.6,1.6-1.2,3.2-1.8,4.8c-0.7,1.6-1.4,3.1-2.1,4.7c-0.7,1.5-1.3,3.1-2.1,4.4c-0.7,1.4-1.5,2.7-2.1,4
						c-0.3,0.6-0.6,1.2-0.9,1.8c-0.3,0.6-0.7,1.1-0.9,1.6c-1,1.1-2,2.7-2.9,4c0.5-0.6,0.5-0.3,0.2,0.2c-0.6,1-1,1.4-1.2,1.7
						c-0.2,0.3-0.2,0.3-0.2,0.4c0,0.1,0,0.2-1.3,2.1c-0.8,1.1-2,3-3.9,5c-0.9,1-1.9,2.1-2.9,3.3c-1.1,1.1-2.2,2.2-3.3,3.3
						c-0.6,0.6-1.1,1.1-1.7,1.6c-0.6,0.5-1.2,1-1.8,1.5c-1.1,1-2.3,1.9-3.3,2.8c-2.1,1.6-3.9,2.8-4.8,3.5c-0.9,0.9-2.1,1.7-3.2,2.5
						c-1.2,0.8-2.3,1.6-3.3,2.3l0.2-0.2c-0.6,0.4-1.8,1.1-3.4,2c-1.6,0.9-3.6,1.9-5.6,2.9c-2,0.9-4.1,1.8-5.8,2.6
						c-1.8,0.7-3.2,1.2-3.9,1.6l0.4-0.1c-2.4,1.2-2.3,0.6-4.3,1.2c0.4,0.3-1.7,1.3-2.6,1.5l0-0.1c-0.6,0.2-1.6,0.6-2.8,1.1
						c-1.1,0.4-2.4,0.8-3.4,1.1l0-0.2c-0.9,0.4-2.2,0.7-3.4,0.9c-1.2,0.3-2.4,0.5-3.1,0.6c-3,0.5-7.7,0.7-11.6,1.3
						c-0.9-0.2-1.7-0.3-2.6-0.5l-0.4,0.1c0,0-0.9,1.9-1.4,4c-0.2,1-0.3,2.2,0.1,3.1c0.4,0.9,1.2,1.7,2.7,2.1l-0.1,0.2
						c0.4,0,0.8-0.1,1.2-0.1c1.4,0,2-0.3,1.9-0.1c-0.6,0.1-1.3,0.1-1.9,0.1c1.4,0,0.4,0.2-0.1,0.3c0.6,0,1.2,0,1.6,0
						c0.3-0.1-0.2-0.1-0.4-0.1c0.7-0.1,1.8-0.4,2.7-0.4c1.4-0.1,0.1,0.4,1.8,0.2c8.7-0.8,17-2.4,25.3-5.3c0.2,0,0,0.1-0.2,0.2
						c1.2-0.5,2.4-0.9,3.6-1.3c1.1-0.5,2.2-0.9,3.3-1.4c0.7-0.2,0.9-0.1,1.1-0.1c-0.1,0,0.6-0.3,1.7-0.8c1.1-0.5,2.7-1.2,4.2-2
						C372.1,727.5,375.2,725.9,375.3,725.8z"/>
				</g>
			</g>
		</g>
		<path class="st1" d="M505.4,523.3l-48.8,82.5l-124-25.4v178.1l155.1,16.8c36.6,4,71.3-17.1,84.8-51.4l19-48.5L505.4,523.3z"/>
		<g>
			
				<rect x="772.3" y="922.5" transform="matrix(0.8534 -0.5212 0.5212 0.8534 -354.6478 606.4136)" class="st1" width="257.1" height="22.4"/>
			<path class="st1" d="M993.7,863.9L993.7,863.9l-3.6,2.2L973,876.5L956,886.9l-17.1,10.4l-16,9.8l-1.1,0.6l-17.1,10.4l-17.1,10.4
				l-17.1,10.4l-17.1,10.4l-17.1,10.4l-17.1,10.4l-17.1,10.4v0l-10.5,6.4l-40.3-66l-15.2-24.8l97.8-64c3.6,6.7,9.2,15.3,17.3,22.7
				c5.5,5,12.1,9.4,19.9,12.1c4.9,1.7,10.2,2.8,16.1,2.9c2.1,0.1,4.2,0,6.4-0.2c0.2,0,0.5,0,0.7-0.1c8.4-0.7,16.3-2.3,23.9-4.3
				C953.1,856.6,979.3,840.3,993.7,863.9z"/>
			<path class="st1" d="M751.5,921.2l34.6,12l62.4-38.1c0,0-18.9-26.7,3-40"/>
			<line class="st1" x1="918.5" y1="865.5" x2="922.9" y2="907.1"/>
			<path class="st1" d="M861.6,892.9c0,0,26-0.5,58.6-11.1"/>
			<polyline class="st1" points="866.2,879.2 878.4,850.8 892.4,880.3 897.8,854.4 			"/>
			<circle class="st1" cx="803.6" cy="957.4" r="6.2"/>
			<circle class="st1" cx="820.7" cy="947" r="6.2"/>
			<line class="st1" x1="802.3" y1="980.8" x2="814" y2="999.9"/>
			<line class="st1" x1="819.4" y1="970.3" x2="831.1" y2="989.4"/>
			<line class="st1" x1="836.5" y1="959.9" x2="848.1" y2="979"/>
			<line class="st1" x1="853.6" y1="949.5" x2="865.2" y2="968.6"/>
			<line class="st1" x1="870.6" y1="939.1" x2="882.3" y2="958.2"/>
			<line class="st1" x1="887.7" y1="928.6" x2="899.3" y2="947.7"/>
			<line class="st1" x1="904.8" y1="918.2" x2="916.4" y2="937.3"/>
			<line class="st1" x1="921.8" y1="907.8" x2="933.5" y2="926.9"/>
			<line class="st1" x1="938.9" y1="897.4" x2="950.6" y2="916.5"/>
			<line class="st1" x1="956" y1="886.9" x2="967.6" y2="906"/>
			<line class="st1" x1="973" y1="876.5" x2="984.7" y2="895.6"/>
			<line class="st1" x1="990.1" y1="866.1" x2="1001.8" y2="885.2"/>
		</g>
		
			<rect x="79" y="712.6" transform="matrix(-1.836970e-16 1 -1 -1.836970e-16 931.2792 516.2031)" class="st1" width="257.1" height="22.4"/>
		<path class="st1" d="M332.6,602.9V720c-15.8-1.5-50.8-0.8-66.9,31.2c-21.2,42-13.2,88.3-47,88.3V602.9H332.6z"/>
		<path class="st1" d="M296.1,602.9l-28.2,23.3v73.1c0,0,32.6-2.3,32.6,23.4"/>
		<line class="st1" x1="256.6" y1="774.4" x2="218.7" y2="756.4"/>
		<path class="st1" d="M262.8,711.6c0,0-13.1,22.4-21,55.8"/>
		<polyline class="st1" points="272.1,722.7 290,747.8 257.5,744.4 276.8,762.5 		"/>
		<circle class="st1" cx="238" cy="628.5" r="6.2"/>
		<circle class="st1" cx="238" cy="648.5" r="6.2"/>
		<line class="st1" x1="218.7" y1="615.2" x2="196.4" y2="615.2"/>
		<line class="st1" x1="218.7" y1="635.2" x2="196.4" y2="635.2"/>
		<line class="st1" x1="218.7" y1="655.2" x2="196.4" y2="655.2"/>
		<line class="st1" x1="218.7" y1="675.2" x2="196.4" y2="675.2"/>
		<line class="st1" x1="218.7" y1="695.2" x2="196.4" y2="695.2"/>
		<line class="st1" x1="218.7" y1="715.2" x2="196.4" y2="715.2"/>
		<line class="st1" x1="218.7" y1="735.2" x2="196.4" y2="735.2"/>
		<line class="st1" x1="218.7" y1="755.2" x2="196.4" y2="755.2"/>
		<line class="st1" x1="218.7" y1="775.2" x2="196.4" y2="775.2"/>
		<line class="st1" x1="218.7" y1="795.2" x2="196.4" y2="795.2"/>
		<line class="st1" x1="218.7" y1="815.2" x2="196.4" y2="815.2"/>
		<line class="st1" x1="218.7" y1="835.2" x2="196.4" y2="835.2"/>
		<path class="st16" d="M340.3,420.2H226.2c-6.9,0-12.4-5.6-12.4-12.4v0c0-6.9,5.6-12.4,12.4-12.4h114.1c6.9,0,12.4,5.6,12.4,12.4v0
			C352.7,414.6,347.2,420.2,340.3,420.2z"/>
		<line class="st1" x1="387.3" y1="523.3" x2="443" y2="523.3"/>
		<polygon class="st8" points="332.6,720 296.1,602.9 332.6,602.9 		"/>
		<polygon class="st8" points="834.1,832.3 751.5,921.2 736.3,896.4 		"/>
		<polygon class="st8" points="591.6,675.4 481.1,564.4 505.4,523.3 		"/>
		<path class="st1" d="M568.2,378l42.6-66.6l-46.7-6.8l21.6-96.2c0,0,67.9,14.7,125,36.6l29.7,53.2l20.1-30.1l83.7,77.1l-50,73.6
			L746.1,378l-56.7,79.3L568.2,378z"/>
		<line class="st1" x1="764.7" y1="350.8" x2="746.1" y2="378"/>
		<line class="st1" x1="626.5" y1="286.3" x2="610.8" y2="311.4"/>
		<path class="st1" d="M773.2,193.1c-2.5,1-5.2,1.4-8.1,1.1c-8.5-0.8-15.3-7.9-15.7-16.4c-0.5-10.1,7.5-18.4,17.4-18.4
			c7.2,0,13.4,4.4,16.1,10.7c0,0,31.3,4.9,42.4-36.3c0,0,38.6,11.2,14.5,57.2l2.5,1.1c4.5,2,4.5,8.3,0,10.3l-9.7,4.2l-11.8,30.2
			c-3.9,10-15.4,14.5-25.1,10l-15.1-7.1l-20.1,28.6"/>
		<path class="st2" d="M801.2,193.8c0,0,12.2-0.8,8.1,9.3c0,0,11.2-4.3,7,8c0,0-11.1,6.6-16.4,0
			C794.7,204.5,801.2,193.8,801.2,193.8z"/>
		<path class="st1" d="M801.7,187.8c0,0-5,17.3,15.8,23.7"/>
		<path class="st1" d="M812.4,172.9c0,0,6.3-7.9,15.9-1.4"/>
		<ellipse transform="matrix(0.3535 -0.9354 0.9354 0.3535 359.136 887.3185)" class="st6" cx="821.5" cy="183.8" rx="1.8" ry="1"/>
		<line class="st1" x1="765.1" y1="170.9" x2="768.5" y2="181.8"/>
		<path class="st1" d="M710.7,245c0,0,54.8,9.5,54.4-50.8"/>
		<path class="st1" d="M765.2,194.2c0.4,60.4-54.4,50.8-54.4,50.8"/>
		<polygon class="st2" points="780.6,239.6 763.9,229.3 769,256.1 		"/>
		<path class="st6" d="M806,310.2l-45.5-42l20.1-28.6l15.1,7.1c3.4,1.6,7,2.1,10.4,1.6c0,5.8,1.2,14.8,8.5,19.8
			C826,276,825.9,298.8,806,310.2z"/>
		<path class="st6" d="M843.6,182.7c15.6-39.1-18.3-49-18.3-49c-11,41.2-42.4,36.3-42.4,36.3c-2.7-6.3-8.8-10.6-16.1-10.6
			c-10,0-18,8.3-17.4,18.4c0.5,8.5,7.2,15.6,15.7,16.4c0.4,60.3-54.4,50.8-54.4,50.8c-51.2-19.7-111-33.5-122.9-36.2l-2.1-0.5
			l23.5-76.4c23,6.9,42.2,1.7,42.2,1.7c-23-4.7-35.5-22.3-35.5-22.3s10.6-30.1,10.6-30.1c6.6,11.5,17.9,17.3,30.8,18.8
			c10,1.1,20.1-1.5,30.1-0.5c7.9,0.8,14.3,5.4,19.8,10.8c6.9,6.7,16,12.3,25.8,13.5c6.4,0.8,11.9-1.8,17.1-5.4
			c8.3-5.7,16.1-9.9,26.3-11c30.3-3.3,49.3,23,49.3,23s37.7,2.9,39,27C865.8,178.8,847.7,182.2,843.6,182.7z"/>
		<polyline class="st1" points="826.9,117.2 825.7,130.4 839.4,116.4 		"/>
		<path class="st1" d="M825.7,130.4c0,0-9.1-24.6-33.4-30.5c-10.5-2.6-21.2-1.8-31,2.5c-7.4,3.2-15.7,11.7-23.9,11.7
			c-8.3,0-15.8-6.6-21.3-12.2c-4.8-5-10.4-11.6-18-11.5c-9.6,0.2-18.4,3.9-28.3,2.6c-18.1-2.5-30.3-10.5-38.5-23.2"/>
		<path class="st15" d="M789.3,155.7c0,0,21.4-3.4,24.3-22"/>
		<polygon class="st1" points="396.9,142.8 396.9,249.6 365.5,249.6 385.1,292.7 317,249.6 231.8,249.6 231.8,142.8 		"/>
		<polygon class="st6" points="213.7,115.1 213.7,195.1 231.8,195.1 231.8,142.8 293.6,142.8 293.6,115.1 		"/>
		<polyline class="st19" points="296.4,185.3 321.3,217.7 349.2,169.6 		"/>
		<path class="st1" d="M956.8,307.3c7.5-11.8-1.7-19.2-1.7-19.2l12.8,6.9c3.6,2,8.1,0.9,10.5-2.5l0,0c2.5-3.6,1.6-8.5-1.9-11.1
			c-13.9-10.1-30-17-40.4-2.1c-11.9,17.2-2.2,36.5-2.2,36.5l-52.2,61.5l-37.6-31.9l-43,63.2l61.6,45.7c21,15.6,50.8,10.1,64.8-12
			l76.8-120.6"/>
		<path class="st1" d="M955.1,288.1L955.1,288.1c0.4,0.3,9,7.7,1.7,19.2"/>
		<path class="st1" d="M960.9,272.6l9.8-11.5c2.9-3.4,8.1-3.7,11.4-0.6l0,0c2.9,2.8,3.2,7.2,0.8,10.4l-7.4,9.7"/>
		<path class="st1" d="M995.3,281l-17,21.4c-2,2.5-5.1,3.4-7.9,2.7c-1.1-0.3-2.1-0.7-3-1.5c-3-2.4-3.8-6.7-1.9-10l2.4,1.3
			c0.6,0.3,1.3,0.6,2,0.8c3.2,0.8,6.6-0.5,8.5-3.3c2.5-3.6,1.6-8.5-1.9-11.1c-0.4-0.3-0.7-0.5-1.1-0.8l7.2-9.5
			c2-2.6,5.3-3.6,8.3-2.9c1.1,0.3,2.2,0.8,3.2,1.6C997.5,272.6,998,277.6,995.3,281z"/>
		<path class="st1" d="M995.1,281.2L976,305.4c-2.7,3.5-2.2,8.5,1.2,11.2l0,0c3.5,2.8,8.6,2.3,11.4-1.2l19.1-24.1
			c2.7-3.5,2.2-8.5-1.2-11.3h0C1003,277.1,997.9,277.7,995.1,281.2z"/>
		<path class="st1" d="M1007.8,291.3l-16.1,20.4c-2.9,3.6-2.1,8.9,1.6,11.6v0c3.5,2.5,8.3,1.8,11-1.5l16.2-20.4
			c2.7-3.5,2.2-8.5-1.2-11.3v0C1015.8,287.2,1010.6,287.7,1007.8,291.3z"/>
		<path class="st1" d="M955.1,288.1L955.1,288.1c0.4,0.3,9,7.7,1.7,19.2"/>
		<path class="st1" d="M975.5,280.7l1.2-1.6l6.2-8.1c0.1-0.2,0.2-0.3,0.4-0.5c0,0,0,0,0,0c0.8-1.3,1.2-2.8,1.2-4.2
			c0-2.1-0.8-4.1-2.4-5.7c-1.4-1.4-3.2-2.1-5-2.2c-2.3-0.1-4.7,0.8-6.4,2.7l-9.8,11.5"/>
		<path class="st1" d="M995.6,280.6C995.6,280.6,995.6,280.6,995.6,280.6c-0.1,0.2-0.2,0.3-0.3,0.4l-17,21.4
			c-0.1,0.1-0.2,0.2-0.3,0.4l0,0c-0.5,0.5-1.1,1-1.7,1.4c-1.8,1.1-3.9,1.4-6,1c-1.1-0.3-2.1-0.8-3-1.5c-3-2.4-3.8-6.7-1.9-10
			l2.4,1.3c0.5,0.3,1,0.5,1.5,0.6c0.2,0.1,0.3,0.1,0.5,0.1c0,0,0.1,0,0.1,0c0.2,0,0.4,0.1,0.6,0.1c1.2,0.2,2.4,0.1,3.5-0.3
			c0.6-0.2,1.2-0.4,1.8-0.8c0.2-0.1,0.4-0.3,0.6-0.4c0.4-0.3,0.9-0.7,1.2-1.1c0.2-0.2,0.4-0.5,0.6-0.8c0.1-0.2,0.2-0.4,0.3-0.5
			c0.1-0.2,0.2-0.4,0.3-0.5c0.1-0.3,0.2-0.6,0.3-0.9c0.4-1.2,0.5-2.5,0.4-3.7l0-0.2c-0.1-0.4-0.1-0.7-0.2-1
			c-0.2-0.6-0.4-1.2-0.7-1.7c-0.2-0.3-0.3-0.5-0.5-0.8c-0.4-0.6-0.9-1.1-1.5-1.5c-0.1,0-0.1-0.1-0.2-0.2c-0.3-0.2-0.7-0.5-1-0.7
			c0,0-0.1-0.1-0.1-0.1l1.4-1.8l5.9-7.7c0.2-0.2,0.4-0.5,0.6-0.7c0,0,0,0,0,0c2-2.1,4.9-2.8,7.6-2.2c1.1,0.3,2.2,0.8,3.2,1.6
			C997.4,272.5,998,277.2,995.6,280.6z"/>
		<path class="st1" d="M975.5,280.7c0,0-0.1-0.1-0.1-0.1l1.4-1.8l5.9-7.7c0.2-0.2,0.4-0.5,0.6-0.7c-0.1,0.2-0.2,0.3-0.4,0.5
			l-6.2,8.1L975.5,280.7z"/>
		<polygon class="st2" points="801.2,408.6 864.7,362.8 844.2,345.3 		"/>
		<path class="st1" d="M491.3,406.6c9.8-0.4,17.8-4.4,20.3-15.7c4.4-20.5-12-34.6-12-34.6l24.6-76.8l42.5,13.6l16.7-74.3l-71.2-17.8
			c-25.3-6.3-50.7,10.2-55.2,35.9l-25,133.8l-6.8,32.1c-1.2,4.2,1.2,8.7,5.5,10c4.3,1.3,8.9-1.2,10.1-5.5 M440.8,407.3
			c-1.2,4.2,1.2,8.7,5.5,10c4.1,1.2,8.3-0.9,9.8-4.8c-0.9,4.1,1.5,8.2,5.5,9.4c1.2,0.4,2.4,0.4,3.6,0.2c2.8-0.4,5.3-2.4,6.3-5.2
			c-0.8,3.8,1.2,7.5,4.8,8.9c0.9,0.4,1.9,0.5,2.8,0.5c3.3,0,6.4-2.1,7.5-5.4l4.7-14.4h0 M496.9,386.4l-5.6,20.2"/>
		<polygon class="st2" points="566.7,293.2 562.9,213.9 583.4,219 		"/>
		<polygon class="st0" points="437.2,320.3 435.1,334 514.6,340.1 515.4,320.3 		"/>
		<line class="st20" x1="327.1" y1="839.4" x2="624.3" y2="839.4"/>
	</g>
</g>
<g id="Home_page">
</g>
</svg>
