<?xml version="1.0" encoding="utf-8"?>
<!-- Generator: Adobe Illustrator 26.0.2, SVG Export Plug-In . SVG Version: 6.00 Build 0)  -->
<svg version="1.1" id="Layer_1" xmlns="http://www.w3.org/2000/svg" xmlns:xlink="http://www.w3.org/1999/xlink" x="0px" y="0px"
	 viewBox="0 0 628 628" style="enable-background:new 0 0 628 628;" xml:space="preserve">
<style type="text/css">
	.st0{fill:#77B1FF;}
	.st1{clip-path:url(#SVGID_00000165194201554575966030000014951374187374073759_);}
	.st2{fill:none;stroke:#FFFFFF;stroke-width:2;stroke-linecap:round;stroke-linejoin:round;stroke-miterlimit:10;}
	.st3{fill:none;stroke:#29004E;stroke-width:2;stroke-linecap:round;stroke-linejoin:round;stroke-miterlimit:10;}
	.st4{fill:#29004E;stroke:#29004E;stroke-width:2;stroke-linecap:round;stroke-linejoin:round;stroke-miterlimit:10;}
	.st5{fill:#FDA132;}
	.st6{fill:none;stroke:#FDA132;stroke-width:6;stroke-miterlimit:10;}
	.st7{fill:none;stroke:#77B1FF;stroke-width:2;stroke-miterlimit:10;}
	.st8{fill:none;stroke:#77B1FF;stroke-width:2;stroke-linecap:round;stroke-linejoin:round;stroke-miterlimit:10;}
	.st9{opacity:0.2;fill:#29004E;}
	.st10{fill:none;stroke:#FDA132;stroke-width:2;stroke-linecap:round;stroke-linejoin:round;stroke-miterlimit:10;}
	.st11{display:none;fill:#FDA132;}
	.st12{opacity:0.2;fill:#29004E;stroke:#29004E;stroke-width:2;stroke-linecap:round;stroke-linejoin:round;stroke-miterlimit:10;}
</style>
<g>
	<polyline class="st3" points="210.4,412.9 210.4,304.2 210.4,248.4 230.9,248.4 477.5,248.4 477.5,474.3 477.5,521.8 438.4,521.8 
		210.4,521.8 210.4,466.1 	"/>
	<g>
		<path class="st3" d="M435.8,198v50.4h-35.1V198c0-31.3-25.4-56.7-56.7-56.7s-56.7,25.4-56.7,56.7v50.4h-35.1V198
			c0-50.6,41.2-91.8,91.8-91.8S435.8,147.4,435.8,198z"/>
	</g>
	<polygon class="st12" points="252.1,248.4 287.2,228.2 287.2,248.4 	"/>
	<polygon class="st12" points="400.7,248.4 435.8,228.2 435.8,248.4 	"/>
	<path class="st0" d="M344,271.5c0,0-25.6,56.1-91.8,63.4c0,0-2.6,95.4,91.8,156.6V271.5z"/>
	<path class="st0" d="M344,271.5c0,0,25.6,56.1,91.8,63.4c0,0,2.6,95.4-91.8,156.6V271.5z"/>
	<rect x="154.9" y="410.1" class="st5" width="76.1" height="76.1"/>
	<g>
		<path class="st3" d="M209.8,434.1c1.1,2.3,1.7,4.9,1.7,7.7v6.4"/>
		<g>
			<path class="st3" d="M181.4,469c-4.3-3.4-7-8.6-7-14.5v-12.7c0-4.5,1.6-8.6,4.2-11.8"/>
			<path class="st3" d="M211.5,454.5c0,10.2-8.3,18.5-18.5,18.5h0c-2.2,0-4.3-0.4-6.2-1.1"/>
			<path class="st3" d="M183.1,426c2.8-1.8,6.2-2.8,9.8-2.8h0c5.6,0,10.6,2.5,14,6.4"/>
			<path class="st3" d="M186.6,453.7v-11.2c0-3.5,2.8-6.3,6.3-6.3h0c3.5,0,6.3,2.8,6.3,6.3v8.9c0,1.6,1.3,3,3,3h0c1.6,0,3-1.3,3-3
				v-9.5c0-6.8-5.5-12.3-12.3-12.3h0c-6.8,0-12.3,5.5-12.3,12.3v12.5c0,3.4,1.4,6.5,3.6,8.7"/>
			<path class="st3" d="M192.9,441.1v7.9c0,6.4,3.8,12.2,9.7,14.7l0.2,0.1"/>
			<path class="st3" d="M188.1,460.5c1.6,3.5,4.5,6.3,8.2,7.9l0.2,0.1"/>
		</g>
	</g>
	<path class="st3" d="M210.2,420.6h6.2c2.3,0,4.1,1.8,4.1,4.1v6.2"/>
	<path class="st3" d="M210.2,475.7h6.2c2.3,0,4.1-1.8,4.1-4.1v-6.2"/>
	<path class="st3" d="M165.4,430.8v-6.2c0-2.3,1.8-4.1,4.1-4.1h6.2"/>
	<path class="st3" d="M165.4,465.4v6.2c0,2.3,1.8,4.1,4.1,4.1h6.2"/>
	<polygon class="st9" points="230.9,486.1 210.4,496.8 210.4,486.1 	"/>
	<line class="st3" x1="344" y1="271.5" x2="344" y2="491.5"/>
</g>
</svg>
