<?xml version="1.0" encoding="utf-8"?>
<!-- Generator: Adobe Illustrator 26.0.2, SVG Export Plug-In . SVG Version: 6.00 Build 0)  -->
<svg version="1.1" id="Layer_1" xmlns="http://www.w3.org/2000/svg" xmlns:xlink="http://www.w3.org/1999/xlink" x="0px" y="0px"
	 viewBox="0 0 628 628" style="enable-background:new 0 0 628 628;" xml:space="preserve">
<style type="text/css">
	.st0{fill:#77B1FF;}
	.st1{clip-path:url(#SVGID_00000173858241375304900950000002932671371171142840_);}
	.st2{fill:none;stroke:#FFFFFF;stroke-width:2;stroke-linecap:round;stroke-linejoin:round;stroke-miterlimit:10;}
	.st3{fill:none;stroke:#29004E;stroke-width:2;stroke-linecap:round;stroke-linejoin:round;stroke-miterlimit:10;}
	.st4{fill:#29004E;stroke:#29004E;stroke-width:2;stroke-linecap:round;stroke-linejoin:round;stroke-miterlimit:10;}
	.st5{fill:#FDA132;}
	.st6{fill:none;stroke:#FDA132;stroke-width:6;stroke-miterlimit:10;}
	.st7{fill:none;stroke:#77B1FF;stroke-width:2;stroke-miterlimit:10;}
	.st8{fill:none;stroke:#77B1FF;stroke-width:2;stroke-linecap:round;stroke-linejoin:round;stroke-miterlimit:10;}
	.st9{opacity:0.2;fill:#29004E;}
	.st10{fill:none;stroke:#FDA132;stroke-width:2;stroke-linecap:round;stroke-linejoin:round;stroke-miterlimit:10;}
	.st11{display:none;fill:#FDA132;}
	.st12{opacity:0.2;fill:#29004E;stroke:#29004E;stroke-width:2;stroke-linecap:round;stroke-linejoin:round;stroke-miterlimit:10;}
</style>
<g>
	<path class="st0" d="M299.9,197.2c-82,0-148.5,66.5-148.5,148.5s66.5,148.5,148.5,148.5s148.5-66.5,148.5-148.5
		S382,197.2,299.9,197.2z M299.9,464.4c-65.5,0-118.7-53.1-118.7-118.7S234.4,227,299.9,227s118.7,53.1,118.7,118.7
		S365.5,464.4,299.9,464.4z"/>
	<circle class="st7" cx="299.9" cy="345.7" r="11.8"/>
	<line class="st7" x1="307.3" y1="336.5" x2="378.1" y2="247.9"/>
	<line class="st7" x1="299.9" y1="470.2" x2="299.9" y2="431.7"/>
	<line class="st7" x1="299.9" y1="221.2" x2="299.9" y2="259.7"/>
	<line class="st7" x1="175.4" y1="345.7" x2="213.9" y2="345.7"/>
	<line class="st7" x1="424.4" y1="345.7" x2="386" y2="345.7"/>
	
		<rect x="391.2" y="223.3" transform="matrix(0.7229 0.691 -0.691 0.7229 274.2022 -216.5881)" class="st0" width="31.9" height="20.6"/>
	
		<rect x="393" y="204.2" transform="matrix(0.7229 0.691 -0.691 0.7229 267.3057 -231.7636)" class="st0" width="59.1" height="26.4"/>
	<rect x="277.1" y="164.6" class="st0" width="45.7" height="36.5"/>
	<rect x="259.5" y="133.8" class="st8" width="80.8" height="30.8"/>
	<line class="st7" x1="299.9" y1="133.8" x2="299.9" y2="164.6"/>
	<line class="st7" x1="277.1" y1="133.8" x2="277.1" y2="164.6"/>
	<line class="st7" x1="322.8" y1="133.8" x2="322.8" y2="164.6"/>
	<circle class="st0" cx="299.9" cy="410.1" r="6.5"/>
	<line class="st7" x1="299.9" y1="376.7" x2="299.9" y2="389.3"/>
	<line class="st7" x1="287.4" y1="379.1" x2="292.1" y2="390.8"/>
	<line class="st7" x1="276.7" y1="386" x2="285.5" y2="395.1"/>
	<line class="st7" x1="269.4" y1="396.4" x2="280.9" y2="401.5"/>
	<line class="st7" x1="312.4" y1="379.1" x2="307.7" y2="390.8"/>
	<line class="st7" x1="323.1" y1="386" x2="314.4" y2="395.1"/>
	<line class="st7" x1="330.4" y1="396.4" x2="299.9" y2="410.1"/>
	<path class="st3" d="M299.9,197.2c-21.3,0-41.6,4.5-59.9,12.6"/>
	<path class="st3" d="M405.2,240.9c-10.1-10.2-21.7-18.9-34.5-25.8"/>
	<path class="st3" d="M441.2,299.6c-4.4-13.5-10.7-26.2-18.6-37.7"/>
	<path class="st8" d="M405.2,486.8c7.3-5.5,14.3-11.5,20.7-18.1"/>
	<path class="st8" d="M442.4,449c16.2-22.3,27.2-48.4,31.5-76.8"/>
</g>
</svg>
