<?xml version="1.0" encoding="utf-8"?>
<!-- Generator: Adobe Illustrator 26.0.2, SVG Export Plug-In . SVG Version: 6.00 Build 0)  -->
<svg version="1.1" xmlns="http://www.w3.org/2000/svg" xmlns:xlink="http://www.w3.org/1999/xlink" x="0px" y="0px"
	 viewBox="0 0 1920 1080" style="enable-background:new 0 0 1920 1080;" xml:space="preserve">
<style type="text/css">
	.st0{fill:#84B0FB;}
	.st1{fill:none;stroke:#25014B;stroke-width:2;stroke-linecap:round;stroke-linejoin:round;stroke-miterlimit:10;}
	.st2{opacity:0.2;fill:#25014B;stroke:#25014B;stroke-width:2;stroke-linecap:round;stroke-linejoin:round;stroke-miterlimit:10;}
	.st3{fill:#F1A64C;}
	.st4{clip-path:url(#SVGID_00000123426807594991406440000003543630609663674241_);}
	.st5{fill:none;stroke:#84B0FB;stroke-width:2;stroke-linecap:round;stroke-linejoin:round;stroke-miterlimit:10;}
	.st6{fill:#25014B;stroke:#25014B;stroke-width:2;stroke-linecap:round;stroke-linejoin:round;stroke-miterlimit:10;}
	.st7{fill:none;stroke:#F1A64C;stroke-width:2;stroke-linecap:round;stroke-linejoin:round;stroke-miterlimit:10;}
	.st8{opacity:0.2;fill:#25014B;}
	.st9{fill:#FFFFFF;stroke:#FFFFFF;stroke-width:2;stroke-linecap:round;stroke-linejoin:round;stroke-miterlimit:10;}
	.st10{opacity:0.2;}
	.st11{fill:#25014B;}
	.st12{clip-path:url(#SVGID_00000130612423591242561950000017390825334920993702_);}
	.st13{fill:#0656FD;stroke:#0656FD;stroke-miterlimit:10;}
	.st14{fill:none;stroke:#0656FD;stroke-width:10;stroke-miterlimit:10;}
	.st15{fill:none;stroke:#FFFFFF;stroke-width:2;stroke-linecap:round;stroke-linejoin:round;stroke-miterlimit:10;}
	.st16{fill:none;stroke:#84B0FB;stroke-width:2;stroke-miterlimit:10;}
	.st17{clip-path:url(#SVGID_00000169548437149613230090000006826182935689159066_);}
	.st18{clip-path:url(#SVGID_00000080187710175424324380000016979011521447868841_);}
	.st19{fill:none;stroke:#F1A64C;stroke-width:10;stroke-miterlimit:10;}
	
		.st20{fill:none;stroke:#25014B;stroke-width:2;stroke-linecap:round;stroke-linejoin:round;stroke-miterlimit:10;stroke-dasharray:20;}
	.st21{clip-path:url(#SVGID_00000120547111612501398070000014313829057075122055_);}
	.st22{fill:none;stroke:#F1A64C;stroke-width:6;stroke-miterlimit:10;}
	.st23{fill:none;stroke:#25014B;stroke-width:2;stroke-linecap:round;stroke-linejoin:round;}
	
		.st24{fill:none;stroke:#25014B;stroke-width:11;stroke-linecap:round;stroke-linejoin:round;stroke-miterlimit:10;stroke-dasharray:0,28,0,0;}
</style>
<g id="Safety">
</g>
<g id="Significant_cost_savings">
</g>
<g id="Successful_result">
</g>
<g id="Speed">
</g>
<g id="Home_page">
	<g>
		<g>
			<g>
				<path class="st0" d="M456.1,737.1c-0.3,1.4-0.5,2.7-0.8,3.9c-0.2,1.2-0.6,2.3-0.8,3.3c-0.3,1-0.5,1.9-0.7,2.7
					c-0.2,0.7-0.5,1.3-0.6,1.8c0.1-0.5-0.2-2,0-2.4l-1.1,3.9l1-1.9c-0.4,2.3-3.2,9.8-7.5,16.6c-4.2,6.8-9.9,12.5-11.7,14.3l1.1-1
					c-0.7,0.7-1.4,1.4-2,2c-0.7,0.6-1.3,1.2-2,1.8c-1.4,1.2-2.9,2.4-4.8,3.8l2.3-1.9c-1.1,0.4-3,1.9-5.4,3.5l1.6-0.9
					c-2.4,2-4.7,3.3-8.9,5.7l1.6-0.8c-0.8,0.6-2.1,1.2-3.3,1.9c1.1-0.7,0.7-0.5-0.1-0.2c-0.8,0.4-1.9,0.9-2.3,1
					c1.6-0.4-2.6,1.7-3.9,2.3c-0.4,0-1.3,0.6-2.3,1c-0.9,0.5-1.8,0.9-2,0.8c-1.1,0.6-0.4,0.4,0.1,0.2c-1.4,0.6-2.7,1.1-4.2,1.8
					c-0.8,0.4-1.7,0.8-2.7,1.2c-1,0.4-2.2,0.9-3.5,1.3c-2.3,0.8-3.6,1.2-4.3,1.4c-0.7,0.2-0.9,0.2-1.2,0.3c-0.5,0.1-1,0.4-6.3,2
					l-0.6,0.1l-0.3,0c-0.1,0-0.1,0-0.1,0c0,0.1,0,0.2,0.1,0.3c-0.1-0.2-0.3-0.2-0.4-0.2c-0.1,0-0.2,0-0.7-0.2c0.1,0.1,0,0.1-0.1,0.1
					c-0.1,0-0.2,0-0.1,0.1c0.9,0.2,0.7,0.1,1.1,0.2c0,0,0,0,0,0c0,0,0,0,0.1,0.1c0.9,0.5,1.8,1.1,2.7,1.6c2.2,1.3,4.3,2.6,6.3,3.9
					c2,1.4,4,2.7,5.8,4c0.9,0.7,1.8,1.3,2.6,1.9c0.8,0.6,1.6,1.3,2.3,1.8c0.8,0.6,1.5,1.1,2.1,1.7c0.6,0.5,1.2,1.1,1.8,1.5
					c1.1,0.9,2,1.7,2.7,2.3c-1.1-0.9-1-0.6,0,0.4l2.6,2.2c-0.2-0.3-0.9-1-0.5-0.7c1.1,0.9,2.3,2.2,3,2.5c-0.2,0,1.4,1.7,1.4,1.7
					c0.7,0.5,2,1.9,3.4,3.3c1.3,1.5,2.6,3,3.5,3.5c3.2,3.6,0.5,1.1,3.8,5.1l0.5,0c0.1,0.1,1.1,1.5,2.7,3.7c1.6,2.1,3.4,5,5.3,7.9
					c0.9,1.5,1.7,3,2.5,4.4c0.4,0.7,0.8,1.4,1.1,2c0.3,0.7,0.6,1.3,0.9,1.8c1,2.1,1.7,3.5,1.8,3.5c0.1,0.4,0.2,0.8,0.5,2.1
					c0.5,1.1,0.9,2.3,1.4,3.4c0.4,1.1,1,2.2,1.3,3.4c0.4,1.2,0.8,2.4,1.1,3.6c0.4,1.2,0.8,2.4,1.1,3.8c-0.2-0.5-0.3-1-0.3-0.6
					c2.3,8.6,3.1,17.4,3.1,26c0,4.5-0.3,8.9-1,13.3H436c0.3-1.7,0.4-3.2,0.5-4.6c0.1-1.3,0.4-3.7,0.4-6.2c0-2.5,0.1-5.2-0.2-7
					l0.2,0.2c-0.1-1.1-0.2-2.3-0.3-3.5c-0.1-1.2-0.2-2.5-0.5-3.6c-0.4-2.3-0.8-4.5-1.1-5.8l0.1,0c-0.4-1.7-1.7-6.1-1.9-5.5
					c-0.1-0.5-0.2-1-0.2-1.3c-0.1-0.4-0.2-0.7-0.2-1c-0.1-0.6-0.2-1.1-0.3-1.6c-0.2-1-0.5-2.1-1.5-4.6c0.1,0.3,0.2,0.5,0.2,0.8
					c-0.3-0.7-0.7-1.8-1.2-3.1c-0.5-1.3-1.1-2.9-1.9-4.6c-0.4-0.8-0.8-1.7-1.2-2.7c-0.4-0.9-0.9-1.9-1.4-2.8c-0.5-0.9-1-1.9-1.6-2.9
					c-0.3-0.5-0.5-1-0.8-1.5c-0.3-0.5-0.6-0.9-0.9-1.4c-4.7-7.6-10.5-14.4-12.5-16.2l0.4,0.3c-0.9-0.9-1.8-1.9-2.8-2.8c-1-1-2-2-3-3
					c-1-1-2.1-1.9-3.1-2.8c-0.5-0.4-1.1-0.9-1.6-1.3c-0.5-0.4-1.1-0.8-1.6-1.2c-2.5-2.2-8.1-6.9-15.2-11.5c-1.8-1.1-3.6-2.3-5.5-3.5
					l-1.4-0.9c-0.2-0.1-0.7-0.4-1.1-0.6l-1.2-0.7l0,0l2.1-18.3c0.4-0.1,0.8-0.2,1.2-0.3c0.2-0.1,0.4-0.1,0.7-0.2
					c0.1,0,0.2-0.1,0.4-0.1c0.4-0.1,0.8-0.2,1.1-0.3c0.7-0.2,1.1-0.3,1.4-0.4c0.6-0.2,0.7-0.3,0.8-0.3c0.1-0.1,0.3-0.1,4.7-1.5
					c1.2-0.4,1.7-0.7,0.3-0.4c2.9-0.8,6.5-2.2,9.2-3c4.3-1.8,9.6-4.2,15-7.3c5.4-3.2,11.1-7,16-11.6c5-4.5,9.2-9.7,12.3-14.8
					c3.1-5.1,5-10.2,6.2-14.4l-0.1,0.4c0.8-2.7,2-7.5,2.3-13.4c0.1-1.5,0.1-3.1,0-4.7c-0.1-3.4-0.6-6.9-1.6-10.4
					c-0.3-1.3-0.8-2.6-1.3-3.9c-0.3-0.8-0.6-1.6-1-2.3c-0.4-0.8-0.7-1.5-1-2.3c-0.8-1.5-1.6-2.9-2.5-4.3c-0.8-1.4-1.9-2.6-2.8-3.9
					c-0.5-0.6-1-1.2-1.5-1.8c-0.5-0.6-1-1.1-1.5-1.6c-4-4.2-8-7.1-10.3-8.6l-2-1c-0.9-0.7-1.9-1.2-3-1.9c-1.1-0.6-2.3-1.2-3.7-2
					c-1.6-0.6-1-0.2-0.3,0.2c-2.5-1.3-5.4-2.2-6.8-2.8l0.5,0.1c-4.1-1.6-6.8-1.6-11.4-2.6l0,0c-1.9-0.4-4.2-0.4-5.9-0.4
					c-2-0.2-0.7-0.3-1.5-0.4l0.8-7.1c1.2-1.1,2.2-1.8,2.4-1.9c2.3-0.1,5.2,0.3,8,0.8c1.4,0.3,2.9,0.6,4.3,0.9
					c1.4,0.4,2.8,0.6,4.1,0.9c-1.2-0.5,2.9,0.9,1.8,0.3c0.4,0.2,0.9,0.3,1.4,0.5c0.6,0.2,1.1,0.4,1.6,0.6c-1.4-0.5-2.9-0.9-3-0.8
					c0.4,0.1,0.8,0.3,1.3,0.4c0.4,0.2,0.8,0.3,1.3,0.5c0.9,0.3,1.7,0.6,2.6,1c1.7,0.7,3.4,1.4,5,2.3c3.3,1.6,6.5,3.6,9.4,5.6
					c1.7,1.3,2.9,2,3.8,2.6c0.9,0.5,1.5,0.8,1.8,1.1l-0.3,0.1c1.1,0.9,2.1,1.9,3.2,2.9c-0.4-0.7,0.4-0.4-0.9-1.8
					c0.2,0,1.1,0.9,2.1,1.9c-0.4-0.4-1.1-0.9-0.6-0.2c1.2,1.2,1.4,1.4,1.7,1.6c0.1,0.1,0.3,0.2,0.6,0.5c0.3,0.3,0.8,0.7,1.4,1.4
					c-0.1,0-2-1.9,0,0.7c0.3,0.4,0.7,0.9,1.2,1.5c0.5,0.6,1,1.4,1.6,2.2c0.3,0.4,0.6,0.8,1,1.3c0.3,0.5,0.6,1,1,1.5
					c0.7,1,1.4,2.1,2,3.4c1.8,3.3,3.5,7.3,4.8,11.6c0.6,2.1,1.1,4.3,1.5,6.5c0.2,1.4,0.4,2.8,0.5,4.1
					C457.2,727.5,456.8,732.7,456.1,737.1z"/>
			</g>
			<g>
				<path class="st0" d="M527.7,738.4c-0.7,0.3-1.6,1.1-2.5,1.8C526,739.8,526.7,739.3,527.7,738.4z"/>
				<path class="st0" d="M525.2,740.2C525.2,740.2,525.2,740.3,525.2,740.2C525.2,740.2,525.2,740.2,525.2,740.2L525.2,740.2z"/>
				<path class="st0" d="M509.7,932.1c-0.1-0.2-0.3-0.5-0.5-0.7C509.4,931.6,509.5,931.8,509.7,932.1z"/>
				<path class="st0" d="M526.6,751.7L526.6,751.7c-1.8,1.7-3.5,3.3-4.7,4.6c-0.5,0.5-1.3,1.5-2.2,2.4c-0.8,1-1.7,2.1-2.3,2.9
					l-0.1-0.2c-1.5,1.8-3.2,4.5-4,5.7l0-0.1c-0.5,0.8-1.8,2.8-1.3,2.8c-1.5,1.7-1.5,1.2-3,3.6l0.3-0.3c-0.9,1.3-3.6,5.2-6.1,9.2
					c-2.5,4-4.7,8.1-5.3,9.3l0.1-0.3c-0.5,1.2-1.1,2.5-1.8,3.9c-0.6,1.3-1.3,2.7-1.6,4c-0.5,1.1-1.5,3.1-2.6,5.7
					c-0.5,1.3-1,2.7-1.6,4.2c-0.3,0.7-0.6,1.5-0.9,2.2c-0.2,0.8-0.5,1.6-0.8,2.3c-0.5,1.6-1,3.2-1.5,4.7c-0.4,1.6-0.8,3.1-1.1,4.4
					c-0.8,2.8-1.1,5.1-1.3,6.5c-0.4,2.4-0.3,2.5-0.3,2.6c0,0.1,0,0.1,0,0.4c0,0.3-0.2,0.9-0.3,2.1c-0.1,0.7,0,1,0.2,0.2
					c-0.3,1.5-0.5,3.6-0.9,5c0,0.6-0.1,1.2-0.1,1.9c0,0.7-0.1,1.4-0.1,2.1c-0.1,1.5-0.1,3-0.2,4.7c-0.1,0.8,0,1.7,0,2.5
					c0,0.9,0,1.7,0,2.6c0,0.9,0,1.8,0.1,2.6c0,0.9,0,1.8,0.1,2.7c0.2,1.8,0.3,3.6,0.5,5.3c0.1,0.9,0.1,1.7,0.2,2.6
					c0.1,0.8,0.3,1.7,0.4,2.5c0.5,3.2,0.9,6.1,1.5,8.4l-0.1-0.2c0.4,1.5,0.9,4.1,1.7,7.2c0.5,1.5,1,3.2,1.5,4.9
					c0.3,0.9,0.5,1.8,0.8,2.6c0.1,0.4,0.3,0.9,0.4,1.3c0.1,0.4,0.3,0.9,0.5,1.3c0.7,1.8,1.4,3.5,2,5.2c0.7,1.7,1.2,3.3,2,4.8
					c1.3,2.9,2.5,5.3,3.1,6.7l0.7,1c0.4,1.2,1.1,2.2,1.8,3.8c0.5,0.8,0.4,0.4,0.3,0c0.6,1.4,1.5,2.8,1.8,3.6l-0.2-0.2
					c0.5,1.1,1,1.9,1.5,2.7c0,0,0,0,0,0h-11c-0.5-0.9-1-1.8-1.5-2.8c-0.4-0.8-0.9-1.7-1.3-2.5c-0.4-0.8-0.8-1.7-1.1-2.5
					c-0.8-2-1.6-2.4-1.8-2.8l0.2,0l-0.9-2c0,0.4-0.5,0.2-0.2,1.1c-0.1,0-0.3-0.7-0.7-1.3c0.1,0.2,0.5,0.7,0.4,0.2
					c-0.7-1.5-0.4-0.4-1.3-2.2c0,0,0.9,1.1,0.3-0.4c-0.4-0.9-1.1-3-2-5.6c-0.5-1.3-1-2.7-1.6-4.2c-0.3-0.8-0.5-1.5-0.8-2.3
					c-0.2-0.8-0.5-1.6-0.7-2.4c-2.1-6.3-3.4-12.9-3.9-15.1c0.1,0.2,0.9,0.7,1,0.9c-0.2-0.6-0.5-1.2-0.6-1.9c0,0.4,0,0.7,0,1.1
					c-0.3-0.6-0.6-1.8-0.9-3.4c-0.3-1.6-0.7-3.6-1.1-5.5c-0.1-0.5-0.2-1-0.3-1.5c-0.1-0.5-0.1-1-0.2-1.5c-0.1-1-0.2-1.9-0.4-2.7
					c-0.2-1.7-0.4-3-0.5-3.6l0,0.7c-0.4-2-0.4-3.5-0.4-6l0.1,1.5c0.4-0.6,0.3-1.8,0.3-3.3l-0.1,0.9c-0.2-0.8-0.2-1.5-0.2-2.4
					c0-0.8,0-1.8,0.1-3l-0.2,0.9c0-0.5,0-1.2,0.1-2c0.1,1.3,0.3-0.9,0.5-1.3c-0.4,0.8-0.2-1.6-0.2-2.4c0.3-0.4,0-2.3,0.2-2.4
					c0-0.6-0.2-0.3-0.2,0c0.2-1.6,0.1-3,0.3-5.9c0.4-2.5,0.4-2.7,0.5-2.9c0-0.2,0.1-0.6,0.4-3.4l0.3-0.6l-0.2-0.4
					c0.7-0.9,0.8-3.3,1.4-3.7c-0.1-0.6,0.3-1.1,0.4-2.5c-0.5,0.5-0.7,2-1.1,2.6c0.2-1.2,0.8-3.5,1.5-6.2c0.2-0.7,0.4-1.4,0.5-2.2
					c0.2-0.7,0.5-1.5,0.7-2.3c0.5-1.5,1-3.1,1.5-4.8c0.5-1.6,1.2-3.1,1.8-4.6c0.6-1.5,1.1-2.9,1.7-4.2c1.2-2.5,2.1-4.6,2.5-5.6
					c-0.3,0.7,0,0.6,0.3,0l0.7-1.6c-0.2,0.2-0.4,0.6-0.3,0.3c0.3-0.7,0.9-1.4,0.7-1.9c0.1,0.1,0.7-0.9,0.7-0.9c0-0.5,0.6-1.3,1-2.2
					c0.5-0.9,1-1.8,1-2.3c1.1-2.2,0.6-0.3,1.9-2.7l-0.3-0.3c0.1,0,0.5-0.9,1.2-2c0.7-1.2,1.6-2.7,2.5-4.2c1.8-2.9,3.6-5.7,3.5-5.7
					c0.2-0.1,0.4-0.2,0.9-0.7c1.4-2.1,2.7-4,4.3-6.3c-0.1,0.2-0.3,0.4-0.1,0.3c5.3-7.2,11.1-13.6,17.6-19.8c1.2-1.2,0.5,0,1.5-1
					c0.7-0.6,1.3-1.4,1.9-2c-0.2,0.1-0.6,0.4-0.4,0.2c0.4-0.3,0.8-0.6,1.3-1c-0.3,0.5-1,1.2,0.1,0.3l-1.4,1.3
					c0.1,0.2,0.4-0.4,1.5-1.3l0.9-0.8l0.1,0.2c0.1,0,0.1-0.1,0.2-0.1L526.6,751.7z"/>
			</g>
			<g>
				<path class="st0" d="M523.7,652.6c-0.1,0.2-0.3,0.4-0.4,0.6C523.4,653,523.6,652.8,523.7,652.6z"/>
				<path class="st0" d="M524.5,668.6c-0.3,0.2-0.7,0.8-0.9,1.1c0.3-0.6,0.7-1.1,0.6-1.3c-1,1.2-2,2.5-3,3.8c-1,1.3-2,2.6-3.1,3.7
					c-1.3,1.3-1.3,2.2-1.5,2.5l-0.1-0.2l-1.3,1.4c0.4-0.1,0.4,0.4,1-0.2c0.1,0.1-0.4,0.5-0.8,1c0.1-0.2,0.3-0.7,0-0.4
					c-1,1.1-0.2,0.5-1.2,1.9c0-0.1,0.5-1.1-0.5-0.2c-0.6,0.7-1.9,2-3.6,3.7c-1.7,1.7-3.7,3.9-5.9,5.8c-1.1,1-2.2,2-3.2,2.9
					c-0.5,0.5-1,0.9-1.5,1.4c-0.5,0.4-1,0.8-1.5,1.2c-1.9,1.5-3.4,2.7-4.1,3.4c0.1-0.2,0.1-1,0.2-1.2l-1.2,1.3l0.9-0.4
					c-0.3,0.4-1.1,1.2-2.2,2.1c-1.1,0.9-2.5,2-3.9,3c-0.7,0.5-1.4,1.1-2,1.6c-0.7,0.5-1.4,0.9-2,1.4c-1.2,0.8-2.2,1.5-2.6,1.9
					l0.6-0.3c-0.7,0.6-1.3,1-2,1.5c-0.7,0.5-1.4,0.9-2.4,1.4l1.1-0.7c-0.6-0.1-1.6,0.4-2.7,1.1l0.8-0.2c-1.1,1-2.2,1.2-4.1,2.3
					l0.8-0.3c-0.4,0.3-0.9,0.5-1.5,0.8c0.5-0.3,0.3-0.3-0.1-0.2c-0.4,0.1-0.9,0.3-1.1,0.3c0.8,0-1.1,0.9-1.7,1.2
					c-0.4-0.1-1.7,1-2,0.8c-0.5,0.3-0.1,0.3,0.1,0.2c-1.3,0.5-2.3,1.4-4.6,2.3c-4.2,1.5-0.6,0-5.2,2.1h-0.6l-0.2,0.4
					c-1-0.2-2.9,0.8-3.4,0.4c-0.4,0.4-1,0.3-2,0.8c0.6,0.2,1.8-0.4,2.4-0.3c-0.5,0.2-1.2,0.4-2.2,0.7c-0.9,0.3-2,0.6-3.2,0.9
					c-0.2,0-0.3,0.1-0.5,0.1c-1.1,0.3-2.2,0.6-3.4,0.9c-1.4,0.3-2.8,0.6-4.3,0.9c-5.8,1.2-11.6,1.7-13.6,1.9
					c0.6-0.1,0.5-0.3-0.1-0.3l-1.5,0.3c0.2,0.1,0.6,0,0.4,0.1c-0.7,0.2-1.4,0-1.7,0.3c0-0.2-1-0.1-1-0.2c-0.7,0.3-3.5-0.1-4.3,0.5
					c-2.2,0.2-0.5-0.3-2.9-0.3l-0.2,0.4c0,0-0.8,0-2,0c-1.2,0-2.7,0-4.3,0c-3,0-5.9-0.2-5.9-0.1c-0.2-0.1-0.3-0.2-0.9-0.4
					c-2.2,0-4.3-0.3-6.7-0.4c0.2,0,0.5,0,0.3-0.1c-3.9-0.4-7.6-1-11.3-1.8l1.1-9.5c0.9,0.2,1.8,0.3,2.5,0.3l-0.1,0.2
					c2,0.3,4.8,0.3,6,0.4l0,0.1c0.8,0.1,2.9,0.1,2.7-0.3c1.9,0.3,1.5,0.7,4,0.7l-0.4-0.1c0.7,0,2.1,0.1,3.8,0.2
					c0.9,0,1.8,0.1,2.8,0.2c1,0,2,0.1,3,0.1c2.1,0.1,4.1,0,5.8,0c1.7,0,3-0.1,3.6-0.2l-0.2,0.1c1.1-0.2,2.4-0.3,3.7-0.4
					c1.3-0.1,2.6-0.3,3.7-0.6c1.1-0.1,3-0.2,5.4-0.6c1.2-0.2,2.5-0.4,3.9-0.6c1.4-0.3,2.8-0.5,4.2-0.8c0.7-0.1,1.4-0.3,2.1-0.4
					c0.7-0.2,1.4-0.4,2.1-0.5c0.8-0.2,1.6-0.4,2.4-0.6c0.5-0.1,1-0.3,1.5-0.4c2.4-0.7,4.3-1.4,5.4-1.8c2-0.7,2-0.8,2.1-0.9
					c0,0,0-0.1,0.1-0.1c0.2-0.1,0.7-0.3,1.9-0.8c0.5-0.2,0.7-0.5,0-0.3c1.3-0.4,3-1.1,4.2-1.4c1.9-1,4.3-2,6.8-3.4
					c1.3-0.7,2.6-1.4,3.9-2.2c0.7-0.4,1.4-0.7,2-1.1c0.6-0.4,1.3-0.8,2-1.2c1.3-0.8,2.6-1.6,3.9-2.4c1.3-0.8,2.5-1.7,3.6-2.6
					c1.2-0.8,2.3-1.6,3.3-2.3c1-0.8,1.9-1.5,2.6-2.2l-0.1,0.2c0.5-0.4,1.2-1,2.1-1.7c0.8-0.7,1.9-1.5,2.9-2.4c1-1,2.2-2,3.3-3.1
					c1.2-1.1,2.4-2.2,3.5-3.4c1.1-1.2,2.3-2.4,3.4-3.5c0.5-0.6,1.1-1.1,1.6-1.7c0.5-0.6,1-1.1,1.4-1.7c1.8-2.1,3.3-3.9,4.2-4.9
					c0.2-0.3,0.3-0.6,0.5-1c0.8-0.8,1.4-1.7,2.4-2.8c0.5-0.6,0.1-0.5-0.2-0.2c0.9-1,1.7-2.2,2.2-2.7l-0.1,0.2
					c0.7-0.8,1.2-1.5,1.6-2.2c0.4-0.8,0.8-1.5,1.6-2.4l0,0c0.7-0.7,1.1-1.7,1.5-2.4c0.8-0.9,0.3,0.1,0.9-0.6c0-0.5,0.7-1.2,1.3-2.1
					c-0.6,0.9-1.3,2-1,2.1c0.8-1.2,0.4-0.1,1.1-1.3l-0.2-0.3c0.3-0.6,1-1.5,1.2-1.6c-0.1,0.1,1-1.4,0.7-0.9c0.2,0.1-0.5,3.4,0.4,4.9
					v0l0.1,10.3c-0.3,0.5-0.6,1-0.8,1.4C525.1,667.5,523.8,669.1,524.5,668.6z"/>
			</g>
			<g>
				<path class="st0" d="M501.4,538.5c-0.1,0.2-0.1,0.4-0.2,0.6C501.3,538.9,501.4,538.7,501.4,538.5z"/>
				<path class="st0" d="M506.6,551.9c-0.2,0.2-0.4,0.7-0.6,1.1c0.2-0.5,0.3-1,0.2-1.1c-1.1,2.3-2.2,4.9-3.4,7.1
					c-0.8,1.3-0.5,2-0.7,2.3l-0.2-0.2l-0.8,1.3c0.3-0.1,0.5,0.3,0.9-0.3c0.1,0.1-0.2,0.5-0.4,1c0.1-0.2,0.1-0.6-0.1-0.3
					c-0.6,1,0,0.4-0.6,1.7c0,0,0.2-1-0.5-0.1c-0.7,1.3-3.2,5.3-5.8,9.4c-1.4,2-2.8,4-3.9,5.6c-1.2,1.6-2.2,2.8-2.7,3.4
					c0.1-0.2-0.2-1-0.1-1.2l-0.7,1.3l0.7-0.4c-0.4,0.8-2,3.2-3.9,5.4c-0.9,1.1-1.8,2.2-2.6,3.2c-0.8,0.9-1.5,1.6-1.8,2l0.4-0.4
					c-1,1.2-1.7,1.9-3,3.1l0.7-0.8c-0.6,0-1.2,0.7-2,1.3l0.6-0.3c-0.7,1-1.6,1.4-3,2.6l0.6-0.4c-0.2,0.3-0.7,0.6-1.1,0.9
					c0.6-0.7-0.6,0.2-1,0.3c0.7-0.1-0.7,1-1.1,1.3c-0.4-0.1-1.2,1.1-1.5,0.9c-0.4,0.3,0,0.3,0.2,0.2c-1,0.6-1.6,1.5-3.4,2.7
					c-3.2,1.9-0.5,0-4,2.5l-0.5,0.1l-0.1,0.4c-0.9-0.1-2.2,1-2.8,0.7c-0.3,0.4-0.8,0.3-1.6,1c0.5,0.1,1.5-0.5,2-0.5
					c-0.8,0.4-2.3,1.3-4.2,2.1c-1.9,0.8-4.2,1.9-6.5,2.6c-1.2,0.4-2.3,0.8-3.4,1.2c-1.1,0.3-2.2,0.6-3.2,0.9c-2,0.6-3.6,0.9-4.4,1.1
					c0.5-0.2,0.4-0.3-0.2-0.3l-1.2,0.4c0.2,0.1,0.5,0,0.3,0.1c-0.5,0.2-1.2,0.1-1.4,0.5c0-0.2-0.8,0-0.8-0.1
					c-0.5,0.4-2.9,0.2-3.5,0.9c-1.8,0.4-0.5-0.3-2.4,0l-0.1,0.4c0,0-0.7,0.1-1.7,0.2c-1,0.2-2.3,0.3-3.5,0.4
					c-2.5,0.3-4.9,0.4-4.9,0.5c-0.2-0.1-0.3-0.2-0.8-0.3c-1.8,0.2-3.6,0.1-5.5,0.2c0.2,0,0.4,0,0.2-0.1c-3.3,0-6.5-0.2-9.7-0.7
					c-2-0.2-4.1-0.6-6.1-1l1.1-9.4c1,0.2,2,0.4,2.8,0.6c1,0.1,3.5,0.5,4.9,0.4l-0.1,0.2c1.6,0.1,3.9-0.1,4.9-0.2l0,0.1
					c0.7,0,2.4-0.2,2.2-0.6c1.6,0.1,1.3,0.5,3.3,0.3l-0.3-0.1c0.6,0,1.7-0.1,3.1-0.1c1.4,0,3-0.2,4.7-0.3c3.3-0.3,6.5-0.7,7.5-1
					l-0.2,0.1c0.9-0.3,1.9-0.4,2.9-0.6c1-0.3,2-0.5,2.9-0.9c0.4-0.1,1-0.2,1.8-0.3c0.7-0.2,1.6-0.4,2.5-0.7c1.9-0.5,4-1.3,6.2-2
					c1.1-0.4,2.1-0.9,3.2-1.3c1-0.5,2-0.8,2.9-1.3c1.8-0.9,3.2-1.7,4-2.2c2.8-1.8,0.1-0.4,2.9-2.1c0.4-0.2,0.5-0.5-0.1-0.3
					c0.5-0.3,1-0.6,1.6-0.9c0.5-0.3,1.1-0.7,1.6-0.9c1.3-1.1,3.1-2.2,4.8-3.8c0.9-0.7,1.8-1.5,2.8-2.3c0.9-0.8,1.8-1.7,2.7-2.6
					c3.6-3.5,6.9-7.3,8.9-9.9l-0.1,0.2c0.3-0.4,0.8-1,1.4-1.7c0.5-0.7,1.1-1.6,1.8-2.5c0.6-0.9,1.3-2,2.1-3c0.2-0.3,0.4-0.5,0.5-0.8
					c0.2-0.3,0.3-0.6,0.5-0.8c0.3-0.6,0.7-1.2,1-1.7c0.7-1.2,1.4-2.3,2-3.4c0.7-1.1,1.2-2.2,1.7-3.2c1.1-2,2-3.7,2.5-4.7l0.1-0.9
					c0.6-0.8,0.8-1.6,1.5-2.7c0.2-0.6,0-0.4-0.2-0.2c0.2-0.4,0.4-0.8,0.6-1.2c3.7,0,7.5-0.5,11.1-1.5c-0.5,1.1-1,2.4-1.2,3.5
					C507,550.8,506.2,552.3,506.6,551.9z"/>
			</g>
			<g>
				<path class="st0" d="M534.6,482.8c-0.4,0.7-0.7,1.9-0.9,3C534,484.9,534.3,484,534.6,482.8z"/>
				<path class="st0" d="M533.6,485.8C533.6,485.8,533.6,485.8,533.6,485.8C533.6,485.8,533.6,485.8,533.6,485.8L533.6,485.8z"/>
				<path class="st0" d="M659.6,596.8c-0.3,0.1-0.6,0.1-0.9,0.2C659,597,659.3,596.9,659.6,596.8z"/>
				<path class="st0" d="M647,609.6c-0.5,0-1.2,0.1-1.7,0.2c0.7-0.2,1.5-0.4,1.5-0.5c-1.8,0.3-3.7,0.6-5.5,0.9
					c-1.9,0.3-3.8,0.5-5.6,0.7c-2.2,0.2-2.8,0.8-3.3,0.9l0.1-0.2l-2.2,0.2c0.4,0.2,0,0.6,1,0.6c0,0.1-0.8,0.1-1.5,0.2
					c0.2-0.1,0.8-0.3,0.3-0.3c-1.7,0.1-0.5,0.2-2.5,0.5c0-0.1,1.3-0.5-0.3-0.5c-1,0-3.2,0.2-6.1,0.3c-1.4,0-3,0.1-4.6,0.1
					c-1.6,0.1-3.4,0-5.1,0c-6.8-0.1-13.8-1-16-1.4c0.3,0,1-0.6,1.3-0.6l-2.1-0.1l1.1,0.5c-0.3,0-0.8,0-1.4-0.1
					c-0.6-0.1-1.4-0.2-2.2-0.3c-0.8-0.1-1.8-0.3-2.8-0.4c-1-0.2-2-0.4-3-0.6c-0.5-0.1-1-0.2-1.5-0.3c-0.5-0.1-1-0.3-1.5-0.4
					c-1-0.3-1.9-0.5-2.8-0.8c-1.7-0.5-3-1-3.7-1.1l0.7,0.3c-0.5-0.2-1-0.3-1.5-0.4c-0.5-0.2-0.9-0.3-1.4-0.5c-0.9-0.4-1.9-0.8-3-1.3
					c0.5,0.2,1,0.4,1.5,0.6c-0.2-0.3-0.6-0.6-1.1-0.9c-0.5-0.3-1.2-0.6-1.9-1l0.8,0.6c-0.8-0.2-1.5-0.6-2.3-1
					c-0.8-0.4-1.6-1.1-2.8-1.7l0.8,0.6c-0.5-0.2-1.1-0.7-1.8-1.1c1.2,0.6-0.5-0.6-0.9-1c0.3,0.6-1.7-0.8-2.3-1.2
					c-0.2-0.4-2-1.3-2-1.6c-0.6-0.4-0.4,0-0.2,0.2c-1.3-1.1-2.7-1.8-5-3.9c-1.9-2-2-2.1-2.2-2.3c-0.2-0.2-0.4-0.4-2.6-2.6
					c-0.1-0.2-0.2-0.4-0.3-0.6l-0.5-0.1c-0.2-1.2-2.2-2.9-2-3.7c-0.2-0.1-0.3-0.3-0.5-0.5c-0.3-0.4-0.6-0.9-1.2-1.6
					c0,0.4,0.4,1,0.8,1.6c0.2,0.4,0.5,0.8,0.6,1.1c-0.2-0.3-0.5-0.6-0.8-1.1c-0.3-0.3-0.5-0.8-0.9-1.2c-0.6-1-1.4-2.1-2.2-3.4
					c-1.5-2.6-3.2-5.8-4.6-9c-2.8-6.5-4.5-13.3-5-15.6c0.2,0.8,0.3,0.5,0.3-0.2l-0.5-1.8c0,0.2,0.1,0.7-0.1,0.5
					c-0.3-0.8-0.2-1.7-0.6-2c0.2,0-0.1-1.2,0-1.2c-0.5-0.8-0.4-4.1-1.2-5c-0.5-2.5,0.3-0.7-0.1-3.4l-0.4-0.1c0-0.1-0.1-1-0.3-2.4
					c-0.1-1.4-0.3-3.2-0.5-5c0-0.3,0-0.5-0.1-0.8c0,0,0.1-0.1,0.1-0.1l10-12.6c-0.1,0.6-0.1,1.2,0,2.6l0-0.5
					c0.1,1.7,0.1,6.5,0.5,11.3c0.3,4.8,1,9.4,1.3,10.8l-0.1-0.2c0.7,2.6,1.1,5.9,2.1,8.4c0.3,1.2,0.8,3.4,1.6,6.1
					c0.9,2.6,2,5.7,3.4,8.7c2.7,6,6.6,11.4,8.4,13.4c1.6,1.8,1.7,1.8,1.8,1.8c0.1,0,0.1,0.1,1.8,1.8c0.5,0.5,0.8,0.5,0.3-0.1
					c0.5,0.6,1.1,1.2,1.8,1.8c0.6,0.6,1.2,1.2,1.7,1.8c3.6,3,9.6,6.8,16.2,9.4c6.6,2.6,13.5,4.1,18.2,4.7h-0.2
					c1.5,0.3,4.2,0.5,7.4,0.8c1.6,0.1,3.4,0.2,5.2,0.2c1.9,0,3.8,0.1,5.7,0c7.7-0.2,15.4-1.1,18.5-1.5l1.2-0.4
					c1.3,0,2.5-0.3,4.3-0.4c0.9-0.2,0.5-0.3,0.1-0.3c1.2-0.1,2.4-0.4,3.3-0.5l4.6,9c-0.4,0.1-0.8,0.2-1.1,0.4
					C648.5,609.2,646.1,609.5,647,609.6z"/>
			</g>
			<g>
				<path class="st0" d="M658.1,625C658.1,625,658,625,658.1,625C658.1,625,658.1,625,658.1,625L658.1,625z"/>
				<path class="st0" d="M739.2,742c-0.3,0.1-0.5,0.1-0.8,0.2C738.7,742.1,739,742.1,739.2,742z"/>
				<path class="st0" d="M723.7,754.4c-2.7,0.4-5.5,0.7-8.2,0.9c-2.1,0.1-2.8,0.7-3.3,0.8l0.1-0.2l-2.2,0.1c0.4,0.2,0,0.6,1,0.6
					c0,0.1-0.7,0.1-1.5,0.2c0.3-0.1,0.8-0.3,0.3-0.3c-1.7,0.1-0.5,0.2-2.5,0.4c0,0,1.3-0.4-0.3-0.5c-2,0-8.7,0.3-15.5-0.1
					c-3.4-0.2-6.8-0.5-9.7-0.9c-2.8-0.4-5-0.8-6.1-1c0.3,0,1-0.6,1.3-0.6c-0.7,0-1.4-0.1-2.1-0.2l1,0.5c-1.2,0-5.3-0.7-9.3-1.8
					c-1.5-0.4-3.1-1-4.5-1.4c-2.2-0.8-4-1.6-4.8-1.9c0.2,0.1,0.5,0.2,0.7,0.4c-2-0.8-3.4-1.5-5.5-2.9c-0.1,0-0.1-0.1-0.2-0.1
					c0.1,0,0.1,0.1,0.2,0.1c0.4,0.2,0.8,0.5,1.3,0.7c-0.2-0.3-0.5-0.7-1-1c-0.5-0.4-1.1-0.8-1.7-1.2l0.7,0.7
					c-1.6-0.7-2.7-1.8-4.7-3.6l0.7,0.8c-0.5-0.3-1-0.9-1.6-1.4c1.1,0.8-0.4-0.7-0.7-1.2c0.2,0.7-1.5-1.1-2.1-1.7
					c0-0.2-0.5-0.7-0.9-1.1c-0.4-0.4-0.8-0.8-0.7-1c-0.6-0.6-0.3,0.1-0.1,0.3c-0.5-0.8-1.1-1.4-1.7-2.2c-0.7-0.8-1.4-1.8-2.3-3.2
					c-1.3-2.5-1.3-2.7-1.4-3c0-0.1-0.1-0.3-0.4-0.7c-0.3-0.5-0.6-1.3-1.3-2.7c0-0.2-0.1-0.5-0.1-0.7l-0.4-0.3
					c0.1-0.6-0.2-1.5-0.4-2.3c-0.2-0.8-0.3-1.6-0.2-1.9c-0.4-0.6-0.2-1.3-0.7-2.6c-0.2,0.7,0.2,2.3,0.2,3c-0.1-0.3-0.2-0.7-0.3-1.2
					c-0.1-0.5-0.2-1-0.3-1.6c-0.3-1.2-0.4-2.5-0.7-3.9c-0.2-1.4-0.5-3-0.6-4.6c-0.2-1.6-0.4-3.3-0.4-5.1c-0.4-6.2-0.1-12.3,0.1-15.2
					c0-0.1,0-0.2,0-0.2c0,0,0,0,0,0c0-0.2,0-0.4,0.1-0.5c0,0.8,0.2,0.6,0.3-0.1l0-1.8c-0.1,0.2-0.1,0.7-0.2,0.4
					c0-0.8,0.3-1.7,0.1-2.1c0.2,0.1,0.3-1.1,0.4-1.1c-0.1-0.5,0.1-1.5,0.3-2.5c0.2-1,0.4-2.1,0.2-2.6c0,0,0,0,0,0
					c0.3-2.5,0.4-0.5,1-3.2l-0.4-0.3c0,0,0.2-1,0.5-2.3c0.3-1.3,0.7-3.1,1.2-4.9c0.9-3.4,2-6.7,1.9-6.7c0.1-0.2,0.3-0.3,0.7-0.9
					c0.8-2.4,1.7-4.7,2.8-7.3c-0.1,0.3-0.2,0.5,0,0.3c3.7-8.5,8.5-16,14.4-23.1c1.1-1.3,0.5-0.1,1.5-1.2c0.7-0.7,1.2-1.6,1.7-2.3
					c-0.2,0.1-0.5,0.5-0.4,0.2c0.2-0.2,0.5-0.4,0.7-0.7l0.5-0.5c-0.1,0.2-0.4,0.6-0.4,0.7c0,0,0,0.1,0,0.1c0.1,0,0.2-0.2,0.5-0.5
					c-0.2,0.2-0.3,0.4-0.5,0.5c-0.3,0.3-0.6,0.6-0.8,0.9c0.1,0.2,0.2-0.2,0.9-0.9l4.5,8.7c-2,2.5-4.1,5-5.5,7
					c-0.7,1.2-2.8,4.1-3.5,5.9l-0.1-0.2c-1.1,2-2.2,5-2.8,6.3l-0.1-0.1c-0.4,0.8-1.1,3.1-0.7,3c-1,2-1.2,1.5-2,4.2l0.2-0.4
					c-0.5,1.5-2.2,5.9-3.5,10.4c-0.5,1.7-0.9,3.4-1.2,5c-0.5,2.5-0.9,4.6-1,5.4l0-0.3c-0.1,1.7-0.4,3.6-0.6,5.4c-0.1,1-0.1,2.1,0,3
					c-0.2,1.2-0.3,3.5-0.4,6.2c0,1.4,0,2.9,0,4.5c0.1,1.6,0.1,3.2,0.3,4.9c0.2,1.6,0.3,3.3,0.5,4.9c0.2,1.6,0.5,3.1,0.7,4.5
					c0.5,2.7,1.2,4.8,1.6,6c0.8,2.1,0.9,2.1,1,2.2c0.1,0.1,0.1,0.1,1,2.1c0.3,0.6,0.6,0.7,0.3,0c0.6,1.3,1.5,2.9,2.1,4.1
					c1.3,1.8,3.1,3.8,5.4,5.8c1.5,1.3,3.1,2.5,4.9,3.6c1,0.6,2.1,1.2,3.1,1.8c2.2,1.1,4.4,2.1,6.7,2.8c3.9,1.4,7.8,2.2,10.6,2.7
					h-0.2c3,0.6,10.4,1.5,18,1.5c7.6,0.1,15.2-0.6,18.3-0.9l1.2-0.4c0.8,0,1.5-0.1,2.4-0.1L723.7,754.4z"/>
			</g>
			<g>
				<path class="st0" d="M700.5,702.7L700.5,702.7C700.5,702.7,700.5,702.7,700.5,702.7C700.5,702.7,700.5,702.7,700.5,702.7z"/>
				<path class="st0" d="M660,936.8c-0.1-0.3-0.3-0.7-0.4-1C659.7,936.1,659.9,936.5,660,936.8z"/>
				<path class="st0" d="M643.8,921.6c0.2,0.5,0.4,1,0.6,1.3l-0.2,0.1C644.1,922.6,643.9,922,643.8,921.6z"/>
				<path class="st0" d="M702.2,712.5c-3.9,2.5-8.1,5.1-10.8,7c-1.3,1.1-4.9,3.7-6.5,5.5l-0.1-0.2c-2.2,1.8-4.7,4.8-5.9,6l0-0.1
					c-0.8,0.8-2.7,3.1-2.2,3.1c-2,1.9-2,1.2-4.1,4l0.4-0.4c-0.8,0.9-2.4,2.7-4.3,5c-1.4,1.7-2.9,3.6-4.4,5.5
					c-0.7,0.9-1.4,1.9-2.1,2.8c-0.2,0.2-0.3,0.4-0.5,0.6c-0.8,1.1-1.5,2.2-2.1,3.2c-1.3,2-2.3,3.5-2.7,4.3l0.1-0.3
					c-1.4,2.9-3.7,6.2-4.8,9.4c-0.4,0.7-0.9,1.6-1.5,2.8c-0.3,0.6-0.6,1.2-1,1.9c-0.3,0.7-0.6,1.4-1,2.2c-0.7,1.6-1.4,3.3-2.2,5.1
					c-0.7,1.8-1.4,3.7-2,5.7c-0.3,1-0.7,1.9-1,2.9c-0.3,1-0.6,1.9-0.8,2.9c-0.2,0.9-0.5,1.8-0.8,2.7c-0.3,1-0.5,1.9-0.8,2.8
					c-0.3,0.8-0.4,1.7-0.6,2.5c-0.2,0.8-0.3,1.5-0.4,2.2c-0.2,1.2-0.4,2.2-0.6,3c0,0.1,0,0.2-0.1,0.3c-0.3,1.5-0.4,2.2-0.5,2.6
					c0,0.4,0,0.5,0,0.5c0,0.1,0.1,0.2-0.4,3.1c-0.1,0.8,0,1.2,0.2,0.2c-0.3,1.9-0.6,4.4-1.2,6.2c-0.2,3-0.4,6.7-0.7,10.8
					c0,2,0,4.2,0,6.4c0,1.1,0,2.2,0,3.3l0,1.7c0,0.6,0.1,1.1,0.1,1.7c0.1,2.2,0.2,4.5,0.3,6.6c0,1.1,0.1,2.2,0.2,3.2
					c0,1.1,0.2,2.1,0.3,3.1c0.5,4,0.8,7.7,1.2,10.6l-0.1-0.3c0.7,3.8,2,13.1,4.4,22.3c1,4.6,2.4,9.2,3.5,13c1.1,3.9,2,7.1,2.6,8.9
					l0.7,1.4c0.3,1.6,1,3,1.5,5.1c0.4,1,0.4,0.6,0.3,0.2c0.1,0.5,0.3,1,0.5,1.5l-8.2,6c-1.3-4-2.8-8.3-4-12.3
					c-0.2-0.6-0.4-1.1-0.5-1.6c-0.2-0.4-0.3-0.8-0.5-1c-0.3-0.6-0.5-0.9-0.6-1.2l0.2,0l-0.7-2.5c-0.1,0.5-0.5,0.2-0.4,1.3
					c-0.1,0-0.3-0.8-0.5-1.7c0.1,0.3,0.5,0.9,0.4,0.3c-0.5-2-0.3-0.6-1.1-2.9c0,0,0.8,1.5,0.4-0.4c-0.3-1.2-1-3.7-1.9-7
					c-0.7-3.3-1.6-7.3-2.5-11.2c-0.2-1-0.5-2-0.7-3c-0.2-1-0.4-2-0.5-3c-0.3-1.9-0.7-3.8-0.9-5.5c-0.6-3.3-1-5.9-1.2-7.3
					c0.1,0.3,0.9,1,1,1.2l-0.5-2.4l-0.1,1.4c-0.4-1.4-1.1-6.2-1.8-11c-0.5-4.8-0.8-9.8-1.1-11.3l0,0.9c-0.1-1.2-0.3-2.3-0.3-3.4
					s0-2.3,0-3.8l0.1,1.8c0.4-0.7,0.4-2.2,0.4-4l-0.2,1.1c-0.3-2,0-3.6,0-6.6l-0.1,1.1c0-0.3,0-0.7,0-1.1c0-0.4,0.1-0.8,0.1-1.3
					c0,1.6,0.3-1.1,0.5-1.5c-0.5,1-0.2-2-0.2-2.9c0.3-0.4,0-2.8,0.3-2.9c0-0.9-0.2-0.3-0.3,0c0.1-1,0.1-1.9,0.2-3
					c0.1-1.1,0.1-2.5,0.4-4.3c0.5-3.1,0.6-3.3,0.6-3.6c0-0.2,0-0.3,0.1-0.9c0.1-0.6,0.1-1.6,0.4-3.3l0.3-0.8l-0.2-0.5
					c0.4-0.6,0.7-1.6,0.9-2.6c0.2-0.9,0.4-1.7,0.8-1.9c-0.1-0.7,0.4-1.4,0.5-3c-0.5,0.6-0.7,2.5-1.1,3.2c0.1-0.8,0.4-1.8,0.6-3.1
					c0.3-1.3,0.8-2.8,1.2-4.5c0.1-0.3,0.2-0.6,0.2-0.9c0.4-1.4,0.8-3,1.3-4.6c0.7-1.9,1.4-3.8,2.1-5.8c0.3-1,0.7-1.9,1-2.9
					c0.4-1,0.8-1.9,1.2-2.8c0.8-1.8,1.5-3.6,2.2-5.1c1.4-3.1,2.8-5.5,3.4-6.8c-0.4,0.8-0.1,0.7,0.3,0l0.9-2
					c-0.2,0.2-0.5,0.7-0.4,0.4c0.4-0.9,1.1-1.7,1.1-2.2c0.1,0.2,0.9-1.1,0.9-1.1c0.3-1.1,2.7-4.2,2.9-5.4c1.6-2.6,0.7-0.4,2.5-3.2
					l-0.2-0.4c0,0,0.5-0.8,1.2-1.8c0,0,0,0,0,0c0.1-0.1,0.1-0.2,0.2-0.3c0-0.1,0.1-0.1,0.1-0.2c1-1.3,2.3-3.1,3.5-4.9
					c0.8-1.1,1.6-2.2,2.3-3.1c0.5-0.6,0.9-1.1,1.2-1.6c0.9-1.1,1.5-1.9,1.5-2c0.2-0.1,0.5-0.3,1.1-0.8c1-1.2,2-2.3,3-3.5
					c0.5-0.6,1-1.2,1.6-1.8c0.5-0.6,1.1-1.2,1.7-1.8c-0.2,0.3-0.4,0.5-0.2,0.4c1-1,1.9-2,2.9-3c1-0.9,2-1.9,3-2.8
					c2-1.9,4.1-3.6,6.2-5.3c4.3-3.4,8.7-6.6,13.4-9.5c1.8-1.1,0.6,0.1,2.1-0.9c0.6-0.3,1.1-0.7,1.6-1L702.2,712.5z"/>
			</g>
			<g>
				<path class="st0" d="M570.3,793.2c0.6,0.2,1.5,0,2.5,0C572,793,571.3,793,570.3,793.2z"/>
				<path class="st0" d="M572.8,793.2L572.8,793.2C572.8,793.2,572.8,793.2,572.8,793.2L572.8,793.2z"/>
				<path class="st0" d="M725.2,884.8c-0.1-0.2-0.2-0.5-0.3-0.8C725,884.3,725.1,884.5,725.2,884.8z"/>
				<path class="st0" d="M718.5,869l-8,5.8c-0.5-1-1-2-1.4-3c-0.3-0.7-0.7-1.5-1-2.2c-0.3-0.7-0.7-1.5-1-2.1
					c-0.8-1.7-1.7-1.9-1.8-2.3l0.2,0l-0.9-1.7c0,0.4-0.5,0.3-0.2,1c-0.1,0-0.3-0.5-0.7-1.1c0.1,0.2,0.5,0.5,0.4,0.1
					c-0.7-1.3-0.4-0.3-1.3-1.8c0,0,0.9,0.8,0.3-0.4c-0.2-0.4-0.5-1-0.9-1.8c-0.5-0.8-1-1.7-1.7-2.7c-0.6-1-1.3-2.1-2.1-3.3
					c-0.8-1.2-1.5-2.4-2.4-3.5c-1.7-2.3-3.4-4.7-4.9-6.6c-1.5-1.8-2.7-3.3-3.3-4c0.2,0.1,1,0.1,1.2,0.2l-1.3-1.2l0.4,0.9
					c-0.4-0.3-1.2-1.1-2.2-2.1c-1-1-2.2-2.2-3.4-3.4c-1.2-1.2-2.4-2.4-3.5-3.3c-1.1-0.9-2-1.6-2.4-1.9l0.4,0.4
					c-1.4-1.1-2.3-1.9-3.8-3.3l1,0.8c-0.1-0.6-0.9-1.3-1.8-2.1l0.5,0.6c-1.2-0.6-1.9-1.6-3.5-2.9l0.5,0.6c-0.4-0.2-0.8-0.6-1.3-1.1
					c0.9,0.6-0.4-0.7-0.5-1c0.1,0.4-0.2,0.2-0.6-0.1c-0.4-0.3-1-0.7-1.2-0.9c-0.1-0.4-1.6-1-1.6-1.3c-0.5-0.3-0.3,0-0.2,0.2
					c-1-0.9-2.1-1.3-4.1-2.7c-3.5-2.4-0.3-0.5-4.5-2.9l-0.4-0.5l-0.4,0.1c-0.4-0.9-2.3-1.5-2.4-2.2c-0.5-0.1-0.8-0.6-1.9-0.9
					c0.2,0.6,1.4,1.1,1.8,1.5c-0.9-0.5-2.5-1.5-4.6-2.6c-1-0.5-2.2-1.1-3.4-1.8c-0.6-0.3-1.2-0.6-1.8-0.9c-0.6-0.3-1.3-0.6-1.9-0.9
					c-0.4-0.2-0.8-0.4-1.2-0.6c-0.9-0.4-1.7-0.8-2.5-1.2c-1.2-0.5-2.4-1-3.5-1.4c-1.1-0.4-2.1-0.9-2.9-1.2c-0.2-0.1-0.5-0.2-0.7-0.2
					c-0.5-0.2-0.9-0.3-1.3-0.5c0.6,0.2,0.5-0.1,0-0.3l-1.4-0.4c0.1,0.1,0.5,0.3,0.3,0.3c-0.6-0.1-1.3-0.6-1.7-0.4
					c0.1-0.1-0.8-0.5-0.8-0.5c-0.8,0.1-3.2-1.2-4.1-0.9c-2-0.5-0.4-0.5-2.6-1.1l-0.2,0.4c0,0-0.8-0.2-1.9-0.5
					c-1.1-0.3-2.5-0.6-4-0.9c-1.5-0.3-2.9-0.5-3.9-0.7c-1-0.1-1.7-0.2-1.7-0.2c-0.1-0.1-0.3-0.3-0.8-0.4c-2.1-0.2-4.1-0.5-6.4-0.7
					c0.2,0,0.4,0,0.3-0.1c-1.9-0.2-3.8-0.3-5.6-0.5c-1.9-0.1-3.7-0.3-5.6-0.3c-0.5,0-1,0-1.5-0.1l-3.6-9.5c0.3,0,0.5,0,0.8,0
					c0.7,0,1.9,0,3.1,0c1.3,0,2.6,0,3.5-0.1l-0.1,0.2c1.1,0,2.4,0,3.6-0.1c1.2,0,2.3,0,3,0l0,0.1c0.9,0,3.2,0,3-0.4
					c2.1,0.4,1.7,0.7,4.5,0.8l-0.4-0.1c1.6,0.2,6.1,0.8,10.6,1.8c2.2,0.5,4.4,1.1,6.2,1.5c1.8,0.5,3.2,0.9,3.9,1l-0.3,0
					c1.2,0.2,2.6,0.6,4,1.1c1.1,0.4,2.2,0.7,3.3,1c0.3,0.1,0.5,0.1,0.8,0.2c1.6,0.6,5,2,9,3.7c1.6,0.7,3.3,1.5,4.9,2.3
					c1.4,0.7,2.9,1.5,4.2,2.2c1.4,0.7,2.7,1.4,3.9,2.1c2.4,1.4,4.4,2.5,5.6,3.2c4,2.5,0.5,0,4.3,2.5c0.5,0.4,0.9,0.4,0.2-0.2
					c0.6,0.4,1.4,0.9,2.1,1.5c0.7,0.5,1.4,1.1,1.9,1.6c1.9,1.4,4.4,3,6.8,5.1c1.2,1,2.5,2.1,3.9,3.2c1.3,1.1,2.5,2.4,3.8,3.6
					c0.6,0.6,1.3,1.2,1.9,1.8c0.6,0.6,1.3,1.2,1.8,1.8c1.2,1.2,2.3,2.5,3.4,3.6c2.2,2.3,4,4.6,5.5,6.3l-0.2-0.2
					c0.9,1.2,2.7,3.1,4.5,5.6c0.9,1.3,1.9,2.6,3,4.1c0.5,0.7,1.1,1.4,1.6,2.2c0.5,0.8,1,1.5,1.5,2.3c4.2,6.1,7.6,12.5,9,15.1
					c0.3,0.3,0.5,0.6,0.8,1c0.4,1.2,1,2.2,1.6,3.8c0.4,0.8,0.4,0.4,0.3,0C718.4,868.7,718.4,868.9,718.5,869z"/>
			</g>
			<g>
				<path class="st0" d="M691,648.3c-0.2,0.1-0.3,0.3-0.5,0.5C690.7,648.7,690.9,648.5,691,648.3z"/>
				<path class="st0" d="M680,669.3c-0.9,0.7-1,1.3-1.3,1.5l0-0.2c-0.5,0.3-1,0.7-1.5,1c0.4,0,0.3,0.5,1,0.2c0,0.2-0.5,0.4-1,0.7
					c0.2-0.1,0.5-0.5,0.1-0.4c-1.2,0.7-0.3,0.4-1.7,1.3c0-0.1,0.8-0.9-0.5-0.3c-0.8,0.4-2.3,1.3-4.4,2.4c-2.1,1-4.6,2.2-7.1,3.5
					c-2.6,1-5.2,2.1-7.4,3c-2.2,0.7-3.9,1.3-4.8,1.6c0.2-0.1,0.4-0.9,0.6-1l-1.5,0.7l1,0c-1.1,0.8-6,2.2-9.9,3.3
					c-2.2,0.6-4.1,1.1-4.8,1.3l0.6-0.1c-1.6,0.5-2.8,0.8-4.9,0.9l1.2-0.2c-0.5-0.3-1.5-0.2-2.6,0c0,0-0.1,0-0.1,0l0.1,0l0.7,0.1
					c-0.2,0.1-0.5,0.1-0.7,0.2c-1,0.2-2.1,0.2-3.8,0.4l0.8,0c-0.4,0.1-1,0.2-1.6,0.2c1-0.2-0.8-0.2-1.1-0.4c0.7,0.3-1.3,0.4-1.9,0.5
					c-0.3-0.2-1.9,0.3-2,0c-0.5,0.1-0.2,0.2,0,0.2c-1.3,0-2.5,0.4-4.8,0.4c-2.1,0-2.2-0.1-2.5-0.1c-0.2,0-0.5,0.1-2.9,0.1l-0.5-0.2
					l-0.3,0.3c-0.8-0.6-2.8-0.3-3.2-0.8c-0.5,0.2-1-0.1-2.1,0c0.4,0.4,1.7,0.3,2.2,0.6c-1,0-2.9-0.2-5.3-0.4
					c-1.2-0.1-2.5-0.2-3.8-0.4c-1.3-0.2-2.7-0.4-4.1-0.6c-0.7-0.1-1.4-0.2-2-0.3c-0.7-0.1-1.3-0.3-2-0.4c-1.3-0.3-2.5-0.5-3.7-0.7
					c-2.2-0.5-4-1-4.9-1.2c0.6,0.1,0.5-0.1,0-0.3l-1.4-0.2c0.1,0.1,0.5,0.2,0.3,0.2c-0.6-0.1-1.3-0.5-1.7-0.2
					c0.1-0.2-0.9-0.4-0.8-0.5c-0.8,0.1-3.1-1.2-4-0.8c-2-0.5-0.4-0.5-2.5-1.1l-0.2,0.3c0,0-0.8-0.2-1.8-0.6
					c-1.1-0.3-2.5-0.7-3.8-1.2c-2.8-0.9-5.4-1.8-5.3-1.6c-0.1-0.1-0.2-0.3-0.7-0.6c-2-0.6-3.8-1.3-5.9-2.1c0.2,0,0.4,0.1,0.3,0
					c-4.2-1.6-8.3-3.5-12.2-5.4l-5-13.4c2.8,1.4,5.7,3.2,7.7,4.2c1,0.5,3.7,1.8,5.3,2.3l-0.2,0.2c1.8,0.8,4.3,1.4,5.4,1.8l-0.1,0.1
					c0.7,0.3,2.7,0.8,2.6,0.3c1.7,0.8,1.2,1,3.5,1.7l-0.3-0.2c1.3,0.4,5,1.8,8.7,3.1c3.7,1.2,7.4,2.3,8.6,2.6l-0.2,0
					c2.2,0.3,4.7,1.3,7,1.4c1,0.3,2.8,0.8,5,1.2c1.1,0.2,2.4,0.5,3.6,0.7c1.3,0.3,2.6,0.4,4,0.7c5.4,0.9,11,1.2,13.2,1.2
					c2,0,2.1,0,2.1-0.1c0.1-0.1,0.2-0.1,2.1-0.1c0.6,0,0.8-0.2,0.1-0.3c1.3,0.1,3,0,4.2,0.3c2-0.1,4.5-0.3,7.2-0.5
					c1.4-0.2,2.8-0.3,4.2-0.5c0.5-0.1,1.1-0.1,1.6-0.2c0.2,0,0.4,0,0.6-0.1c0.7-0.1,1.4-0.3,2.2-0.4c1.5-0.3,2.9-0.5,4.3-0.8
					c1.4-0.3,2.7-0.6,3.9-0.9c0,0,0.1,0,0.1,0c1.3-0.3,2.5-0.6,3.6-0.9c1.1-0.4,2.1-0.7,3-1l-0.2,0.1c1.2-0.4,3.3-1,5.7-2
					c1.2-0.5,2.5-1,3.9-1.6c1.4-0.6,2.7-1.3,4.1-2c5.2-2.6,10.1-5.7,12.3-7.3L680,669.3z"/>
			</g>
		</g>
		
			<rect x="695.7" y="934.2" transform="matrix(0.8614 -0.5079 0.5079 0.8614 -368.8216 533.9756)" class="st0" width="196.7" height="17.1"/>
		<rect x="387.9" y="1022.3" class="st0" width="196.7" height="17.1"/>
		<path class="st1" d="M795.3,383.4h-144v-16h160l0,0C811.3,376.2,804.1,383.4,795.3,383.4z"/>
		<path class="st6" d="M542.2,367.3h53.4l-15.9,16h-21.4C549.4,383.4,542.2,376.2,542.2,367.3L542.2,367.3z"/>
		<path class="st6" d="M681.3,367.3L681.3,367.3c0,8.9-7.2,16-16,16h-62.9l12.8-16H681.3z"/>
		<path class="st1" d="M825.3,328.1l-14,39.2h-130l49.8-139.6c3.6-10.1,13.2-16.9,23.9-16.9h49.6v117.2H825.3z"/>
		<line class="st1" x1="731.9" y1="98.5" x2="752.4" y2="169.1"/>
		<line class="st1" x1="718.9" y1="156" x2="739" y2="179"/>
		<path class="st0" d="M814.3,328.1l-8.4,23.4c-1.1,3-3.9,4.9-7,4.9h-90.2c-5.1,0-8.7-5.1-7-9.9l42.9-120.3c1.1-3,3.9-4.9,7-4.9h53
			v106.8H814.3z"/>
		<polygon class="st1" points="992.4,139.3 992.4,328.1 804.7,328.1 804.7,93.9 947,93.9 		"/>
		<polygon class="st1" points="992.4,139.3 947,139.3 947,93.9 		"/>
		<line class="st1" x1="992.4" y1="139.3" x2="947" y2="93.9"/>
		<rect x="821.7" y="146.7" class="st1" width="29.1" height="29.1"/>
		<line class="st1" x1="869.7" y1="146.7" x2="904.8" y2="146.7"/>
		<line class="st1" x1="869.7" y1="169.1" x2="963.2" y2="169.1"/>
		<rect x="821.7" y="206.7" class="st0" width="29.1" height="29.1"/>
		<line class="st1" x1="869.7" y1="206.7" x2="963.2" y2="206.7"/>
		<line class="st1" x1="869.7" y1="229.1" x2="963.2" y2="229.1"/>
		<rect x="821.7" y="266.7" class="st1" width="29.1" height="29.1"/>
		<line class="st1" x1="869.7" y1="266.7" x2="926.5" y2="266.7"/>
		<line class="st1" x1="869.7" y1="289.1" x2="963.2" y2="289.1"/>
		<line class="st1" x1="938" y1="266.7" x2="963.2" y2="266.7"/>
		<rect x="1338.1" y="80.6" class="st0" width="252.8" height="30.4"/>
		<circle class="st9" cx="1543.7" cy="95.8" r="4.8"/>
		<circle class="st9" cx="1559.1" cy="95.8" r="4.8"/>
		<circle class="st9" cx="1574.4" cy="95.8" r="4.8"/>
		<polyline class="st1" points="1338.1,117.4 1338.1,239.4 1590.9,239.4 1590.9,114.6 		"/>
		<polygon class="st6" points="1380.3,239.4 1380.3,267.3 1615.4,267.3 1615.4,114.6 1590.9,114.6 1590.9,239.4 		"/>
		<polygon class="st0" points="1538.5,734.8 1538.5,790.7 1393.1,790.7 1393.1,645.3 1441.5,645.3 1441.5,734.8 		"/>
		<g>
			<defs>
				<polygon id="SVGID_00000134242137313485524570000001675993161329685950_" points="1538.5,734.8 1538.5,790.7 1393.1,790.7 
					1393.1,645.3 1441.5,645.3 1441.5,734.8 				"/>
			</defs>
			<clipPath id="SVGID_00000145761931744053197650000016975499057670520230_">
				<use xlink:href="#SVGID_00000134242137313485524570000001675993161329685950_"  style="overflow:visible;"/>
			</clipPath>
			<g style="clip-path:url(#SVGID_00000145761931744053197650000016975499057670520230_);">
				<g>
					<line class="st15" x1="1390.6" y1="640.3" x2="1390.6" y2="796.8"/>
					<line class="st15" x1="1415.7" y1="640.3" x2="1415.7" y2="796.8"/>
					<line class="st15" x1="1440.8" y1="640.3" x2="1440.8" y2="796.8"/>
					<line class="st15" x1="1465.9" y1="640.3" x2="1465.9" y2="796.8"/>
					<line class="st15" x1="1491.1" y1="640.3" x2="1491.1" y2="796.8"/>
					<line class="st15" x1="1516.2" y1="640.3" x2="1516.2" y2="796.8"/>
					<line class="st15" x1="1541.3" y1="640.3" x2="1541.3" y2="796.8"/>
				</g>
				<g>
					<line class="st15" x1="1544.2" y1="643.2" x2="1387.7" y2="643.2"/>
					<line class="st15" x1="1544.2" y1="668.3" x2="1387.7" y2="668.3"/>
					<line class="st15" x1="1544.2" y1="693.4" x2="1387.7" y2="693.4"/>
					<line class="st15" x1="1544.2" y1="718.5" x2="1387.7" y2="718.5"/>
					<line class="st15" x1="1544.2" y1="743.7" x2="1387.7" y2="743.7"/>
					<line class="st15" x1="1544.2" y1="768.8" x2="1387.7" y2="768.8"/>
					<line class="st15" x1="1544.2" y1="793.9" x2="1387.7" y2="793.9"/>
				</g>
			</g>
		</g>
		<rect x="1441.5" y="489.5" class="st1" width="355" height="245.3"/>
		<rect x="1441.5" y="489.5" class="st1" width="355" height="29.2"/>
		<rect x="1574.6" y="555.9" class="st1" width="111.4" height="46.2"/>
		<rect x="1574.6" y="602.2" class="st1" width="111.4" height="46.2"/>
		<path class="st0" d="M1661.4,594h-62.3c-8.3,0-15-6.7-15-15l0,0c0-8.3,6.7-15,15-15h62.3c8.3,0,15,6.7,15,15l0,0
			C1676.4,587.3,1669.7,594,1661.4,594z"/>
		<path class="st0" d="M1661.4,640.3h-62.3c-8.3,0-15-6.7-15-15l0,0c0-8.3,6.7-15,15-15h62.3c8.3,0,15,6.7,15,15l0,0
			C1676.4,633.5,1669.7,640.3,1661.4,640.3z"/>
		<path class="st0" d="M1550,686.5h-62.3c-8.3,0-15-6.7-15-15v0c0-8.3,6.7-15,15-15h62.3c8.3,0,15,6.7,15,15v0
			C1565,679.8,1558.3,686.5,1550,686.5z"/>
		<rect x="1574.6" y="648.4" class="st1" width="111.4" height="46.2"/>
		<rect x="1463.1" y="555.9" class="st1" width="111.4" height="46.2"/>
		<rect x="1463.1" y="602.2" class="st1" width="111.4" height="46.2"/>
		<rect x="1463.1" y="648.4" class="st1" width="111.4" height="46.2"/>
		<circle class="st6" cx="1458.9" cy="504.1" r="5.2"/>
		<circle class="st6" cx="1475.7" cy="504.1" r="5.2"/>
		<circle class="st6" cx="1492.4" cy="504.1" r="5.2"/>
		<g>
			<line class="st1" x1="1510.3" y1="569.6" x2="1527.4" y2="586.6"/>
			<line class="st1" x1="1510.3" y1="586.6" x2="1527.4" y2="569.6"/>
		</g>
		<g>
			<line class="st1" x1="1510.3" y1="616.9" x2="1527.4" y2="633.9"/>
			<line class="st1" x1="1510.3" y1="633.9" x2="1527.4" y2="616.9"/>
		</g>
		<polyline class="st1" points="1507.5,667.1 1518.7,681.2 1530.2,661.8 		"/>
		<polyline class="st1" points="1618.9,574.6 1630.1,588.8 1641.6,569.3 		"/>
		<polyline class="st1" points="1618.9,620.9 1630.1,635 1641.6,615.5 		"/>
		<polygon class="st6" points="1729.7,640 1657.6,632.4 1687,698.7 1701.9,678.2 1730.6,699 1743.4,681.3 1714.8,660.5 		"/>
		<path class="st0" d="M1566.9,221.4h-55.7c-1.2,0-2.2-1-2.2-2.2v-20.6c0-1.2,1-2.2,2.2-2.2h55.7c1.2,0,2.2,1,2.2,2.2v20.6
			C1569.1,220.4,1568.1,221.4,1566.9,221.4z"/>
		<rect x="1360.5" y="135" class="st2" width="57.4" height="14.8"/>
		<rect x="1431.6" y="135" class="st1" width="137.9" height="14.8"/>
		<rect x="1360.5" y="196.3" class="st2" width="131.5" height="14.8"/>
		<rect x="1360.5" y="165.7" class="st1" width="209" height="14.8"/>
		<rect x="382" y="1015.5" class="st1" width="196.7" height="17.1"/>
		<path class="st1" d="M387.9,1015.5v-93.2h90.5c0,0-9.2,41.1,23,57.3c32.1,16.2,67.5,10.1,67.5,36H387.9z"/>
		<path class="st1" d="M387.9,956.3l17.8,21.6h55.9c0,0-1.7-24.9,17.9-24.9"/>
		<line class="st1" x1="519.1" y1="986.6" x2="505.4" y2="1015.5"/>
		<path class="st1" d="M471.1,981.8c0,0,17.2,10,42.7,16.1"/>
		<polyline class="st1" points="479.5,974.6 498.8,960.9 496.2,985.8 510,971.1 		"/>
		<circle class="st1" cx="407.5" cy="1000.8" r="4.8"/>
		<circle class="st1" cx="422.8" cy="1000.8" r="4.8"/>
		<line class="st1" x1="397.3" y1="1015.5" x2="397.3" y2="1032.6"/>
		<line class="st1" x1="412.6" y1="1015.5" x2="412.6" y2="1032.6"/>
		<line class="st1" x1="427.9" y1="1015.5" x2="427.9" y2="1032.6"/>
		<line class="st1" x1="443.2" y1="1015.5" x2="443.2" y2="1032.6"/>
		<line class="st1" x1="458.5" y1="1015.5" x2="458.5" y2="1032.6"/>
		<line class="st1" x1="473.8" y1="1015.5" x2="473.8" y2="1032.6"/>
		<line class="st1" x1="489.1" y1="1015.5" x2="489.1" y2="1032.6"/>
		<line class="st1" x1="504.4" y1="1015.5" x2="504.4" y2="1032.6"/>
		<line class="st1" x1="519.7" y1="1015.5" x2="519.7" y2="1032.6"/>
		<line class="st1" x1="535" y1="1015.5" x2="535" y2="1032.6"/>
		<line class="st1" x1="550.3" y1="1015.5" x2="550.3" y2="1032.6"/>
		<line class="st1" x1="565.6" y1="1015.5" x2="565.6" y2="1032.6"/>
		<polygon class="st8" points="478.4,922.3 387.9,948.4 387.9,922.3 		"/>
		<polyline class="st1" points="559.5,495.5 590.1,494.1 644.3,599.8 648.9,608.8 657.5,625.5 657.6,625.7 657.7,625.8 657.7,625.9 
			657.7,625.9 662.2,634.6 675.7,660.9 680,669.3 698,704.4 702.2,712.5 719,745.3 723.7,754.4 765.1,835.1 718.5,869 710.5,874.9 
			652.8,916.9 644.5,922.9 644.4,922.9 644.2,923.1 637.9,927.7 587.3,792.8 583.7,783.4 541.7,671.4 536.6,658 525,627.1 
			525,583.6 546,583.6 546.2,583.6 546.6,583.6 558.4,583.6 		"/>
		<polyline class="st1" points="525,627.1 525.4,656.1 525.4,656.2 525.5,666.5 526.5,739.2 526.5,739.4 526.5,739.9 526.6,751.7 
			526.6,751.8 528.8,922.3 503.9,922.3 492.9,922.3 445.5,922.3 436,922.3 361.5,922.3 373.6,815.6 375.7,797.3 383.7,727 
			384.8,717.6 389.6,675.2 390.4,668.1 396.1,618.1 397.2,608.7 409.3,502.4 450.3,500.5 		"/>
		<path class="st1" d="M424.1,302c-3.4,5.3-6.3,11.4-8.8,18.1C417.6,313.4,420.5,307.3,424.1,302z"/>
		<path class="st1" d="M509,426.6l-4.3-28.5c0,0-10.8-121.6-55.1-115.2c38-10.5,66.9,44.1,83.2,86.6"/>
		<path class="st1" d="M399.1,423.2l105.6-25.1c0,0-10.8-121.6-55.1-115.2C400,290,399.1,423.2,399.1,423.2z"/>
		<path class="st1" d="M465.8,282.3L458,245l24.3-11.4c6-2.8,8.7-10,5.9-16.1l-9.6-21.2l3-7.9c1.5-3.8-2-7.6-5.9-6.5l-4.7,1.3
			c0,0-16-30.3-44.3-23.5c0,0,19.6,20.3,2.5,43.3"/>
		<path class="st1" d="M434.3,224.3c-2.5,3.5-6.6,5.8-11.3,5.8c-7.7,0-13.9-6.2-13.9-13.9c0-7.7,6.2-13.9,13.9-13.9
			c2.1,0,4,0.5,5.8,1.3"/>
		<path class="st1" d="M441.7,189.3c0,0-0.3-10.9,9.2-10.5"/>
		<line class="st1" x1="417.1" y1="213.2" x2="426.8" y2="217.8"/>
		<path class="st1" d="M428.6,229c0,0,33.7,24.2,5.7,61"/>
		<path class="st1" d="M428.6,229c0,0,33.7,24.2,5.7,61"/>
		<path class="st1" d="M447.6,201.2c0,0,6.9,14.3,21,6.6"/>
		<polygon class="st2" points="458,245 443.8,250.5 460.9,258.9 		"/>
		
			<ellipse transform="matrix(0.8165 -0.5773 0.5773 0.8165 -26.0513 296.6336)" class="st6" cx="453.7" cy="189.3" rx="0.6" ry="1"/>
		<path class="st6" d="M463.3,172.7c-7.4-8-19.8-16.9-36.5-12.9c0,0,19.1,20.9,2,43.8c-1.8-0.8-3.7-1.3-5.8-1.3
			c-7.7,0-13.9,6.2-13.9,13.9s6.2,13.9,13.9,13.9c2,0,3.9-0.4,5.6-1.2c0,0,33.7,24.2,5.7,61c-13.9,11.7-22.3,35.5-27.4,59.9l0,0
			l-112.6-58.7c9-33.9,38.9-18,40.4-32.3c1.5-14.4,1-26.6,23.2-33.3c22.2-6.7,12.2-33.4,23.4-55.6c11.2-22.2,43.2-14.6,43.2-14.6
			c4.2-9.4,24.8-19.9,37.2-9.4C473.9,156.5,463.3,172.7,463.3,172.7z"/>
		<polyline class="st1" points="414.1,144.4 424.4,155.4 423.2,140.4 		"/>
		<path class="st2" d="M449.8,204.4c0,0,4.4-3.9,7-2.5c2.5,1.5,2.2,6.4,2.2,6.4s1.6-6.6,4.6-6s5.1,5.4,5.1,5.4s-5,10-11.5,8.1
			C450.6,214.1,449.8,204.4,449.8,204.4z"/>
		<path class="st1" d="M538.8,363.2l36.1-71.4c0,0-11.3-13.4-5.2-29.2c5.3-13.7,19.4-11.3,32.2-6c3.3,1.3,4.8,5.1,3.6,8.4l0,0
			c-1.2,3.1-4.5,4.8-7.8,4l-11.4-3c0,0,8.6,4.1,4.9,14.8"/>
		<path class="st1" d="M586.6,252.6l14.9-29.2c1.7-3.3,5.7-4.4,8.9-2.6v0c2.8,1.6,3.9,5.1,2.6,8.1L601,256.3"/>
		<path class="st1" d="M616.7,252.9l-9.3,20.1c-1.1,2.3-3.4,3.7-5.7,3.7c-0.9,0-1.8-0.2-2.7-0.6c-2.9-1.3-4.3-4.6-3.4-7.5l2.2,0.6
			c0.6,0.2,1.1,0.2,1.7,0.2c2.6,0,5.1-1.6,6.1-4.2c1.3-3.3-0.3-7-3.6-8.4c-0.3-0.1-0.7-0.3-1-0.4l3.9-8.8c1.1-2.4,3.5-3.9,6-3.9
			c0.9,0,1.9,0.2,2.8,0.6C616.8,245.8,618.2,249.6,616.7,252.9z"/>
		<path class="st1" d="M616.5,253.1l-10.5,22.6c-1.5,3.2-0.1,7.1,3.1,8.6h0c3.3,1.6,7.2,0.2,8.8-3.1l10.5-22.6
			c1.5-3.2,0.1-7.1-3.1-8.7v0C622,248.3,618.1,249.7,616.5,253.1z"/>
		<path class="st1" d="M628.5,258.6l-8.8,19.1c-1.6,3.4,0,7.4,3.5,8.8h0c3.2,1.3,6.9-0.1,8.4-3.3l8.9-19.1c1.5-3.2,0.1-7.1-3.1-8.7
			h0C634,253.8,630,255.2,628.5,258.6z"/>
		<path class="st1" d="M504.7,398.1l8,52.8l93.6-94.5c2.4-2.4,6.2-2.7,8.9-0.7l0,0c3.2,2.3,3.8,6.8,1.3,9.9l-14.2,17.8h55.2
			c3.3,0,6.1,2.7,6.1,6.1l0,0c0,3.3-2.7,6.1-6.1,6.1h-31.5h40.4c3.3,0,6,2.7,6,6l0,0c0,3.3-2.7,6-6,6h-41.8H662
			c3.1,0,5.6,2.5,5.6,5.6l0,0c0,3.1-2.5,5.6-5.6,5.6h-38.2h28.8c3.4,0,6.1,2.7,6.1,6.1l0,0c0,3.4-2.7,6.1-6.1,6.1h-41.9l-80.8,102
			c-22,27.8-66.4,18.4-75.3-15.9l-26.1-100.8L504.7,398.1z"/>
		<line class="st1" x1="625.9" y1="389.3" x2="623.5" y2="423.1"/>
		<polygon class="st2" points="504.7,398.1 436.3,446.1 428.6,416.2 		"/>
		<path class="st1" d="M512.7,451c0,0,13.7-3.2,13.4,2.1c-0.3,5.3-14.3,18.7-17,12.4c-2.8-6.2,29.4-16.4,30.4-2.5"/>
		<line class="st1" x1="631.5" y1="283.2" x2="606.3" y2="356.5"/>
		<line class="st1" x1="413.6" y1="401.8" x2="491.5" y2="383.4"/>
		<path class="st1" d="M340.3,503c0,0,68.4,126.1,228.5,127.8c160.1,1.7,204.7-91.9,213.1-136s-35.7-105.6-70.4-71.7
			c-36,35.1,65.8,103.8,147,59.9c73.9-40,67.9-130.1,67.9-130.1"/>
		<path class="st3" d="M264.5,301.6c-32.3-32.9-85.5-33-117.9,0.3c-31.3,32.2-30.8,84.2,1,115.8c15.6,15.5,35.8,23.5,56.2,23.9
			c17.8,0.4,34.6,8.1,47.1,20.7l14.4,14.7l56.9-55.8l-14.8-15.1c-12.3-12.5-19.4-29.2-19.4-46.7
			C288.1,338.5,280.3,317.6,264.5,301.6z"/>
		
			<rect x="269.1" y="454.5" transform="matrix(0.714 -0.7002 0.7002 0.714 -237.3125 349.9932)" class="st1" width="81.2" height="22"/>
		<path class="st1" d="M327.6,463.3c5.5,5.6,5.4,14.7-0.2,20.2c-5.6,5.5-14.6,5.4-20.2-0.2L327.6,463.3z"/>
		<path class="st1" d="M283.1,430.6c0,0-65.7-64-72.8-90c-1.9-6.9-5.4-21.4,2.9-26c7.4-4.1,15.2,2.9,18.8,8.9
			c3.5,6.1,5,13.7,5.9,20.6c1.8,13.9,1.4,32.1-8,43.5c-0.7,0.9-1.5,1.7-2.3,2.4c-17.2,15.5-59.1-10.7-49.4-23.2
			c13.3-17,93.8,85.2,93.8,85.2"/>
		<path class="st15" d="M419.7,167.8c0,0,9.3,14.1,2.2,27.1"/>
		<path class="st15" d="M143.6,388.1c0,0-11.2-28.7,0-55.6"/>
		<line class="st1" x1="1652.2" y1="760.3" x2="1678.5" y2="760.3"/>
		<line class="st1" x1="1700.7" y1="760.3" x2="1796.5" y2="760.3"/>
		
			<rect x="688.1" y="931.3" transform="matrix(0.8614 -0.5079 0.5079 0.8614 -368.3857 529.7355)" class="st1" width="196.7" height="17.1"/>
		<path class="st1" d="M702.5,979.5l-40.8-69.1l75-54.6c0,0,9.3,37.5,45.2,35.1c35.9-2.4,63.3-25.6,76.4-3.3L702.5,979.5z"/>
		<path class="st1" d="M672.4,928.5l26.3,9.6l48.2-28.4c0,0-15.8-21.4,1.1-31.4"/>
		<line class="st1" x1="800.8" y1="887.9" x2="803.7" y2="919.8"/>
		<path class="st1" d="M757,908.2c0,0,19.9-0.1,45-7.8"/>
		<polyline class="st1" points="760.7,897.7 770.3,876.2 780.7,898.9 785.1,879.2 		"/>
		<circle class="st1" cx="711.8" cy="956.8" r="4.8"/>
		<circle class="st1" cx="725" cy="949.1" r="4.8"/>
		<line class="st1" x1="710.6" y1="974.7" x2="719.3" y2="989.4"/>
		<line class="st1" x1="723.8" y1="966.9" x2="732.5" y2="981.7"/>
		<line class="st1" x1="737" y1="959.2" x2="745.7" y2="973.9"/>
		<line class="st1" x1="750.1" y1="951.4" x2="758.8" y2="966.1"/>
		<line class="st1" x1="763.3" y1="943.6" x2="772" y2="958.4"/>
		<line class="st1" x1="776.5" y1="935.8" x2="785.2" y2="950.6"/>
		<line class="st1" x1="789.7" y1="928.1" x2="798.4" y2="942.8"/>
		<line class="st1" x1="802.9" y1="920.3" x2="811.6" y2="935"/>
		<line class="st1" x1="816" y1="912.5" x2="824.7" y2="927.3"/>
		<line class="st1" x1="829.2" y1="904.7" x2="837.9" y2="919.5"/>
		<line class="st1" x1="842.4" y1="897" x2="851.1" y2="911.7"/>
		<line class="st1" x1="855.6" y1="889.2" x2="864.3" y2="903.9"/>
		<line class="st1" x1="552" y1="411.3" x2="532.8" y2="369.5"/>
		<polyline class="st1" points="559.5,495.5 590,494.1 579.3,470.6 		"/>
		<polyline class="st1" points="406.5,421.5 397.7,503 450.4,500.5 		"/>
		<path class="st3" d="M993.8,739.8h-23.9c-36.7,0-66.4-29.7-66.4-66.4V571h156.6v102.5C1060.2,710.1,1030.5,739.8,993.8,739.8z"/>
		<rect x="964.2" y="711.2" class="st3" width="35.4" height="103.3"/>
		<path class="st3" d="M1036.1,834.8H927.6c-3.1,0-5.7-2.5-5.7-5.7v-13.7c0-3.1,2.5-5.7,5.7-5.7h108.5c3.1,0,5.7,2.5,5.7,5.7v13.7
			C1041.8,832.3,1039.2,834.8,1036.1,834.8z"/>
		<path class="st22" d="M1077.3,683.4H886.4c-17.2,0-31.1-13.9-31.1-31.1v-2c0-17.2,13.9-31.1,31.1-31.1h190.9
			c17.2,0,31.1,13.9,31.1,31.1v2C1108.4,669.4,1094.5,683.4,1077.3,683.4z"/>
		<polyline class="st1" points="956.8,640.2 981.9,670.6 1006.7,615.4 		"/>
		<line class="st7" x1="808.9" y1="540.1" x2="851.5" y2="583.8"/>
		<line class="st7" x1="810.4" y1="591.3" x2="843.4" y2="600.9"/>
		<path class="st20" d="M1231.9,234.7c82.6,28.3,145.6,98.7,163.4,185.7"/>
		<g>
			<g>
				<path class="st23" d="M1032.2,251.4c34.7-18.8,74.3-29.7,116.4-30.1"/>
				<g>
					<path class="st11" d="M1135.2,231.1c-0.3-0.5-0.2-1.1,0.3-1.4l12.8-8.4l-13-8c-0.5-0.3-0.6-0.9-0.3-1.4
						c0.3-0.5,0.9-0.6,1.4-0.3l14.4,8.8c0.3,0.2,0.5,0.5,0.5,0.8c0,0.3-0.2,0.7-0.4,0.9l-14.1,9.3c-0.2,0.1-0.3,0.2-0.5,0.2
						C1135.7,231.6,1135.4,231.4,1135.2,231.1z"/>
				</g>
			</g>
		</g>
		<g>
			<g>
				<path class="st23" d="M1390.6,540.1C1360.7,643.3,1266,718.9,1153.5,720"/>
				<g>
					<path class="st11" d="M1166.9,710c0.3,0.5,0.2,1.1-0.3,1.4l-12.7,8.5l13.1,7.9c0.5,0.3,0.6,0.9,0.3,1.4s-0.9,0.6-1.4,0.3
						l-14.4-8.8c-0.3-0.2-0.5-0.5-0.5-0.8c0-0.3,0.2-0.7,0.4-0.9l14-9.4c0.2-0.1,0.3-0.2,0.5-0.2
						C1166.4,709.6,1166.7,709.7,1166.9,710z"/>
				</g>
			</g>
		</g>
		<path class="st24" d="M1328.4,804.8c-52.9,28.1-113.2,44-177.3,44c-26.1,0-51.6-2.6-76.2-7.7"/>
		<path class="st1" d="M1484.5,292c22.1,41.2,36.8,86.9,42.3,135.4"/>
		<path class="st24" d="M1064.2,102.5c27.9-6.6,57-10,86.9-10c54.9,0,107.1,11.7,154.1,32.7"/>
		<line class="st1" x1="829.2" y1="1032.6" x2="1031.8" y2="1032.6"/>
		<line class="st1" x1="1153" y1="1032.6" x2="1796.5" y2="1032.6"/>
		<line class="st1" x1="289.6" y1="1032.6" x2="123.5" y2="1032.6"/>
		<g>
			<ellipse class="st1" cx="1150.1" cy="409.6" rx="55.6" ry="7.4"/>
			<path class="st1" d="M1205.7,450.3c0,4.1-24.9,7.4-55.6,7.4c-30.7,0-55.6-3.3-55.6-7.4"/>
			<path class="st1" d="M1169.7,477.6c-6.1,0.3-12.7,0.5-19.6,0.5c-18.4,0-34.7-1.2-44.8-3"/>
			<path class="st1" d="M1205.7,491c0,4.1-24.9,7.4-55.6,7.4c-30.7,0-55.6-3.3-55.6-7.4"/>
			<path class="st1" d="M1205.7,409.6v122c0,0,0,0,0,0c0,4.1-24.9,7.5-55.6,7.5c-15.4,0-29.3-0.8-39.3-2.2
				c-10.1-1.3-16.3-3.2-16.3-5.3V409.6c0,4.1,24.9,7.5,55.6,7.5C1180.8,417.1,1205.7,413.7,1205.7,409.6z"/>
			<circle class="st0" cx="1187.2" cy="476.4" r="3.2"/>
			<path class="st1" d="M1205.7,409.6c0,4.1-24.9,7.4-55.6,7.4s-55.6-3.3-55.6-7.4"/>
			<path class="st1" d="M1169.7,436.9c-6.1,0.3-12.7,0.5-19.6,0.5c-18.4,0-34.7-1.2-44.8-3"/>
			<path class="st1" d="M1205.7,450.3c0,4.1-24.9,7.4-55.6,7.4s-55.6-3.3-55.6-7.4"/>
			<circle class="st0" cx="1187.2" cy="435.7" r="3.2"/>
			<path class="st1" d="M1205.7,491c0,4.1-24.9,7.4-55.6,7.4s-55.6-3.3-55.6-7.4"/>
			<path class="st1" d="M1169.7,518.3c-6.1,0.3-12.7,0.5-19.6,0.5c-18.4,0-34.7-1.2-44.8-3"/>
			<path class="st1" d="M1205.7,531.7c0,4.1-24.9,7.4-55.6,7.4s-55.6-3.3-55.6-7.4"/>
			<circle class="st0" cx="1187.2" cy="517.1" r="3.2"/>
		</g>
		<g>
			<path class="st3" d="M1304.9,408.5c-27.5-6.7-33.4-13.9-38.4-49.4c-0.2-1.3-2.1-1.3-2.3,0c-5.1,35.5-10.9,42.6-38.4,49.4
				c-1.2,0.3-1.2,2,0,2.3c27.5,6.7,33.4,13.9,38.4,49.4c0.2,1.3,2.1,1.3,2.3,0c5.1-35.5,10.9-42.6,38.4-49.4
				C1306.1,410.4,1306.1,408.8,1304.9,408.5z"/>
			<path class="st3" d="M1228.5,353.5c-15.8-3.9-19.1-8-22-28.3c-0.1-0.8-1.2-0.8-1.3,0c-2.9,20.3-6.2,24.4-22,28.3
				c-0.7,0.2-0.7,1.1,0,1.3c15.8,3.9,19.1,8,22,28.3c0.1,0.8,1.2,0.8,1.3,0c2.9-20.3,6.2-24.4,22-28.3
				C1229.2,354.6,1229.2,353.6,1228.5,353.5z"/>
		</g>
	</g>
</g>
</svg>
