<?xml version="1.0" encoding="utf-8"?>
<!-- Generator: Adobe Illustrator 26.0.2, SVG Export Plug-In . SVG Version: 6.00 Build 0)  -->
<svg version="1.1" id="Layer_1" xmlns="http://www.w3.org/2000/svg" xmlns:xlink="http://www.w3.org/1999/xlink" x="0px" y="0px"
	 viewBox="0 0 628 628" style="enable-background:new 0 0 628 628;" xml:space="preserve">
<style type="text/css">
	.st0{fill:#77B1FF;}
	.st1{clip-path:url(#SVGID_00000103260811973625100170000013752731794444392383_);}
	.st2{fill:none;stroke:#FFFFFF;stroke-width:2;stroke-linecap:round;stroke-linejoin:round;stroke-miterlimit:10;}
	.st3{fill:none;stroke:#29004E;stroke-width:2;stroke-linecap:round;stroke-linejoin:round;stroke-miterlimit:10;}
	.st4{fill:#29004E;stroke:#29004E;stroke-width:2;stroke-linecap:round;stroke-linejoin:round;stroke-miterlimit:10;}
	.st5{fill:#FDA132;}
	.st6{fill:none;stroke:#FDA132;stroke-width:6;stroke-miterlimit:10;}
	.st7{fill:none;stroke:#77B1FF;stroke-width:2;stroke-miterlimit:10;}
	.st8{fill:none;stroke:#77B1FF;stroke-width:2;stroke-linecap:round;stroke-linejoin:round;stroke-miterlimit:10;}
	.st9{opacity:0.2;fill:#29004E;}
	.st10{fill:none;stroke:#FDA132;stroke-width:2;stroke-linecap:round;stroke-linejoin:round;stroke-miterlimit:10;}
	.st11{display:none;fill:#FDA132;}
	.st12{opacity:0.2;fill:#29004E;stroke:#29004E;stroke-width:2;stroke-linecap:round;stroke-linejoin:round;stroke-miterlimit:10;}
</style>
<g>
	<rect x="192.9" y="257.9" class="st3" width="49.7" height="63.5"/>
	<rect x="267.2" y="289.7" class="st5" width="49.7" height="31.8"/>
	<path class="st0" d="M182.6,345.5L98.2,455.2l20.8,16l45.8-59.5l38.6-50.1C195.8,357,188.9,351.6,182.6,345.5z"/>
	<path class="st0" d="M259.7,156.8c-60.8,0-110.1,49.3-110.1,110.1S198.9,377,259.7,377c60.8,0,110.1-49.3,110.1-110.1
		S320.5,156.8,259.7,156.8z M259.7,361.8c-52.4,0-94.9-42.5-94.9-94.9s42.5-94.9,94.9-94.9s94.9,42.5,94.9,94.9
		S312.1,361.8,259.7,361.8z"/>
	<path class="st9" d="M182.6,345.5l9.7,30.4l11.1-14.4C203.4,361.5,189.8,353.9,182.6,345.5z"/>
	<polyline class="st3" points="320.1,283.3 332.1,262.4 529.8,262.4 	"/>
	<line class="st3" x1="387.4" y1="209.4" x2="529.8" y2="209.4"/>
	<line class="st3" x1="387.4" y1="182.9" x2="462.5" y2="182.9"/>
	<line class="st3" x1="480.1" y1="182.9" x2="529.8" y2="182.9"/>
	<rect x="387.4" y="230.9" class="st0" width="44.3" height="13.7"/>
	<rect x="450.5" y="230.9" class="st10" width="79.3" height="14.4"/>
</g>
</svg>
