<?xml version="1.0" encoding="utf-8"?>
<!-- Generator: Adobe Illustrator 26.0.2, SVG Export Plug-In . SVG Version: 6.00 Build 0)  -->
<svg version="1.1" id="Layer_1" xmlns="http://www.w3.org/2000/svg" xmlns:xlink="http://www.w3.org/1999/xlink" x="0px" y="0px"
	 viewBox="0 0 628 628" style="enable-background:new 0 0 628 628;" xml:space="preserve">
<style type="text/css">
	.st0{fill:#77B1FF;}
	.st1{clip-path:url(#SVGID_00000008832728548047419090000006499663506389374367_);}
	.st2{fill:none;stroke:#FFFFFF;stroke-width:2;stroke-linecap:round;stroke-linejoin:round;stroke-miterlimit:10;}
	.st3{fill:none;stroke:#29004E;stroke-width:2;stroke-linecap:round;stroke-linejoin:round;stroke-miterlimit:10;}
	.st4{fill:#29004E;stroke:#29004E;stroke-width:2;stroke-linecap:round;stroke-linejoin:round;stroke-miterlimit:10;}
	.st5{fill:#FDA132;}
	.st6{fill:none;stroke:#FDA132;stroke-width:6;stroke-miterlimit:10;}
	.st7{fill:none;stroke:#77B1FF;stroke-width:2;stroke-miterlimit:10;}
	.st8{fill:none;stroke:#77B1FF;stroke-width:2;stroke-linecap:round;stroke-linejoin:round;stroke-miterlimit:10;}
	.st9{opacity:0.2;fill:#29004E;}
	.st10{fill:none;stroke:#FDA132;stroke-width:2;stroke-linecap:round;stroke-linejoin:round;stroke-miterlimit:10;}
	.st11{display:none;fill:#FDA132;}
	.st12{opacity:0.2;fill:#29004E;stroke:#29004E;stroke-width:2;stroke-linecap:round;stroke-linejoin:round;stroke-miterlimit:10;}
</style>
<g>
	<polygon class="st3" points="439.5,351.9 504.9,351.9 504.9,243.3 90.3,243.3 90.3,351.9 419.3,351.9 	"/>
	<path class="st5" d="M299.2,268.6l5.7,17.4c0.2,0.7,0.9,1.2,1.6,1.2h18.3c1.6,0,2.3,2.1,1,3l-14.8,10.7c-0.6,0.4-0.8,1.2-0.6,1.9
		l5.7,17.4c0.5,1.5-1.3,2.8-2.6,1.9l-14.8-10.7c-0.6-0.4-1.4-0.4-2,0L281.8,322c-1.3,1-3.1-0.3-2.6-1.9l5.7-17.4
		c0.2-0.7,0-1.4-0.6-1.9l-14.8-10.7c-1.3-1-0.6-3,1-3h18.3c0.7,0,1.4-0.5,1.6-1.2l5.7-17.4C296.5,267.1,298.7,267.1,299.2,268.6z"/>
	<path class="st5" d="M225.5,268.6l5.7,17.4c0.2,0.7,0.9,1.2,1.6,1.2H251c1.6,0,2.3,2.1,1,3l-14.8,10.7c-0.6,0.4-0.8,1.2-0.6,1.9
		l5.7,17.4c0.5,1.5-1.3,2.8-2.6,1.9l-14.8-10.7c-0.6-0.4-1.4-0.4-2,0L208.1,322c-1.3,1-3.1-0.3-2.6-1.9l5.7-17.4
		c0.2-0.7,0-1.4-0.6-1.9l-14.8-10.7c-1.3-1-0.6-3,1-3h18.3c0.7,0,1.4-0.5,1.6-1.2l5.7-17.4C222.8,267.1,225,267.1,225.5,268.6z"/>
	<path class="st5" d="M151.8,268.6l5.7,17.4c0.2,0.7,0.9,1.2,1.6,1.2h18.3c1.6,0,2.3,2.1,1,3l-14.8,10.7c-0.6,0.4-0.8,1.2-0.6,1.9
		l5.7,17.4c0.5,1.5-1.3,2.8-2.6,1.9l-14.8-10.7c-0.6-0.4-1.4-0.4-2,0L134.4,322c-1.3,1-3.1-0.3-2.6-1.9l5.7-17.4
		c0.2-0.7,0-1.4-0.6-1.9l-14.8-10.7c-1.3-1-0.6-3,1-3h18.3c0.7,0,1.4-0.5,1.6-1.2l5.7-17.4C149.1,267.1,151.3,267.1,151.8,268.6z"/>
	<path class="st5" d="M369.7,268.6l-5.7,17.4c-0.2,0.7-0.9,1.2-1.6,1.2h-18.3c-1.6,0-2.3,2.1-1,3l14.8,10.7c0.6,0.4,0.8,1.2,0.6,1.9
		l-5.7,17.4c-0.5,1.5,1.3,2.8,2.6,1.9l14.8-10.7c0.6-0.4,1.4-0.4,2,0l14.8,10.7c1.3,1,3.1-0.3,2.6-1.9l-5.7-17.4
		c-0.2-0.7,0-1.4,0.6-1.9l14.8-10.7c1.3-1,0.6-3-1-3h-18.3c-0.7,0-1.4-0.5-1.6-1.2l-5.7-17.4C372.4,267.1,370.2,267.1,369.7,268.6z"
		/>
	<path class="st5" d="M443.4,268.6l-5.7,17.4c-0.2,0.7-0.9,1.2-1.6,1.2h-18.3c-1.6,0-2.3,2.1-1,3l14.8,10.7c0.6,0.4,0.8,1.2,0.6,1.9
		l-5.7,17.4c-0.5,1.5,1.3,2.8,2.6,1.9l14.8-10.7c0.6-0.4,1.4-0.4,2,0l14.8,10.7c1.3,1,3.1-0.3,2.6-1.9l-5.7-17.4
		c-0.2-0.7,0-1.4,0.6-1.9l14.8-10.7c1.3-1,0.6-3-1-3h-18.3c-0.7,0-1.4-0.5-1.6-1.2l-5.7-17.4C446.1,267.1,443.9,267.1,443.4,268.6z"
		/>
	<polygon class="st4" points="504.9,276.1 504.9,351.9 439.5,351.9 419.3,351.9 413.3,351.9 123.1,351.9 123.1,384.7 429.7,384.7 
		455.1,384.7 537.7,384.7 537.7,276.1 	"/>
</g>
</svg>
