<?xml version="1.0" encoding="utf-8"?>
<!-- Generator: Adobe Illustrator 26.0.2, SVG Export Plug-In . SVG Version: 6.00 Build 0)  -->
<svg version="1.1" xmlns="http://www.w3.org/2000/svg" xmlns:xlink="http://www.w3.org/1999/xlink" x="0px" y="0px"
	 viewBox="0 0 1500 1080" style="enable-background:new 0 0 1500 1080;" xml:space="preserve">
<style type="text/css">
	.st0{fill:#84B0FB;}
	.st1{fill:none;stroke:#25014B;stroke-width:2;stroke-linecap:round;stroke-linejoin:round;stroke-miterlimit:10;}
	.st2{opacity:0.2;fill:#25014B;stroke:#25014B;stroke-width:2;stroke-linecap:round;stroke-linejoin:round;stroke-miterlimit:10;}
	.st3{fill:#F1A64C;}
	.st4{clip-path:url(#SVGID_00000059998918348787784660000002417414273967497611_);}
	.st5{fill:none;stroke:#84B0FB;stroke-width:2;stroke-linecap:round;stroke-linejoin:round;stroke-miterlimit:10;}
	.st6{fill:#25014B;stroke:#25014B;stroke-width:2;stroke-linecap:round;stroke-linejoin:round;stroke-miterlimit:10;}
	.st7{fill:none;stroke:#F1A64C;stroke-width:2;stroke-linecap:round;stroke-linejoin:round;stroke-miterlimit:10;}
	.st8{opacity:0.2;fill:#25014B;}
	.st9{fill:#FFFFFF;stroke:#FFFFFF;stroke-width:2;stroke-linecap:round;stroke-linejoin:round;stroke-miterlimit:10;}
	.st10{opacity:0.2;}
	.st11{fill:#25014B;}
	.st12{clip-path:url(#SVGID_00000026886339804179444980000007402521977475148461_);}
	.st13{fill:#0656FD;stroke:#0656FD;stroke-miterlimit:10;}
	.st14{fill:none;stroke:#0656FD;stroke-width:10;stroke-miterlimit:10;}
	.st15{fill:none;stroke:#FFFFFF;stroke-width:2;stroke-linecap:round;stroke-linejoin:round;stroke-miterlimit:10;}
	.st16{fill:none;stroke:#84B0FB;stroke-width:2;stroke-miterlimit:10;}
	.st17{clip-path:url(#SVGID_00000134936112265448414050000004609505061969040816_);}
	.st18{clip-path:url(#SVGID_00000111167076522416235270000004221549382342457510_);}
	.st19{fill:none;stroke:#F1A64C;stroke-width:10;stroke-miterlimit:10;}
	
		.st20{fill:none;stroke:#25014B;stroke-width:2;stroke-linecap:round;stroke-linejoin:round;stroke-miterlimit:10;stroke-dasharray:20;}
	.st21{clip-path:url(#SVGID_00000085931372331824303210000008504485863306337693_);}
	.st22{fill:none;stroke:#F1A64C;stroke-width:6;stroke-miterlimit:10;}
	.st23{fill:none;stroke:#25014B;stroke-width:2;stroke-linecap:round;stroke-linejoin:round;}
	
		.st24{fill:none;stroke:#25014B;stroke-width:11;stroke-linecap:round;stroke-linejoin:round;stroke-miterlimit:10;stroke-dasharray:0,28,0,0;}
</style>
<g id="Safety">
	<g>
		<rect x="995.1" y="976.3" class="st0" width="258.6" height="26.9"/>
		<polyline class="st1" points="157,706.7 157,499.3 196.2,499.3 196.2,392.8 666.8,392.8 666.8,823.9 592.1,823.9 592.1,914.6 
			157,914.6 157,808.3 		"/>
		<g>
			<path class="st1" d="M587.1,296.7v96.2h-67v-96.2c0-59.7-48.6-108.2-108.2-108.2c-59.7,0-108.2,48.6-108.2,108.2v96.2h-67v-96.2
				c0-96.6,78.6-175.2,175.2-175.2S587.1,200,587.1,296.7z"/>
		</g>
		<line class="st1" x1="705.8" y1="233.5" x2="731.5" y2="305.4"/>
		<line class="st1" x1="697.1" y1="301.8" x2="718.6" y2="324.9"/>
		<polygon class="st2" points="236.6,392.8 303.6,354.3 303.6,392.8 		"/>
		<polygon class="st2" points="520.1,392.8 587.1,354.3 587.1,392.8 		"/>
		<polyline class="st1" points="42.7,346.7 42.7,499.3 196.2,499.3 196.2,303 86.3,303 		"/>
		<polygon class="st1" points="86.3,346.7 42.7,346.7 86.3,303 86.3,303 		"/>
		<line class="st1" x1="101.9" y1="335.4" x2="170" y2="335.4"/>
		<line class="st1" x1="101.9" y1="375.4" x2="170" y2="375.4"/>
		<line class="st1" x1="64.5" y1="415.4" x2="170" y2="415.4"/>
		<line class="st1" x1="64.5" y1="455.4" x2="114.2" y2="455.4"/>
		<line class="st1" x1="133.4" y1="455.4" x2="170" y2="455.4"/>
		<line class="st1" x1="64.5" y1="375.4" x2="86.3" y2="375.4"/>
		<polygon class="st2" points="196.2,499.3 157,521.7 157,499.3 		"/>
		<rect x="592.1" y="823.9" class="st1" width="342.6" height="167.3"/>
		<line class="st1" x1="621.9" y1="947.6" x2="905" y2="947.6"/>
		<line class="st1" x1="621.9" y1="867.6" x2="905" y2="867.6"/>
		<circle class="st0" cx="839.9" cy="867.6" r="14.1"/>
		<circle class="st3" cx="774.5" cy="947.6" r="12.2"/>
		<path class="st0" d="M411.9,436.9c0,0-48.8,107-175.2,121.1c0,0-5,182,175.2,298.8V436.9z"/>
		<path class="st0" d="M411.9,436.9c0,0,48.8,107,175.2,121.1c0,0,5,182-175.2,298.8V436.9z"/>
		<g>
			<defs>
				<path id="SVGID_1_" d="M697.3,691.6l70.8-223.9c14-44.3,70.4-57.3,102.4-23.5l84.6,89.2l45.7-59.6l63.7,71.9L995,658.3
					c-13.4,21.7-43.1,26-62.1,9.2l-50.4-44.6L697.3,691.6z"/>
			</defs>
			<clipPath id="SVGID_00000013874842822141589080000003089022994519740325_">
				<use xlink:href="#SVGID_1_"  style="overflow:visible;"/>
			</clipPath>
			<g style="clip-path:url(#SVGID_00000013874842822141589080000003089022994519740325_);">
				<g>
					<line class="st5" x1="724.4" y1="345.8" x2="724.4" y2="705.7"/>
					<line class="st5" x1="782.2" y1="345.8" x2="782.2" y2="705.7"/>
					<line class="st5" x1="840" y1="345.8" x2="840" y2="705.7"/>
					<line class="st5" x1="897.8" y1="345.8" x2="897.8" y2="705.7"/>
					<line class="st5" x1="955.6" y1="345.8" x2="955.6" y2="705.7"/>
					<line class="st5" x1="1013.3" y1="345.8" x2="1013.3" y2="705.7"/>
					<line class="st5" x1="1071.1" y1="345.8" x2="1071.1" y2="705.7"/>
				</g>
				<g>
					<line class="st5" x1="1077.7" y1="352.4" x2="679.9" y2="352.4"/>
					<line class="st5" x1="1077.7" y1="410.2" x2="679.9" y2="410.2"/>
					<line class="st5" x1="1077.7" y1="468" x2="679.9" y2="468"/>
					<line class="st5" x1="1077.7" y1="525.8" x2="679.9" y2="525.8"/>
					<line class="st5" x1="1077.7" y1="583.6" x2="679.9" y2="583.6"/>
					<line class="st5" x1="1077.7" y1="641.3" x2="679.9" y2="641.3"/>
					<line class="st5" x1="1077.7" y1="699.1" x2="679.9" y2="699.1"/>
				</g>
			</g>
		</g>
		<path class="st1" d="M697.3,691.6l70.8-223.9c14-44.3,70.4-57.3,102.4-23.5l84.6,89.2l45.7-59.6l63.7,71.9L995,658.3
			c-13.4,21.7-43.1,26-62.1,9.2l-50.4-44.6L697.3,691.6z"/>
		<line class="st1" x1="882.5" y1="622.9" x2="804.7" y2="539.3"/>
		<path class="st1" d="M724.2,681.7l-12.4,42.7c-14.5,49.8,22.9,99.5,74.7,99.5h0c40.9,0,81.4-8.1,119.1-23.9l84.8-35.5v82.8h165.1
			l176.4-82.8l-161.8-298"/>
		<line class="st1" x1="1074.8" y1="573.7" x2="1155.4" y2="847.4"/>
		<line class="st1" x1="1031.7" y1="599" x2="1080.6" y2="593.3"/>
		<line class="st1" x1="990.4" y1="764.5" x2="990.4" y2="732.6"/>
		<path class="st1" d="M1064.5,545.8l25.2-36.8h43.3c4.9,0,8.8-4,8.8-8.8v0c0-4.9-4-8.8-8.8-8.8h-33.2h47c4.8,0,8.7-3.9,8.7-8.7l0,0
			c0-4.8-3.9-8.7-8.7-8.7H1099h61.2c5.4,0,9.7-4.4,9.7-9.7l0,0c0-5.4-4.4-9.7-9.7-9.7h-59.8h55c5.4,0,9.7-4.4,9.7-9.7l0,0
			c0-5.4-4.4-9.7-9.7-9.7h-127.1l-27.6,38.9"/>
		<line class="st1" x1="1101.1" y1="444.5" x2="1096.6" y2="494.9"/>
		<line class="st1" x1="1088.7" y1="457.6" x2="1085.4" y2="479.9"/>
		<path class="st1" d="M1002.5,416.2h264.3l0,0c0,10.3-8.4,18.7-18.7,18.7h-226.8C1010.9,434.9,1002.5,426.5,1002.5,416.2
			L1002.5,416.2z"/>
		<path class="st6" d="M1122.8,416.2h143.9l0,0c0,10.3-8.4,18.7-18.7,18.7h-106.5C1131.2,434.9,1122.8,426.5,1122.8,416.2
			L1122.8,416.2z"/>
		<path class="st1" d="M1158.7,293.6l-35.9,122.6h143.9l33.9-115.7c2.3-7.9-3.6-15.8-11.8-15.8h-118.3
			C1165.1,284.7,1160.2,288.3,1158.7,293.6z"/>
		<g>
			<path class="st3" d="M1210.6,291.8l56.3,97.5l25.4-86.8c1.6-5.4-2.4-10.7-8-10.7H1210.6z"/>
			<path class="st3" d="M1153.4,338.2l-17.6,60.2c-1.6,5.4,2.4,10.7,8,10.7h50.5L1153.4,338.2z"/>
			<path class="st3" d="M1202.6,409.1h49.1L1184,291.8h-10.8c-3.7,0-7,2.4-8,6l-9,30.9L1202.6,409.1z"/>
		</g>
		<g>
			<rect x="987.4" y="968.6" class="st1" width="257.1" height="22.4"/>
			<path class="st1" d="M1231.6,968.6H995.1V847.4h118.1c-0.7,3.5-3.7,21.3,1.6,39.5c2.1,7.1,5.4,14.3,10.7,20.7
				c3.3,4,7.3,7.7,12.2,10.9c1.7,1.1,3.6,2.2,5.5,3.2c0.2,0.1,0.4,0.2,0.7,0.3C1185.9,942.7,1231.6,934.9,1231.6,968.6z"/>
			<path class="st1" d="M995.1,891.2l23.3,28.2h73.1c0,0-2.3-32.6,23.4-32.6"/>
			<line class="st1" x1="1166.7" y1="930.8" x2="1148.7" y2="968.6"/>
			<path class="st1" d="M1103.8,924.5c0,0,22.4,13.1,55.8,21"/>
			<polyline class="st1" points="1114.9,915.2 1140.1,897.3 1136.7,929.8 1154.7,910.5 			"/>
			<circle class="st1" cx="1020.7" cy="949.3" r="6.2"/>
			<circle class="st1" cx="1040.7" cy="949.3" r="6.2"/>
			<line class="st1" x1="1007.4" y1="968.6" x2="1007.4" y2="991"/>
			<line class="st1" x1="1027.4" y1="968.6" x2="1027.4" y2="991"/>
			<line class="st1" x1="1047.4" y1="968.6" x2="1047.4" y2="991"/>
			<line class="st1" x1="1067.4" y1="968.6" x2="1067.4" y2="991"/>
			<line class="st1" x1="1087.4" y1="968.6" x2="1087.4" y2="991"/>
			<line class="st1" x1="1107.4" y1="968.6" x2="1107.4" y2="991"/>
			<line class="st1" x1="1127.4" y1="968.6" x2="1127.4" y2="991"/>
			<line class="st1" x1="1147.4" y1="968.6" x2="1147.4" y2="991"/>
			<line class="st1" x1="1167.4" y1="968.6" x2="1167.4" y2="991"/>
			<line class="st1" x1="1187.4" y1="968.6" x2="1187.4" y2="991"/>
			<line class="st1" x1="1207.4" y1="968.6" x2="1207.4" y2="991"/>
			<line class="st1" x1="1227.4" y1="968.6" x2="1227.4" y2="991"/>
		</g>
		<g>
			
				<rect x="1223.8" y="870.5" transform="matrix(0.8913 -0.4534 0.4534 0.8913 -253.7915 704.6722)" class="st0" width="238.3" height="22.4"/>
			
				<rect x="1209.2" y="861.5" transform="matrix(0.8913 -0.4534 0.4534 0.8913 -250.2685 701.3207)" class="st1" width="257.1" height="22.4"/>
			<path class="st1" d="M1435.7,810.3l-3.8,1.9v0l-17.8,9.1l-17.8,9.1l-17.8,9.1l-16.7,8.5l-1.1,0.6l-17.8,9.1l-17.8,9.1l-17.8,9.1
				l-17.8,9.1l-17.8,9.1l-35.7,18.1l-11,5.6l-35.1-68.9l-7.1-14l106.9-50.2c1.5,2,3.2,4.1,5,6c5.1,5.4,11.3,10.3,19,13.6
				c4.7,2.1,10,3.5,15.8,4.1c2.1,0.2,4.2,0.3,6.4,0.3c0.2,0,0.5,0,0.7,0c8.4-0.1,16.5-1,24.2-2.4
				C1395.9,799.8,1423.2,785.7,1435.7,810.3z"/>
			<path class="st1" d="M1189.8,848.6l33.6,14.6l65.1-33.1c0,0-16.8-28,6.1-39.7"/>
			<line class="st1" x1="1360.7" y1="806" x2="1361.8" y2="847.9"/>
			<path class="st1" d="M1301.8,828.9c0,0,25.9,1.5,59.3-6.6"/>
			<polyline class="st1" points="1307.4,815.6 1321.8,788.2 1333.5,818.8 1340.8,793.4 			"/>
			<circle class="st1" cx="1239" cy="888.7" r="6.2"/>
			<circle class="st1" cx="1256.8" cy="879.7" r="6.2"/>
			<line class="st1" x1="1235.9" y1="911.9" x2="1246" y2="931.9"/>
			<line class="st1" x1="1253.7" y1="902.9" x2="1263.9" y2="922.8"/>
			<line class="st1" x1="1271.5" y1="893.8" x2="1281.7" y2="913.7"/>
			<line class="st1" x1="1289.4" y1="884.7" x2="1299.5" y2="904.7"/>
			<line class="st1" x1="1307.2" y1="875.6" x2="1317.3" y2="895.6"/>
			<line class="st1" x1="1325" y1="866.6" x2="1335.2" y2="886.5"/>
			<line class="st1" x1="1342.8" y1="857.5" x2="1353" y2="877.5"/>
			<line class="st1" x1="1360.7" y1="848.4" x2="1370.8" y2="868.4"/>
			<line class="st1" x1="1378.5" y1="839.4" x2="1388.6" y2="859.3"/>
			<line class="st1" x1="1396.3" y1="830.3" x2="1406.5" y2="850.3"/>
			<line class="st1" x1="1414.1" y1="821.2" x2="1424.3" y2="841.2"/>
			<line class="st1" x1="1432" y1="812.2" x2="1442.1" y2="832.1"/>
		</g>
		<path class="st1" d="M832.3,371.5c-4.8-4-10.4-7.3-10-14.1c0.4-7.2,6.1-13.1,13.3-13.5c6.2-0.3,11.6,3.3,13.8,8.6
			c0,0,33.1,14.8,41.7-32.2c0,0,27.7,6.6,15.2,42.2l5.1,6c2.8,3.3,1.1,8.4-3.2,9.3l-5.4,1.1l-4.8,28.6c-1.6,9.4-11.1,15.2-20.2,12.3
			l-6.1-2l-8.9,19.8c0,0-7.8-6.4-21.6-10.4C841.3,427,868.9,401.9,832.3,371.5z"/>
		<line class="st1" x1="832" y1="352.7" x2="839.7" y2="363"/>
		<path class="st1" d="M882,353.7c0,0,3.8-8.4,11.3-5"/>
		<path class="st1" d="M870,370.9c0,0,7.1,17.1,23.3,15"/>
		<polygon class="st2" points="871.9,417.7 856,409.6 863.5,436.1 		"/>
		<path class="st2" d="M873.7,376.9c0,0,6.9-3.5,9.2-1.7c2.3,1.9,2,5,2,5s3.3-4.1,6.3-2.8c2.9,1.3,2.2,8.4,2.2,8.4s-6,11.3-13.2,8.1
			C873,390.6,873.7,376.9,873.7,376.9z"/>
		
			<ellipse transform="matrix(0.2291 -0.9734 0.9734 0.2291 336.3141 1144.2416)" class="st6" cx="890.5" cy="359.8" rx="1.8" ry="1"/>
		<path class="st6" d="M909.2,350.8c3.3-25.5-18.1-30.6-18.1-30.6c-8.6,47-41.7,32.2-41.7,32.2c-2.2-5.3-7.6-8.9-13.8-8.6
			c-7.2,0.4-13,6.3-13.3,13.5c-0.3,6.8,5.2,10.1,10,14.1c36.5,30.4,9,55.5,9,55.5c-5.9,7.7-17.8,10.2-34.1,11.8
			c-16.3,1.6-29,18.1-20.9,40.3c8.1,22.3-13.8,40.6-13.8,40.6l-141.3-34.3c0-26.5-1.4-36.6,23.1-48.5c24.5-11.9,18.9-42.4,31.5-58.1
			c12.7-15.7,28.2-15.6,67-21c38.8-5.4,25.3-42.5,65.9-58.5c40.5-16,74.6,14,74.6,14s28.3-2.6,29.8,15.5
			C924.7,346.9,909.2,350.8,909.2,350.8z"/>
		<polyline class="st1" points="890.5,296.2 893.4,313.4 901.4,302.4 		"/>
		<path class="st6" d="M861.4,436.3c0.1,0.1,0.2,0.2,0.4,0.2C861.7,436.5,861.5,436.4,861.4,436.3L861.4,436.3z"/>
		<path class="st6" d="M861.8,436.6c0.5,0.4,0.9,0.7,1.1,0.8C862.5,437.1,862.1,436.8,861.8,436.6z"/>
		<path class="st6" d="M892.9,467.9l-22.4-23.7c-2.4-2.5-4.9-4.8-7.6-6.8l8.9-19.8l6.1,2c5.6,1.8,11.4,0.3,15.4-3.4
			C899.3,423.7,910.7,443.4,892.9,467.9z"/>
		<polygon class="st2" points="1113.3,847.4 995.1,875.6 995.1,847.4 		"/>
		<polygon class="st0" points="968.6,88 968.6,128 927.7,128 927.7,168.9 887.7,168.9 887.7,88 		"/>
		<polygon class="st1" points="1128.1,128 927.7,128 927.7,286.9 1033.5,286.9 1068.8,338.2 1068.8,286.9 1128.1,286.9 		"/>
		<rect x="1128.1" y="176.4" class="st6" width="46" height="26"/>
		<rect x="959.9" y="176.4" class="st1" width="168.2" height="26"/>
		<rect x="959.9" y="226.4" class="st7" width="101.3" height="26"/>
		<polygon class="st2" points="1000.8,473.9 1077.4,526.9 1064.5,545.8 		"/>
		<rect x="51.1" y="701.4" class="st3" width="145.1" height="145.1"/>
		<g>
			<path class="st1" d="M155.9,747.2c2,4.5,3.2,9.4,3.2,14.6V774"/>
			<g>
				<path class="st1" d="M101.6,813.8c-8.1-6.5-13.4-16.5-13.4-27.7v-24.3c0-8.5,3-16.4,8.1-22.5"/>
				<path class="st1" d="M159,786.1c0,19.5-15.8,35.4-35.4,35.4h0c-4.2,0-8.2-0.7-11.9-2"/>
				<path class="st1" d="M104.9,731.8c5.4-3.4,11.8-5.3,18.7-5.3h0c10.6,0,20.2,4.7,26.7,12.1"/>
				<path class="st1" d="M111.6,784.6v-21.4c0-6.7,5.4-12.1,12.1-12.1h0c6.7,0,12.1,5.4,12.1,12.1v17c0,3.1,2.5,5.7,5.7,5.7h0
					c3.1,0,5.7-2.5,5.7-5.7V762c0-12.9-10.5-23.4-23.4-23.4h0c-12.9,0-23.4,10.5-23.4,23.4v23.9c0,6.5,2.6,12.3,6.9,16.6"/>
				<path class="st1" d="M123.6,760.6v15c0,12.2,7.3,23.2,18.5,28l0.4,0.2"/>
				<path class="st1" d="M114.5,797.6c3.1,6.6,8.6,12,15.6,15l0.4,0.2"/>
			</g>
		</g>
		<path class="st1" d="M156.6,721.4h11.8c4.3,0,7.8,3.5,7.8,7.8V741"/>
		<path class="st1" d="M156.6,826.5h11.8c4.3,0,7.8-3.5,7.8-7.8v-11.8"/>
		<path class="st1" d="M71.1,741v-11.8c0-4.3,3.5-7.8,7.8-7.8h11.8"/>
		<path class="st1" d="M71.1,806.9v11.8c0,4.3,3.5,7.8,7.8,7.8h11.8"/>
		<polygon class="st8" points="196.2,846.5 157,866.8 157,846.5 		"/>
		<line class="st1" x1="411.9" y1="436.9" x2="411.9" y2="856.8"/>
	</g>
</g>
<g id="Significant_cost_savings">
</g>
<g id="Successful_result">
</g>
<g id="Speed">
</g>
<g id="Home_page">
</g>
</svg>
