<?xml version="1.0" encoding="utf-8"?>
<!-- Generator: Adobe Illustrator 26.0.2, SVG Export Plug-In . SVG Version: 6.00 Build 0)  -->
<svg version="1.1" id="Layer_1" xmlns="http://www.w3.org/2000/svg" xmlns:xlink="http://www.w3.org/1999/xlink" x="0px" y="0px"
	 viewBox="0 0 628 628" style="enable-background:new 0 0 628 628;" xml:space="preserve">
<style type="text/css">
	.st0{fill:#77B1FF;}
	.st1{clip-path:url(#SVGID_00000121987963873333497710000013320611358812947124_);}
	.st2{fill:none;stroke:#FFFFFF;stroke-width:2;stroke-linecap:round;stroke-linejoin:round;stroke-miterlimit:10;}
	.st3{fill:none;stroke:#29004E;stroke-width:2;stroke-linecap:round;stroke-linejoin:round;stroke-miterlimit:10;}
	.st4{fill:#29004E;stroke:#29004E;stroke-width:2;stroke-linecap:round;stroke-linejoin:round;stroke-miterlimit:10;}
	.st5{fill:#FDA132;}
	.st6{fill:none;stroke:#FDA132;stroke-width:6;stroke-miterlimit:10;}
	.st7{fill:none;stroke:#77B1FF;stroke-width:2;stroke-miterlimit:10;}
	.st8{fill:none;stroke:#77B1FF;stroke-width:2;stroke-linecap:round;stroke-linejoin:round;stroke-miterlimit:10;}
	.st9{opacity:0.2;fill:#29004E;}
	.st10{fill:none;stroke:#FDA132;stroke-width:2;stroke-linecap:round;stroke-linejoin:round;stroke-miterlimit:10;}
	.st11{display:none;fill:#FDA132;}
	.st12{opacity:0.2;fill:#29004E;stroke:#29004E;stroke-width:2;stroke-linecap:round;stroke-linejoin:round;stroke-miterlimit:10;}
</style>
<g>
	<path class="st5" d="M314,356.3L314,356.3c-49.6,0-89.8-40.2-89.8-89.8V162.8h179.5v103.8C403.8,316.1,363.6,356.3,314,356.3z"/>
	<rect x="293.7" y="323.5" class="st5" width="40.5" height="118.4"/>
	<path class="st5" d="M377,465.2H251c-3.1,0-5.7-2.5-5.7-5.7v-17.3c0-3.1,2.5-5.7,5.7-5.7h126c3.1,0,5.7,2.5,5.7,5.7v17.3
		C382.7,462.7,380.1,465.2,377,465.2z"/>
	<path class="st6" d="M422.3,291.6H205.7c-20.3,0-36.8-16.5-36.8-36.8v0c0-20.3,16.5-36.8,36.8-36.8h216.5
		c20.3,0,36.8,16.5,36.8,36.8v0C459.1,275.1,442.6,291.6,422.3,291.6z"/>
	<polyline class="st3" points="285.3,242.1 314,277 342.4,213.7 	"/>
</g>
</svg>
