<?xml version="1.0" encoding="utf-8"?>
<!-- Generator: Adobe Illustrator 26.0.2, SVG Export Plug-In . SVG Version: 6.00 Build 0)  -->
<svg version="1.1" id="Layer_1" xmlns="http://www.w3.org/2000/svg" xmlns:xlink="http://www.w3.org/1999/xlink" x="0px" y="0px"
	 viewBox="0 0 628 628" style="enable-background:new 0 0 628 628;" xml:space="preserve">
<style type="text/css">
	.st0{fill:#77B1FF;}
	.st1{clip-path:url(#SVGID_00000092427156510338049890000010487220820633976974_);}
	.st2{fill:none;stroke:#FFFFFF;stroke-width:2;stroke-linecap:round;stroke-linejoin:round;stroke-miterlimit:10;}
	.st3{fill:none;stroke:#29004E;stroke-width:2;stroke-linecap:round;stroke-linejoin:round;stroke-miterlimit:10;}
	.st4{fill:#29004E;stroke:#29004E;stroke-width:2;stroke-linecap:round;stroke-linejoin:round;stroke-miterlimit:10;}
	.st5{fill:#FDA132;}
	.st6{fill:none;stroke:#FDA132;stroke-width:6;stroke-miterlimit:10;}
	.st7{fill:none;stroke:#77B1FF;stroke-width:2;stroke-miterlimit:10;}
	.st8{fill:none;stroke:#77B1FF;stroke-width:2;stroke-linecap:round;stroke-linejoin:round;stroke-miterlimit:10;}
	.st9{opacity:0.2;fill:#29004E;}
	.st10{fill:none;stroke:#FDA132;stroke-width:2;stroke-linecap:round;stroke-linejoin:round;stroke-miterlimit:10;}
	.st11{display:none;fill:#FDA132;}
	.st12{opacity:0.2;fill:#29004E;stroke:#29004E;stroke-width:2;stroke-linecap:round;stroke-linejoin:round;stroke-miterlimit:10;}
</style>
<g>
	<polygon class="st3" points="423.2,230.6 423.2,450.2 204.8,450.2 204.8,177.8 370.4,177.8 	"/>
	<polygon class="st3" points="423.2,230.6 370.4,230.6 370.4,177.8 	"/>
	<line class="st3" x1="423.2" y1="230.6" x2="370.4" y2="177.8"/>
	<rect x="224.5" y="239.2" class="st3" width="33.9" height="33.9"/>
	<line class="st3" x1="280.4" y1="239.2" x2="321.2" y2="239.2"/>
	<line class="st3" x1="280.4" y1="265.2" x2="389.2" y2="265.2"/>
	<rect x="224.5" y="309" class="st0" width="33.9" height="33.9"/>
	<line class="st3" x1="280.4" y1="309" x2="389.2" y2="309"/>
	<line class="st3" x1="280.4" y1="335" x2="389.2" y2="335"/>
	<rect x="224.5" y="378.8" class="st3" width="33.9" height="33.9"/>
	<line class="st3" x1="280.4" y1="378.8" x2="346.5" y2="378.8"/>
	<line class="st3" x1="280.4" y1="404.8" x2="389.2" y2="404.8"/>
	<line class="st3" x1="359.9" y1="378.8" x2="389.2" y2="378.8"/>
</g>
</svg>
