<?xml version="1.0" encoding="utf-8"?>
<!-- Generator: Adobe Illustrator 26.0.2, SVG Export Plug-In . SVG Version: 6.00 Build 0)  -->
<svg version="1.1" xmlns="http://www.w3.org/2000/svg" xmlns:xlink="http://www.w3.org/1999/xlink" x="0px" y="0px"
	 viewBox="0 0 1500 1080" style="enable-background:new 0 0 1500 1080;" xml:space="preserve">
<style type="text/css">
	.st0{fill:#84B0FB;}
	.st1{fill:none;stroke:#25014B;stroke-width:2;stroke-linecap:round;stroke-linejoin:round;stroke-miterlimit:10;}
	.st2{opacity:0.2;fill:#25014B;stroke:#25014B;stroke-width:2;stroke-linecap:round;stroke-linejoin:round;stroke-miterlimit:10;}
	.st3{fill:#F1A64C;}
	.st4{clip-path:url(#SVGID_00000143597503492401402970000003746417866528159423_);}
	.st5{fill:none;stroke:#84B0FB;stroke-width:2;stroke-linecap:round;stroke-linejoin:round;stroke-miterlimit:10;}
	.st6{fill:#25014B;stroke:#25014B;stroke-width:2;stroke-linecap:round;stroke-linejoin:round;stroke-miterlimit:10;}
	.st7{fill:none;stroke:#F1A64C;stroke-width:2;stroke-linecap:round;stroke-linejoin:round;stroke-miterlimit:10;}
	.st8{opacity:0.2;fill:#25014B;}
	.st9{fill:#FFFFFF;stroke:#FFFFFF;stroke-width:2;stroke-linecap:round;stroke-linejoin:round;stroke-miterlimit:10;}
	.st10{opacity:0.2;}
	.st11{fill:#25014B;}
	.st12{clip-path:url(#SVGID_00000138574265782194357740000016199869678542605446_);}
	.st13{fill:#0656FD;stroke:#0656FD;stroke-miterlimit:10;}
	.st14{fill:none;stroke:#0656FD;stroke-width:10;stroke-miterlimit:10;}
	.st15{fill:none;stroke:#FFFFFF;stroke-width:2;stroke-linecap:round;stroke-linejoin:round;stroke-miterlimit:10;}
	.st16{fill:none;stroke:#84B0FB;stroke-width:2;stroke-miterlimit:10;}
	.st17{clip-path:url(#SVGID_00000178924696369625408190000012904961261036247952_);}
	.st18{clip-path:url(#SVGID_00000078729902617796414660000017070347939493372544_);}
	.st19{fill:none;stroke:#F1A64C;stroke-width:10;stroke-miterlimit:10;}
	
		.st20{fill:none;stroke:#25014B;stroke-width:2;stroke-linecap:round;stroke-linejoin:round;stroke-miterlimit:10;stroke-dasharray:20;}
	.st21{clip-path:url(#SVGID_00000092443935612171899250000011270229087252290473_);}
	.st22{fill:none;stroke:#F1A64C;stroke-width:6;stroke-miterlimit:10;}
	.st23{fill:none;stroke:#25014B;stroke-width:2;stroke-linecap:round;stroke-linejoin:round;}
	
		.st24{fill:none;stroke:#25014B;stroke-width:11;stroke-linecap:round;stroke-linejoin:round;stroke-miterlimit:10;stroke-dasharray:0,28,0,0;}
</style>
<g id="Safety">
</g>
<g id="Significant_cost_savings">
	<g>
		<g>
			<g>
				<polyline class="st5" points="1089,511.9 1089,546.1 1089,581 1089,616 1089,651 				"/>
				<polyline class="st5" points="1124,651 1124,616 1124,581 1124,546.1 1124,511.9 				"/>
				<polyline class="st5" points="1159,651 1159,616 1159,581 1159,546.1 1159,511.9 				"/>
				<polyline class="st5" points="1193.9,441.1 1193.9,464.8 1193.9,476.1 1193.9,511.1 1193.9,511.9 1193.9,546.1 1193.9,581 
					1193.9,616 1193.9,651 				"/>
				<line class="st5" x1="1228.9" y1="441.1" x2="1228.9" y2="651"/>
				<line class="st5" x1="1263.9" y1="441.1" x2="1263.9" y2="651"/>
				<line class="st5" x1="1298.9" y1="441.1" x2="1298.9" y2="651"/>
			</g>
			<g>
				<polyline class="st5" points="1193.9,441.1 1228.9,441.1 1263.9,441.1 1298.9,441.1 				"/>
				<polyline class="st5" points="1193.9,476.1 1228.9,476.1 1263.9,476.1 1298.9,476.1 				"/>
				<polyline class="st5" points="1298.9,511.1 1263.9,511.1 1228.9,511.1 1193.9,511.1 				"/>
				<line class="st5" x1="1298.9" y1="546" x2="1089" y2="546"/>
				<line class="st5" x1="1298.9" y1="581" x2="1089" y2="581"/>
				<line class="st5" x1="1298.9" y1="616" x2="1089" y2="616"/>
				<line class="st5" x1="1298.9" y1="651" x2="1089" y2="651"/>
			</g>
		</g>
		<line class="st1" x1="213.4" y1="303.3" x2="263.2" y2="386.7"/>
		<line class="st1" x1="215.9" y1="392.2" x2="244.1" y2="412.8"/>
		<path class="st1" d="M464.4,367.1L450.1,420l72.4,73.2l12.5-86.3l8,2c14.9,3.6,29-8.4,27.7-23.7c-1.4-16.4-3.5-36.4-6.4-52.6
			c-6.1-33.4-13-55.8-38.3-57.5c0,0,0.3,29.6-30.4,31.1c0,0,2.9,29.6-21.5,24c-4.8-1.1-8.6-5.2-13.9-5.2
			c-12.1,0-21.8,10.1-21.2,22.4c0.6,10.8,9.5,19.6,20.3,20c4.7,0.2,9.1-1.2,12.7-3.6"/>
		<path class="st1" d="M472.1,363.9c-2.3,1.5-4.9,2.7-7.7,3.2"/>
		<line class="st1" x1="454.2" y1="338.7" x2="464.3" y2="350.2"/>
		<path class="st1" d="M548.1,312.9c0,0,7.5,24,7.5,31.5c0,9.5-10.3,4.1-10.3,4.1"/>
		<path class="st1" d="M513.4,342.2c0,0,7.5,26.4,30.4,20.6"/>
		<path class="st1" d="M517.8,319.9c0,0,2.8-8.2,12-7"/>
		
			<ellipse transform="matrix(3.758636e-02 -0.9993 0.9993 3.758636e-02 185.1311 842.2384)" class="st6" cx="529.8" cy="325" rx="1.8" ry="1"/>
		<polygon class="st2" points="534.9,406.9 503.2,391.8 532.1,426.4 		"/>
		<path class="st1" d="M428.4,541.8l-27.7,88L522,634l-28.3,120.5H329c-42,0-71.9-40.9-59.1-80.9l69.8-218.9
			c6.6-20.7,25.8-34.7,47.5-34.7h62.9l72.4,73.2l9.7-66.8H620c23.3,0,43.5,16.1,48.7,38.9L699,599.2l93.8-80.3l46.6,155.5L728.8,769
			"/>
		<path class="st1" d="M472.1,363.9c-2.3,1.5-4.9,2.7-7.7,3.2"/>
		<g>
			<defs>
				<path id="SVGID_00000172442298599614469750000000962309905283356845_" d="M428.4,541.8l-27.7,88L522,634l-28.3,120.5H329
					c-42,0-71.9-40.9-59.1-80.9l69.8-218.9c6.6-20.7,25.8-34.7,47.5-34.7h62.9l72.4,73.2l9.7-66.8H620c23.3,0,43.5,16.1,48.7,38.9
					L699,599.2l93.8-80.3l46.6,155.5L728.8,769"/>
			</defs>
			<clipPath id="SVGID_00000106111814403468984120000005270541058852012706_">
				<use xlink:href="#SVGID_00000172442298599614469750000000962309905283356845_"  style="overflow:visible;"/>
			</clipPath>
		</g>
		<path class="st1" d="M472.1,363.9c-2.3,1.5-4.9,2.7-7.7,3.2"/>
		<line class="st1" x1="646.8" y1="793.1" x2="665.6" y2="936.9"/>
		<line class="st1" x1="613.2" y1="535.8" x2="625" y2="626.2"/>
		<line class="st1" x1="492.6" y1="656" x2="473.1" y2="739.1"/>
		<line class="st1" x1="491.6" y1="498.1" x2="511.4" y2="518.6"/>
		<line class="st1" x1="461.8" y1="467.3" x2="476.9" y2="482.9"/>
		<path class="st1" d="M1325.3,1000.7H427.4v-32.9h930.8v0C1358.2,986,1343.5,1000.7,1325.3,1000.7z"/>
		<path class="st6" d="M693.1,1000.7H280.3c-18.2,0-32.9-14.7-32.9-32.9v0H726v0C726,986,711.3,1000.7,693.1,1000.7z"/>
		<path class="st6" d="M247.4,967.8L247.4,967.8c-15.7,4.7-32.3-4.2-37-20L80.8,515.4c-4.7-15.7,4.2-32.3,20-37l0,0L247.4,967.8z"/>
		<line class="st1" x1="332.1" y1="478.4" x2="100.8" y2="478.4"/>
		<rect x="300.9" y="790.9" class="st0" width="190.6" height="36.5"/>
		<path class="st1" d="M927.4,967.8L787,499.2c-3.7-12.4-15.1-20.8-28-20.8h-87.4"/>
		<polyline class="st1" points="678.4,508.3 749.7,508.3 761,546.1 		"/>
		<rect x="271.1" y="900.4" class="st3" width="190.6" height="36.5"/>
		<rect x="258" y="827.4" class="st1" width="190.6" height="36.5"/>
		<polyline class="st1" points="807.6,701.6 878.1,936.9 271.1,936.9 142.7,508.3 322.5,508.3 		"/>
		<rect x="292.1" y="863.9" class="st1" width="190.6" height="36.5"/>
		<rect x="264.4" y="754.4" class="st1" width="190.6" height="36.5"/>
		<line class="st1" x1="568.1" y1="774.5" x2="568.1" y2="829.4"/>
		<ellipse class="st1" cx="599.4" cy="789.4" rx="7" ry="11.5"/>
		<path class="st3" d="M761.6,703.9c0,47.1-38.2,85.2-85.2,85.2c-28.1,0-53.1-13.6-68.6-34.7h31.1c2.2,0,4.3-0.9,5.8-2.3
			c1.5-1.4,2.6-3.4,2.8-5.6c0.4-5-3.4-9.3-8.4-9.4l13.3,0.3h0.2c4.8,0,8.9-3.4,9.8-8c0.1-0.3,0.1-0.6,0.1-0.9
			c0.4-3.7-1.4-7.2-4.2-9.2c-1.5-1-3.2-1.6-5.1-1.7l4.8,0.2l7.5,0.4c0.2,0,0.3,0,0.5,0c0.2,0,0.4,0,0.6,0c2.1-0.1,4-1,5.5-2.4
			c1.6-1.5,2.7-3.6,2.8-6v-0.1c0.2-4.6-3-8.5-7.5-9.2c-0.3-0.1-0.7-0.1-1-0.1l-1.1-0.1l-1.4-0.1l-6-0.3l-0.9,0l-9.5-0.5l-45.8-2.2
			l45.6,1.9l0.8,0c0.1,0,0.3,0,0.4,0c3.5,0,6.7-2,8.3-4.9c0.6-1.1,1-2.4,1.1-3.8c0.4-5.2-3.4-9.8-8.7-10.2l-53.4-4.3
			c11.5-33.4,43.2-57.4,80.6-57.4C723.4,618.7,761.6,656.9,761.6,703.9z"/>
		<line class="st1" x1="605.9" y1="656" x2="518.6" y2="648.2"/>
		<path class="st1" d="M581,674.9l68.2,5.5c5.2,0.4,9.1,5,8.7,10.2l0,0c-0.4,5-4.8,8.9-9.8,8.6l-46.4-2l64.7,3.1
			c5,0.2,8.8,4.5,8.5,9.5l0,0c-0.3,4.9-4.5,8.6-9.4,8.4l-63.3-3.1l51,2.5c5.7,0.3,9.9,5.2,9.4,10.9v0c-0.5,5.2-4.9,9.1-10.1,8.9
			l-51.2-1.1l37.8,0.8c5,0.1,8.8,4.4,8.4,9.4l0,0c-0.4,4.4-4.1,7.8-8.6,7.8l-145.2,0"/>
		<path class="st1" d="M493.7,754.4l114.1,0h31.1c2.2,0,4.3-0.9,5.8-2.3c1.5-1.4,2.6-3.4,2.8-5.6c0.4-5-3.4-9.3-8.4-9.4"/>
		<path class="st1" d="M601.2,736.4l37.8,0.8l13.3,0.3c0.1,0,0.1,0,0.2,0c5.1,0,9.4-3.9,9.9-9c0.6-5.6-3.7-10.6-9.4-10.9"/>
		<path class="st1" d="M602.1,715.1l51,2.5l12.3,0.6c0.2,0,0.3,0,0.5,0c4.7,0,8.6-3.6,8.9-8.4c0.3-5-3.5-9.2-8.5-9.5l-64.7-3.1
			l46.4,2c0.1,0,0.3,0,0.4,0c4.9,0,9-3.7,9.4-8.7c0.4-5.2-3.4-9.8-8.7-10.2l-53.4-4.3l-14.8-1.2"/>
		<line class="st1" x1="600" y1="690.9" x2="601.3" y2="741.4"/>
		<line class="st1" x1="589.2" y1="703.9" x2="589.9" y2="724.7"/>
		<polygon class="st2" points="518.6,648.2 523.8,754.4 493.7,754.4 		"/>
		<path class="st1" d="M621.1,668c4.9-7.8,11.3-14.6,18.8-19.8"/>
		<path class="st1" d="M712.3,762.9c-9.9,5.7-21.4,8.9-33.6,8.9c-8.4,0-16.5-1.5-24-4.4"/>
		<path class="st1" d="M654.6,640.4c7.5-2.8,15.6-4.4,24-4.4c28.6,0,53.1,17.7,63.1,42.8"/>
		<line class="st1" x1="686.1" y1="636" x2="688.8" y2="619.6"/>
		<line class="st1" x1="702.9" y1="640.5" x2="710.3" y2="625.7"/>
		<line class="st1" x1="720.3" y1="650.3" x2="730.1" y2="637.8"/>
		<line class="st1" x1="732.7" y1="662.8" x2="745" y2="653.4"/>
		<line class="st1" x1="279.4" y1="754.4" x2="279.4" y2="790.9"/>
		<line class="st1" x1="299.4" y1="754.4" x2="299.4" y2="790.9"/>
		<line class="st1" x1="319.4" y1="754.4" x2="319.4" y2="790.9"/>
		<line class="st1" x1="339.4" y1="754.4" x2="339.4" y2="790.9"/>
		<line class="st1" x1="359.4" y1="754.4" x2="359.4" y2="790.9"/>
		<line class="st1" x1="379.4" y1="754.4" x2="379.4" y2="790.9"/>
		<line class="st1" x1="399.4" y1="754.4" x2="399.4" y2="790.9"/>
		<line class="st1" x1="419.4" y1="754.4" x2="419.4" y2="790.9"/>
		<line class="st1" x1="439.4" y1="754.4" x2="439.4" y2="790.9"/>
		<line class="st1" x1="308.1" y1="863.9" x2="308.1" y2="900.4"/>
		<line class="st1" x1="328.1" y1="863.9" x2="328.1" y2="900.4"/>
		<line class="st1" x1="348.1" y1="863.9" x2="348.1" y2="900.4"/>
		<line class="st1" x1="368.1" y1="863.9" x2="368.1" y2="900.4"/>
		<line class="st1" x1="388.1" y1="863.9" x2="388.1" y2="900.4"/>
		<line class="st1" x1="408.1" y1="863.9" x2="408.1" y2="900.4"/>
		<line class="st1" x1="428.1" y1="863.9" x2="428.1" y2="900.4"/>
		<line class="st1" x1="448.1" y1="863.9" x2="448.1" y2="900.4"/>
		<line class="st1" x1="468.1" y1="863.9" x2="468.1" y2="900.4"/>
		<rect x="556.5" y="79.3" class="st0" width="637.4" height="46"/>
		<line class="st1" x1="556.5" y1="142.5" x2="556.5" y2="244.9"/>
		<polyline class="st1" points="1193.9,414.6 1193.9,441.1 1193.9,464.8 1193.9,476.1 1193.9,511.1 1193.9,511.9 1159,511.9 
			1124,511.9 1089,511.9 925.7,511.9 		"/>
		<line class="st1" x1="1193.9" y1="142.5" x2="1193.9" y2="226.1"/>
		<line class="st1" x1="619.3" y1="200.5" x2="619.3" y2="426.4"/>
		<line class="st1" x1="649.5" y1="435.5" x2="908.7" y2="435.5"/>
		<rect x="804.5" y="265.7" class="st1" width="67.6" height="124.3"/>
		<rect x="672.5" y="217.2" class="st1" width="67.6" height="172.7"/>
		<rect x="962.5" y="303.6" class="st1" width="67.6" height="86.4"/>
		<rect x="1063.5" y="346.8" class="st3" width="67.6" height="43.2"/>
		<path class="st0" d="M1053.3,166.2c-82.6,0-149.6,67-149.6,149.6s67,149.6,149.6,149.6c82.6,0,149.6-67,149.6-149.6
			S1136,166.2,1053.3,166.2z M1053.3,444.8c-71.2,0-129-57.7-129-129s57.7-129,129-129s129,57.7,129,129S1124.6,444.8,1053.3,444.8z
			"/>
		<path class="st0" d="M878.5,524.5c-3,5.2-1.2,11.7,3.9,14.7l0.4,0.2c-1.6-0.9-3.4-1.3-5.1-1.3c-3.7,0-7.2,1.9-9.2,5.3
			c-2.9,5.1-1.2,11.5,3.9,14.5l1.8,1.1c-1.6-1-3.5-1.4-5.2-1.4c-3.6,0-7.2,1.9-9.1,5.2c-2.9,5-1.2,11.4,3.8,14.3l7.6,4.4l-9.2,11.9
			l-28.3-21.8l24.7-32c13.1-4.8,20.6-18.2,24.3-27.1c1,1.9,2.4,3.5,4.4,4.6l5.7,3.3c-1.6-0.9-3.4-1.3-5.2-1.3
			C884.1,519.2,880.5,521.1,878.5,524.5z"/>
		<path class="st0" d="M976.9,444.4l-52.4,68.1l-20.4-11.8l8.1-1.6c4.9-1,8.3-5.3,8.3-10.1c0-0.7-0.1-1.3-0.2-2
			c-1-5-5.5-8.5-10.6-8.3l-4.5,0.2l43.4-56.3C957.1,431,966.6,438.3,976.9,444.4z"/>
		<path class="st2" d="M948.6,422.6l13.2,41.4l15.1-19.6C976.9,444.4,958.4,434,948.6,422.6z"/>
		<circle class="st9" cx="583.5" cy="102.3" r="10.3"/>
		<circle class="st9" cx="616.8" cy="102.3" r="10.3"/>
		<circle class="st9" cx="650.1" cy="102.3" r="10.3"/>
		<polyline class="st1" points="519.2,248.2 523.8,265.7 531.4,244.9 		"/>
		<path class="st1" d="M792.9,518.8l31.6-26.6c8-6.7,17.9-10.6,28.3-11.1l57-2.4c5.1-0.2,9.6,3.3,10.5,8.3l0,0
			c1.1,5.6-2.5,11-8.1,12.1l-26.5,5.2c0,0-10.3,41.1-42.1,36.7"/>
		<line class="st1" x1="871.2" y1="581.7" x2="828.5" y2="637.8"/>
		<path class="st1" d="M950,540.4c-2.1,3.6-5.9,5.7-9.8,5.7c-1.9,0-3.9-0.5-5.7-1.5l-47.3-27.3c-2-1.1-3.4-2.8-4.4-4.6
			c2-4.8,2.8-8.2,2.8-8.2l18.4-3.6l41.8,24.2C951.3,528,953.2,535,950,540.4z"/>
		<path class="st1" d="M924.3,563.4l-41.9-24.2c-5.1-3-6.9-9.5-3.9-14.7l0,0c3-5.1,9.5-6.9,14.7-3.9l41.9,24.2
			c5.1,3,6.9,9.5,3.9,14.7v0C936,564.6,929.5,566.4,924.3,563.4z"/>
		<path class="st1" d="M913.9,581.8l-41.5-24c-5.1-2.9-6.8-9.4-3.9-14.4l0,0c2.9-5.1,9.4-6.8,14.4-3.9l41.5,24
			c5.1,2.9,6.8,9.4,3.9,14.4v0C925.4,583,919,584.8,913.9,581.8z"/>
		<path class="st1" d="M900.6,598.4l-36.9-21.3c-5-2.9-6.7-9.3-3.8-14.3v0c2.9-5,9.3-6.7,14.3-3.8l36.9,21.3c5,2.9,6.7,9.3,3.8,14.3
			l0,0C912,599.6,905.6,601.3,900.6,598.4z"/>
		<path class="st1" d="M843.5,541.1c5.7,0.8,10.7,0.1,15-1.5c13.1-4.8,20.6-18.2,24.3-27c1.1-2.7,1.9-4.9,2.3-6.4
			c0-0.1,0.1-0.3,0.1-0.4c0.1-0.2,0.1-0.4,0.2-0.6c0-0.1,0.1-0.2,0.1-0.4c0,0,0-0.1,0-0.1c0-0.1,0-0.1,0-0.2c0-0.1,0-0.2,0-0.2
			l18.4-3.6l8.1-1.6c4.9-1,8.3-5.3,8.3-10.1c0-0.6-0.1-1.3-0.2-2c-1-5-5.5-8.5-10.6-8.3l-4.5,0.2l-52.5,2.2
			c-10.4,0.5-20.4,4.4-28.3,11.1l-31.6,26.6"/>
		<polyline class="st1" points="1135.4,338.1 1151.8,309.7 1420.5,309.7 		"/>
		<line class="st1" x1="1226.9" y1="237.6" x2="1420.5" y2="237.6"/>
		<line class="st1" x1="1226.9" y1="201.6" x2="1329" y2="201.6"/>
		<line class="st1" x1="1353" y1="201.6" x2="1420.5" y2="201.6"/>
		<path class="st6" d="M559.7,311.2c-5.7-21.4-14.3-34.9-33.7-36.1c0,0,0.2,29.6-30.4,31.1c0,0,2.9,29.6-21.5,24
			c-4.8-1.1-8.6-5.2-13.9-5.2c-12.1,0-21.8,10.1-21.2,22.4c0.6,10.8,9.5,19.6,20.3,20c1.7,0.1,3.4-0.1,5-0.4l-5.1,19
			c-61-19.4-68.6-91.8-24.7-124.9c44-33.1,89.2,4.6,89.2,4.6c11.9-8.3,41.3-18.2,48.4,11.1C579.1,305.6,560.2,311.1,559.7,311.2z"/>
		<rect x="1226.9" y="266.8" class="st0" width="60.2" height="18.7"/>
		<rect x="1312.7" y="266.8" class="st7" width="107.8" height="19.6"/>
		<g class="st10">
			<path class="st11" d="M682.4,710.7c-0.6-0.6-1.3-0.9-2.2-0.9h-5.5v0.1c-0.1,2.4-1.2,4.5-2.8,6h8.3c0.9,0,1.6-0.3,2.2-0.9
				c0.6-0.6,0.8-1.3,0.8-2.2C683.3,712,683,711.3,682.4,710.7z M703.6,678.4c-0.2-0.7-0.6-1.4-1.2-2.1c-2.4-2.6-5.2-4.5-8.3-5.6
				c-3.2-1.1-6.5-1.7-10-1.7c-4.8,0-9.1,1.1-12.8,3.2c-3.7,2.1-6.8,5.2-9.2,9.3c-2.1,3.6-3.6,7.9-4.5,13h-0.8
				c-1.6,2.9-4.8,4.9-8.3,4.9c-0.1,0-0.3,0-0.4,0l-0.8,0c0.1,0.1,0.1,0.2,0.2,0.3l9.5,0.5l0.9,0l6,0.3l1.4,0.1l1.1,0.1
				c0.3,0,0.7,0.1,1,0.1h13c0.9,0,1.6-0.3,2.2-0.9c0.6-0.6,0.8-1.3,0.8-2.1c0-0.9-0.3-1.6-0.8-2.2c-0.6-0.6-1.3-0.9-2.2-0.9h-14.3
				c0.8-3.7,1.9-6.8,3.4-9.4c1.7-2.9,3.9-5.1,6.5-6.6c2.6-1.4,5.5-2.2,8.8-2.2c2.5,0,5,0.4,7.3,1.2s4.4,2.1,6.3,4
				c0.8,0.7,1.6,1,2.3,1.1c0.7,0.1,1.4-0.1,1.9-0.5c0.5-0.4,0.9-0.9,1.1-1.6C703.7,679.8,703.7,679.1,703.6,678.4z M703.5,730
				c-0.2-0.6-0.6-1.1-1.1-1.5c-0.5-0.4-1.2-0.6-1.9-0.5c-0.7,0.1-1.4,0.4-2.2,1c-2.1,1.9-4.2,3.3-6.4,4c-2.2,0.7-4.6,1.1-7.2,1.1
				c-3.3,0-6.2-0.7-8.8-2.2c-2.6-1.4-4.8-3.6-6.5-6.6c-1.2-2-2.1-4.4-2.8-7.1c-0.2,0-0.4,0-0.6,0c-0.2,0-0.3,0-0.5,0l-7.5-0.4
				c0.1,0.5,0.2,1,0.3,1.5c2.9,2,4.6,5.4,4.2,9.2c0,0.3-0.1,0.6-0.1,0.9c2.4,3.8,5.3,6.7,8.9,8.8c3.7,2.1,8,3.2,12.8,3.2
				c3.5,0,6.9-0.6,10.1-1.8c3.2-1.2,6-3.1,8.3-5.6c0.7-0.6,1.1-1.3,1.2-2C703.7,731.3,703.7,730.6,703.5,730z"/>
		</g>
	</g>
</g>
<g id="Successful_result">
</g>
<g id="Speed">
</g>
<g id="Home_page">
</g>
</svg>
