<?xml version="1.0" encoding="utf-8"?>
<!-- Generator: Adobe Illustrator 26.0.2, SVG Export Plug-In . SVG Version: 6.00 Build 0)  -->
<svg version="1.1" id="Layer_1" xmlns="http://www.w3.org/2000/svg" xmlns:xlink="http://www.w3.org/1999/xlink" x="0px" y="0px"
	 viewBox="0 0 628 628" style="enable-background:new 0 0 628 628;" xml:space="preserve">
<style type="text/css">
	.st0{fill:#77B1FF;}
	.st1{clip-path:url(#SVGID_00000075876861402115700040000008753923544797850537_);}
	.st2{fill:none;stroke:#FFFFFF;stroke-width:2;stroke-linecap:round;stroke-linejoin:round;stroke-miterlimit:10;}
	.st3{fill:none;stroke:#29004E;stroke-width:2;stroke-linecap:round;stroke-linejoin:round;stroke-miterlimit:10;}
	.st4{fill:#29004E;stroke:#29004E;stroke-width:2;stroke-linecap:round;stroke-linejoin:round;stroke-miterlimit:10;}
	.st5{fill:#FDA132;}
	.st6{fill:none;stroke:#FDA132;stroke-width:6;stroke-miterlimit:10;}
	.st7{fill:none;stroke:#77B1FF;stroke-width:2;stroke-miterlimit:10;}
	.st8{fill:none;stroke:#77B1FF;stroke-width:2;stroke-linecap:round;stroke-linejoin:round;stroke-miterlimit:10;}
	.st9{opacity:0.2;fill:#29004E;}
	.st10{fill:none;stroke:#FDA132;stroke-width:2;stroke-linecap:round;stroke-linejoin:round;stroke-miterlimit:10;}
	.st11{display:none;fill:#FDA132;}
	.st12{opacity:0.2;fill:#29004E;stroke:#29004E;stroke-width:2;stroke-linecap:round;stroke-linejoin:round;stroke-miterlimit:10;}
</style>
<g>
	<path class="st5" d="M419.9,254.8c-0.2-59.4-49.1-107.2-108.8-105.6c-57.7,1.5-104,49.9-103.1,107.6c0.4,28.2,11.9,53.8,30.3,72.5
		c16,16.3,24.7,38.5,24.7,61.4l0.1,26.5l102.5-0.3l-0.1-27.3c-0.1-22.5,8.4-44.4,24.1-60.5C408.5,310,420,283.7,419.9,254.8z"/>
	
		<rect x="262.1" y="432.2" transform="matrix(1 -2.928587e-03 2.928587e-03 1 -1.3058 0.9226)" class="st3" width="104.5" height="28.3"/>
	<path class="st3" d="M332.8,460.4c0,10.1-8.2,18.4-18.3,18.4c-10.1,0-18.4-8.2-18.4-18.3L332.8,460.4z"/>
	<path class="st3" d="M321.1,390.4c0,0-3.1-118,13.8-148.2c4.5-8.1,14.2-24.6,26-21.4c10.4,2.9,11.5,16.3,9.3,25.1
		c-2.2,8.8-7.8,17.1-13.1,24.3c-10.9,14.4-27.5,30.8-46.4,32.9c-1.4,0.2-2.9,0.2-4.3,0.2c-29.8-1.2-44.9-63-24.7-65.7
		c27.5-3.8,9.8,162.7,9.8,162.7"/>
	<path class="st2" d="M230.8,225.9c0,0,15.5-36.5,49.9-51.2"/>
</g>
</svg>
