<?xml version="1.0" encoding="utf-8"?>
<!-- Generator: Adobe Illustrator 26.0.2, SVG Export Plug-In . SVG Version: 6.00 Build 0)  -->
<svg version="1.1" id="Layer_1" xmlns="http://www.w3.org/2000/svg" xmlns:xlink="http://www.w3.org/1999/xlink" x="0px" y="0px"
	 viewBox="0 0 628 628" style="enable-background:new 0 0 628 628;" xml:space="preserve">
<style type="text/css">
	.st0{fill:#77B1FF;}
	.st1{clip-path:url(#SVGID_00000115506519823729983690000010586047517051782549_);}
	.st2{fill:none;stroke:#FFFFFF;stroke-width:2;stroke-linecap:round;stroke-linejoin:round;stroke-miterlimit:10;}
	.st3{fill:none;stroke:#29004E;stroke-width:2;stroke-linecap:round;stroke-linejoin:round;stroke-miterlimit:10;}
	.st4{fill:#29004E;stroke:#29004E;stroke-width:2;stroke-linecap:round;stroke-linejoin:round;stroke-miterlimit:10;}
	.st5{fill:#FDA132;}
	.st6{fill:none;stroke:#FDA132;stroke-width:6;stroke-miterlimit:10;}
	.st7{fill:none;stroke:#77B1FF;stroke-width:2;stroke-miterlimit:10;}
	.st8{fill:none;stroke:#77B1FF;stroke-width:2;stroke-linecap:round;stroke-linejoin:round;stroke-miterlimit:10;}
	.st9{opacity:0.2;fill:#29004E;}
	.st10{fill:none;stroke:#FDA132;stroke-width:2;stroke-linecap:round;stroke-linejoin:round;stroke-miterlimit:10;}
	.st11{display:none;fill:#FDA132;}
	.st12{opacity:0.2;fill:#29004E;stroke:#29004E;stroke-width:2;stroke-linecap:round;stroke-linejoin:round;stroke-miterlimit:10;}
</style>
<g>
	<polygon class="st0" points="257.7,408.7 257.7,464.6 112.3,464.6 112.3,319.2 160.7,319.2 160.7,408.7 	"/>
	<g>
		<defs>
			<polygon id="SVGID_1_" points="257.7,408.7 257.7,464.6 112.3,464.6 112.3,319.2 160.7,319.2 160.7,408.7 			"/>
		</defs>
		<clipPath id="SVGID_00000056402566499209276890000005005924919336873110_">
			<use xlink:href="#SVGID_1_"  style="overflow:visible;"/>
		</clipPath>
		<g style="clip-path:url(#SVGID_00000056402566499209276890000005005924919336873110_);">
			<g>
				<line class="st2" x1="109.8" y1="314.2" x2="109.8" y2="470.7"/>
				<line class="st2" x1="134.9" y1="314.2" x2="134.9" y2="470.7"/>
				<line class="st2" x1="160" y1="314.2" x2="160" y2="470.7"/>
				<line class="st2" x1="185.2" y1="314.2" x2="185.2" y2="470.7"/>
				<line class="st2" x1="210.3" y1="314.2" x2="210.3" y2="470.7"/>
				<line class="st2" x1="235.4" y1="314.2" x2="235.4" y2="470.7"/>
				<line class="st2" x1="260.5" y1="314.2" x2="260.5" y2="470.7"/>
			</g>
			<g>
				<line class="st2" x1="263.4" y1="317.1" x2="106.9" y2="317.1"/>
				<line class="st2" x1="263.4" y1="342.2" x2="106.9" y2="342.2"/>
				<line class="st2" x1="263.4" y1="367.3" x2="106.9" y2="367.3"/>
				<line class="st2" x1="263.4" y1="392.4" x2="106.9" y2="392.4"/>
				<line class="st2" x1="263.4" y1="417.6" x2="106.9" y2="417.6"/>
				<line class="st2" x1="263.4" y1="442.7" x2="106.9" y2="442.7"/>
				<line class="st2" x1="263.4" y1="467.8" x2="106.9" y2="467.8"/>
			</g>
		</g>
	</g>
	<rect x="160.7" y="163.4" class="st3" width="355" height="245.3"/>
	<rect x="160.7" y="163.4" class="st3" width="355" height="29.2"/>
	<rect x="293.8" y="229.8" class="st3" width="111.4" height="46.2"/>
	<rect x="293.8" y="276.1" class="st3" width="111.4" height="46.2"/>
	<path class="st0" d="M380.6,267.9h-62.3c-8.3,0-15-6.7-15-15v0c0-8.3,6.7-15,15-15h62.3c8.3,0,15,6.7,15,15v0
		C395.6,261.2,388.9,267.9,380.6,267.9z"/>
	<path class="st0" d="M380.6,314.2h-62.3c-8.3,0-15-6.7-15-15v0c0-8.3,6.7-15,15-15h62.3c8.3,0,15,6.7,15,15v0
		C395.6,307.4,388.9,314.2,380.6,314.2z"/>
	<path class="st0" d="M269.2,360.4h-62.3c-8.3,0-15-6.7-15-15v0c0-8.3,6.7-15,15-15h62.3c8.3,0,15,6.7,15,15v0
		C284.2,353.7,277.5,360.4,269.2,360.4z"/>
	<rect x="293.8" y="322.3" class="st3" width="111.4" height="46.2"/>
	<rect x="182.3" y="229.8" class="st3" width="111.4" height="46.2"/>
	<rect x="182.3" y="276.1" class="st3" width="111.4" height="46.2"/>
	<rect x="182.3" y="322.3" class="st3" width="111.4" height="46.2"/>
	<circle class="st4" cx="178.2" cy="178" r="5.2"/>
	<circle class="st4" cx="194.9" cy="178" r="5.2"/>
	<circle class="st4" cx="211.7" cy="178" r="5.2"/>
	<g>
		<line class="st3" x1="229.5" y1="243.5" x2="246.6" y2="260.5"/>
		<line class="st3" x1="229.5" y1="260.5" x2="246.6" y2="243.5"/>
	</g>
	<g>
		<line class="st3" x1="229.5" y1="290.8" x2="246.6" y2="307.8"/>
		<line class="st3" x1="229.5" y1="307.8" x2="246.6" y2="290.8"/>
	</g>
	<polyline class="st3" points="226.7,341 237.9,355.1 249.4,335.7 	"/>
	<polyline class="st3" points="338.1,248.5 349.4,262.7 360.8,243.2 	"/>
	<polyline class="st3" points="338.1,294.8 349.4,308.9 360.8,289.4 	"/>
	<polygon class="st4" points="448.9,313.9 376.8,306.3 406.2,372.6 421.1,352.1 449.8,372.9 462.7,355.3 434,334.4 	"/>
	<line class="st3" x1="371.4" y1="434.2" x2="397.7" y2="434.2"/>
	<line class="st3" x1="419.9" y1="434.2" x2="515.7" y2="434.2"/>
</g>
</svg>
